<svg id="图层_1" data-name="图层 1" xmlns="http://www.w3.org/2000/svg" width="1184.66" height="596.36" viewBox="0 0 1184.66 596.36">
  <defs>
    <style>
      .cls-1 {
        fill: none;
        stroke: #222222;
        stroke-miterlimit: 10;
        stroke-width: 5px;
      }
    </style>
  </defs>
  <title>cabg</title>
  <path class="cls-1" d="M631.84,535.71l14-107.11a11.88,11.88,0,0,1,13.38-10.16,12.34,12.34,0,0,1,2.48.62l102.19,38-7-42a8.12,8.12,0,0,1,4.11-8.52l132.92-72.4-23.83-17a8.13,8.13,0,0,1-2.39-10.48l35.8-66.12-69.23,1.88a8.13,8.13,0,0,1-8.12-6.32l-7.32-32.74-62.27,46.25a8.13,8.13,0,0,1-12.36-9.52L793,115.44l-44.48,15.84a8.13,8.13,0,0,1-10.41-4.86c-.06-.17-.12-.34-.17-.52L711.91,38.24l-55.56,72.65a8.12,8.12,0,0,1-11.37,1.6,4.78,4.78,0,0,1-.42-.34L608.63,81.52l1.29,133.94A8.13,8.13,0,0,1,595,220l-41.73-65.38-18.5,28a8.12,8.12,0,0,1-9.83,3l-64-26.4,9.93,74.53a8.12,8.12,0,0,1-6,8.94L436.55,250,535,365a8.14,8.14,0,0,1,.81,9.43l-21.5,36.71,109,.87a11.86,11.86,0,0,1,11.73,12,12,12,0,0,1-.3,2.54l-25,105.08Z" transform="translate(-12.95 -4.23)"/>
  <path class="cls-1" d="M245.42,277.27l35.25-58a7.47,7.47,0,0,1,10.27-2.44,7.11,7.11,0,0,1,1.27,1l49.1,47.8,6.62-25.91a5.1,5.1,0,0,1,4.53-3.85l94.8-7.86-9.38-15.8a5.09,5.09,0,0,1,1.28-6.63l37.38-28.92-40.28-16.51a5.11,5.11,0,0,1-3.06-5.69l4.11-20.68L389.77,144.5a5.11,5.11,0,0,1-4.69-8.61l59.78-59.28-29.59-2.19A5.11,5.11,0,0,1,410.52,69l0-.33,7.29-57-50.4,27.65a5.11,5.11,0,0,1-6.95-2,2.1,2.1,0,0,1-.15-.3L347.46,10.26,314.17,87.59a5.1,5.1,0,0,1-9.72-1.21l-7.39-48.19L279.32,49.58a5.1,5.1,0,0,1-6.42-.76L242.79,17.38,229.57,62.75a5.11,5.11,0,0,1-5.7,3.62l-18.15-3,27.39,91.1a5.09,5.09,0,0,1-1.93,5.63L209.5,175.79,272,204a7.43,7.43,0,0,1,2.87,11.27l-41.09,54.05Z" transform="translate(-12.95 -4.23)"/>
  <path class="cls-1" d="M252.46,558.38l-23.1-79.19a9.06,9.06,0,0,1,8.16-11.54l83.12-4.81-17.8-27.18a6.19,6.19,0,0,1,.26-7.22L373.81,337l-21.87-4.55a6.21,6.21,0,0,1-4.89-6.59l4.74-57.22L304,291.22a6.2,6.2,0,0,1-7.61-1.93l-15.17-20.65L251.83,320.1a6.21,6.21,0,0,1-11.57-2.86L236.14,215l-26.23,24.73a6.21,6.21,0,0,1-8.77-.21l-.28-.3L155.72,186l-16.54,67.86a6.21,6.21,0,0,1-7.47,4.61l-.4-.11L96.79,247.93l42,93.26a6.2,6.2,0,0,1-9.06,7.73L80.5,316l-4.34,25.25a6.22,6.22,0,0,1-6,5.14l-52.88,1.2,29.83,49.06a6.19,6.19,0,0,1-1.43,8.08L28.21,418.59l104.13,50.16a6.2,6.2,0,0,1,3.46,6.34L132,507.36l76.49-32.86a9.07,9.07,0,0,1,11.9,4.79,10,10,0,0,1,.57,1.88l14.74,81.16Z" transform="translate(-12.95 -4.23)"/>
  <path class="cls-1" d="M1084.92,590.86l-35.65-85.78a10.21,10.21,0,0,1,5.6-13.31,9.71,9.71,0,0,1,2.12-.61l92.43-15.66-23.27-28.23a7,7,0,0,1-.61-8.11l67.86-111.07-25-2.39a7,7,0,0,1-6.29-6.78l-1.77-64.63-50.75,31.17a7,7,0,0,1-8.76-1.22L1081.26,263l-26.49,61.22a7,7,0,0,1-13.3-1.77l-17.23-113.9-26.31,30.92a7,7,0,0,1-9.85.86l-.34-.31L930.63,186l-10.14,78A7,7,0,0,1,912.7,270l-.45-.07-39.93-7.36,58.56,99.2a7,7,0,0,1-9.19,9.77l-59.2-30.74-1.73,28.79a7,7,0,0,1-6,6.48l-59,7.88,39.44,51.23a7,7,0,0,1-.6,9.23l-17.9,17.66,122.75,43.27a7,7,0,0,1,4.66,6.68l-.22,36.59,81.56-46.24a10.2,10.2,0,0,1,13.9,3.9,10.61,10.61,0,0,1,.87,2l26.53,89Z" transform="translate(-12.95 -4.23)"/>
  <path class="cls-1" d="M1052.88,252.21l6.55-51a5.66,5.66,0,0,1,6.36-4.85,6,6,0,0,1,1.18.29l48.64,18-3.38-20a3.86,3.86,0,0,1,1.94-4.06l63.15-34.55L1166,148.07a3.85,3.85,0,0,1-1.15-5l17-31.48-32.92,1a3.87,3.87,0,0,1-3.87-3L1141.49,94l-29.57,22.06a3.87,3.87,0,0,1-5.89-4.52l23.13-59.36L1108,59.76a3.86,3.86,0,0,1-5-2.31,2.25,2.25,0,0,1-.08-.24l-12.48-41.67-26.36,34.6a3.86,3.86,0,0,1-5.41.77l-.2-.16-17.11-14.53.73,63.7a3.87,3.87,0,0,1-7.1,2.15l-19.91-31-8.77,13.33a3.86,3.86,0,0,1-4.67,1.44L971.23,73.3,976,108.73a3.85,3.85,0,0,1-2.83,4.26l-13.45,3.54,46.93,54.58a3.86,3.86,0,0,1,.39,4.48l-10.19,17.48,51.85.31a5.65,5.65,0,0,1,5.59,5.71,5.55,5.55,0,0,1-.14,1.21l-11.82,50Z" transform="translate(-12.95 -4.23)"/>
</svg>
