<?xml version="1.0" encoding="utf-8"?>
<!-- Generator: Adobe Illustrator 24.0.1, SVG Export Plug-In . SVG Version: 6.00 Build 0)  -->
<svg version="1.1" id="图层_1" xmlns="http://www.w3.org/2000/svg" xmlns:xlink="http://www.w3.org/1999/xlink" x="0px" y="0px"
	 viewBox="0 0 1191.6 413.4" style="enable-background:new 0 0 1191.6 413.4;" xml:space="preserve">
<style type="text/css">
	.st0{fill:none;stroke:#fff1;stroke-width:3;stroke-miterlimit:10;}
</style>
<path class="st0" d="M620.5,1.5l-3.3,0.1l-1.5,0.6l-2.2,2.1l-1.2,0.7l-2.2,0.3l-1.2-0.4V4.5l1.5-1l0.9-1.3l-0.5-0.4l-0.7-0.2l-3.3,1
	l-2.7,0.1l-5.7-0.1l-2.3,0.9l-2.5-0.1l-2.8,0.8l-1.2,0.6l-1.7,0.3l-1.3-0.1l-1.7,0.1L580.8,5l-1.3,0.3l-1.2,0.6l0.3,0.7l1.8,0.6
	l2,0.3l0.5,0.4l-1,0.4h-3.6l-2-0.3l-4.2-0.1l-0.9,0.3l-0.8,0.6l-2.3,0.5l-0.4,0.6l1.3,0.7l1,0.8l-0.2,0.6h-1l-0.8-0.3l-1.7-0.3h-0.5
	l-0.9,0.3l0.2,0.4l1.2,0.6l0.1,0.5l-1.2,0.8l-0.2,0.5l1.5,0.7l0.1,0.6l-1.2,0.5l-2,0.1l-1-0.3l-1-0.7l-1.2-0.1l-1.3,0.1l-1-0.4
	l-0.5-0.6l-1.2-0.3l-0.8,0.1l-0.5,0.3v1.8l-0.7,0.4l-1.7,0.3l-0.3,0.3l0.3,0.3l2,0.6l2.6,0.3l1,0.4v0.6l-0.7,0.1h-2.6l-1.7,0.3
	l-1.2-0.2l-1.3-0.6h-2.3l-2,0.4l-1.3,0.7l-0.5,1.2l-0.9,0.1h-1l-0.8-0.3l-1.3,0.1l-1.7,0.5l-4.2,1.9l0.3,0.6l2,0.6l1.3-0.1l1.3-0.8
	l1.5-0.1l0.6,0.3l-0.3,0.6l-1.3,0.8v0.8l1.3,0.4l1.3,0.2l1.5,0.5l0.3,0.5l-2.5,1v0.6l0.9,0.3h1.5l5.7-0.6l3-0.1l2.2-0.3l2.2-1l1.7-1
	l1-0.1l0.3,0.1l0.1,0.3l-2.2,1.7l-1.9,0.8l-2.3,0.5l-5,0.5l-1,0.3l-1.2,0.5v0.7l2.3,0.5l2,0.7l3.2,0.6l1.2-0.4l1-2.6l1-0.2l0.9,0.3
	l0.1,0.6l-0.9,1.5l0.3,0.6l1.6,0.7l6.3-0.2l2-0.2l1-0.4v-0.8l0.5-0.5l1-0.1l1,0.2l0.5,0.6l0.9,0.3l1.8,0.1l3-1.2l3.2-1l2.2-0.5
	l1.3-0.9l0.5-0.7l0.9-0.6h1.8l3-0.3l0.8,0.3l0.1,0.6l-0.9,0.6l-1.9,1l-2.7,1.5l-1.2,1.3l-0.8,0.3l-4.2,0.9l-3.3,0.6l-1.7,0.4
	l0.1,1.1l0.3,0.3l2.3,0.7l2,0.3l1,0.3l1.3,0.8l0.3,1.3l2,0.7l1,0.5l0.1,0.4l-1.3,0.3H582l-1-0.4l-2.1-1.7l-1.2-0.7l-2-0.1l-1.5-0.6
	l-2-1l-2-0.8l-2.6-0.1h-6l-2.2,0.3l-0.7,0.3l-0.2,0.6l0.8,1.2l1.2,0.6l0.1,1.8l0.6,0.7l1.2,0.4l4,0.4l0.8,0.3l2.3,1.5l0.8,0.9l1,0.8
	l1.4,0.8l0.3,0.4l-0.4,1l0.5,0.6l1.2,0.3l3,0.1l1,0.1l1.6,0.1l1.7-0.2l1.2-0.5l1-0.1l1.6,0.6l0.1,0.5l-1.2,0.6l-2,0.3l-0.5,0.4
	l-0.2,0.6l-1,0.3l-1.8-0.1l-1.7-0.5l-1.6-0.6l-1.7-0.2l-2,0.1l-3.7,0.6l-2.7,0.2l-1.9,0.3l-1.3,0.8v0.8l0.7,1.1l-2.5,0.9l0.4-0.5
	l0.6,0.9l-0.5,1.2v1.3l0.8,0.4l0.7,0.1l1-0.2l1.9-1.2l1-0.1l0.8,0.3l0.5,0.6l0.8,0.6h1.5l2.2-1.4l1-0.1l0.7,0.2l0.1,0.4l-1.2,1v1.2
	l1.4,1.2l0.5,0.9l1.3,0.4l1,0.6l1.5,0.3l2,0.1l1.5-0.6l1-1.1l1-0.7h1l0.8,0.6l0.1,0.6l-1.3,1.5l-1.5,0.7l-2.7,0.6l-3.5,0.1l-1.3,0.1
	l-2-0.1l-1-0.3l-2.3-2.3l-2.8-1.3l-2-0.3l-1.7,0.1l-2.2,0.1l-1,0.1l-1,0.3v0.8l1.8,1.5l0.1,1.9l0.5,0.3h2.2l0.8,0.3l0.1,0.8l-1.2,1
	l-1.3,0.4l-2.2,0.1l-2,0.4l-3.2,2.2l-1.4,1.4l1.3,2.2l1,0.8l4,0.1l1.8,0.6l2.5,0.1l1-0.3l0.5-0.6l3-0.1l0.7-0.4l1-0.4h0.7L573,76
	l1.3,0.3l5.3,0.6l1.6,0.3l1.5,0.1l0.5-0.3l-0.3-0.3l-1.3-0.4l-0.1-0.2l0.3-0.6l2.5-1l4.5-0.1l1.7-0.5l1,0.2v0.9l0.5,0.2l1.3,0.1
	l1.7-0.7v-1l1.2-0.5l1.2-0.1l1.3,0.1l4.5-0.3l0.7,0.1l0.6,0.5l-0.9,1.5v1.1l0.7,0.3l1,0.1l1-0.2l1.7-0.9l4.4-1.7l2.7-1.7l2.7-0.5
	l1.4-1.9l-0.1-1L617,67l-1.2-0.4l-1.2,0.1l-0.7,0.6l-0.3,0.8l-0.7,0.3l-1.3-0.1l-2.8-0.8l-0.3-0.6l1-1l-0.1-0.6l-0.7-0.1h-1
	l-0.9,0.3l-2.2,0.6h-2.3l-1.5-0.2h-3.2l-0.8,0.3l-0.5,0.3h-1.5L594,66l-0.3-0.4l0.2-0.5l0.5-0.5l-0.3-0.5l-0.8-0.6l-0.3-0.9l0.7-0.3
	l1.3,0.1l3.1,1.7l1.5,0.3l2.2,0.1l3.2-0.5l3.7-0.8l2.7-0.8l1.5-0.3l1.2-0.8L614,61l-2.2-1.2l-0.5-0.5l-1.8-1.4v-0.6l3.3-0.7l2.8,0.2
	l1.5-0.7l4.2-0.9l0.5-0.3l-0.3-0.4L620,54h-3.5l-0.5-0.2v-0.4l1.7-0.4l3.3-0.4l0.7-0.6l-0.1-0.6l-1.5-0.7l-2.3-0.3l-1.2-0.4l0.7-0.3
	l2.2-0.1l1.2-0.7l0.3-0.7l-1.4-1.4l-4-0.5l-1-0.3l-0.6-0.6h-1.9l-2.5,0.4l-0.8-0.1l-0.7-0.3l1.2-1l0.2-0.7l1.3-0.1h1l2.8,0.2h4
	l0.5-0.2l-0.1-0.6l-1.7-0.8l-1.6-0.2h-2.3l-5.8,1l-1.9,0.1l-1-0.2l-0.5-0.2l0.2-0.3l1.3-0.6l2.2-0.6l1.5-0.7l2.5-0.1l1.5-0.3
	l4.2-1.7l1.5-0.2l0.7-0.3l0.2-0.6l-1.5-0.8l-0.1-0.8l0.3-0.3l1-0.1l1.7,0.5h1.8l2.5-0.9l1.2-0.8l0.1-0.6l-1-0.6l-0.2,0.3l2.2-0.5
	l-0.3-0.8l-0.5-0.2h-1.3l-3.3,1l-1.3-0.1l-0.3-0.1l0.2-0.3l4.3-1.5l0.9-0.6l0.2-0.6l-1.2-0.6v-0.5l2.7-0.3l0.5-0.8l1.6-4.2l0.9-1.6
	l1.2-1.2l0.1-2.7l2.6-1.9l0.3-0.8l-0.1-0.7l-1.3-0.6h-2.1l-1.5,0.5l-1.2,0.8l-1.9,1.5l-0.7,0.9l-4.2,2.5l-1.5,0.2l-0.8-0.1l-0.7-0.3
	v-0.6l1.9-1.1l4.4-2l-0.3-0.6l-0.7-0.1l-3.9,1l-1.2-0.1l-0.7-0.4l0.7-0.4l3.6-0.7l2.9-0.9l1.2-1l3.9-1.5l1.9-1.4l0.7-1.2l0.4-1.4
	l-0.1-1L633.6,6l-0.3-1.3l-1.2-1.2l-1.3-0.3l-2.2,0.2l-4-0.3l-1.3-0.7l-1.7-0.1l-0.8-0.3L620.5,1.5z M527.3,26.7l-1.3,0.3v0.8
	l0.5,0.4h1.7l1.2,0.5l0.1,0.6l-0.9,0.3l-2,0.3l-1.2,0.6l-0.6-0.1l-0.7-0.6l-0.7-0.1l-1.3,0.1l-0.8,0.3l0.3,1.1l-0.4,0.8l2.3,0.5
	l1.2,0.6l0.6,0.9l-0.2,0.5l-4,0.6l-1.8,0.3L519,36l0.1,1.1l-2.3,1l-0.2,0.5l0.5,0.3h0.9l0.3-0.1l1-0.1l0.6,0.2v0.7l3.3,0.6l1.5,0.7
	l0.3,0.5l-0.7,0.2h-1.6l-2.5-1l-1.8-0.5h-1.6l-0.4,0.4l0.8,1.2l-0.2,0.8l-0.4,0.6l0.8,0.6l0.5,0.8l1.2,0.3h2l0.7,0.3l-0.2,0.3
	l-1.5,0.8l-0.3,0.6v-0.1l1.3,0.5l0.6,0.8l1.3,0.6l0.7,0.1l0.7-0.2v-1.1l0.3-0.4l1-0.1l0.6,0.3l0.5,0.7l1,0.1l2.9-0.3l0.8-0.3
	l0.9-0.6l0.8-0.1l2,0.3l0.5,0.3l-0.7,0.6l-0.2,0.6l0.8,0.8l0.1,0.6l-0.5,0.3h-1.7l-1.8-0.3l-2,0.3l-3.3,1.1v0.6l1.3,0.6l2.1,2.1
	l2,0.8l4,0.1l1,0.3l0.1,0.4l-1.2,0.3l-1.4,0.6v0.6l5.4,1.7l4.2,0.5l1.8-0.2v-1.2l0.9-0.3l1.3,0.4h0.7l0.7-0.2l0.9-1.1l0.7-0.1l1,0.2
	l0.1,1.1l0.8,0.4h0.8l1.2-1l-0.3-1.9l0.7-0.4l1.5,0.1l0.7-0.5l-0.3-1.1l0.2-0.4l2.2-1l1.7-1.9l3.5-1.7l3.7-1.4l0.9-0.6l-0.2-0.1
	l-0.3-0.8l-2.6-1.7l-1.6-0.3l-2.5-0.1l-0.7-0.1h-0.7l-0.5,0.4l-0.1,0.5l-0.7,0.2l-0.7-0.1l-1-0.4l-0.3-0.7l0.9-0.8l-0.5-1v-1.7
	l-2.6-0.8l-0.6-0.6l0.5-1.1l-0.8-0.8l-0.1-1.1l-0.3-0.1l-2.8-0.1l-0.7,0.3l0.1,1l1.3,1.2l-0.3,0.6l-0.9,0.3l-1.2-0.1l-0.8-0.3
	l-2.1-3l-0.7-0.3l-2.7-0.1l-1-0.1l-1.2-0.4l-1-1.9l-2.3-1.2l-2.3-1.9l-1-1.1l-1.5-1l-2.8-0.6L527.3,26.7z M503.8,39.3l-2,0.2
	l-0.8,0.3l-0.6,1v0.8l1,0.2l1,0.3l0.5,0.9l0.8,0.4h1.3l0.5-0.5l-0.1-3l-0.1-0.1L503.8,39.3z M480.2,46.2l-2.9,0.3l-2.7,0.6l-1.2,0.8
	l-0.2,1.1l0.5,0.4l1.5,0.1l1,0.3v1l0.9,0.1l0.3-0.1l1.2-0.1l1,0.1l0.3,0.4l-1,0.5v0.3l2.6,0.9l-0.8,0.6l0.5,0.5l0.1,0.7l-0.5,0.3
	l-1,0.1l-1.3-0.5l-1.2-0.1l-2.3,0.3l-0.8,0.3l-0.4,0.5l0.8,0.6l1,1l1,0.1l2.7-0.4l1.9-0.1l5.9,1.2l2.3-0.1l2.3,1.2l1.2,1.2l0.1,1.6
	l0.5,0.3l4.5,1.2l1.3-0.1l1-0.3l0.5-0.6l-0.4-1.8v-1.2l-1.3-1.2V57l1.6-1.9l-1-1.1l-2.9-1.4l-1.7-0.3l-1.5-0.1l-0.5-1.1l-2.5-1.5
	l-0.6-0.2h-0.7l-1,1.4l-1,0.2l-1.2-0.2V50l0.9-1.1l-0.3-0.7l-0.7-0.6l-1.2-0.5l-0.7-0.1l-1.4-0.7L480.2,46.2z M569.8,49l-2.2,0.2
	l-2.3,1l2,0.1L568,50l1-0.1l1.2-0.5L569.8,49z M447.4,50.4l-5.7,0.9l-3.5,0.4l-1.5,0.3h-3.8l-1,0.1l-0.2,0.8l0.6,0.3l4,0.1l1.2,0.2
	l1.5,0.8l0.8,0.1l1.3-0.8l1-0.1l2.5,1.2l1.5,0.1l0.7,0.2l1.2,0.3l1.5,0.1l2-0.7l1-0.6l-0.1-0.7l-2.1-2.3l-1-0.5l-0.5-0.3L447.4,50.4
	z M506.9,53l-0.3,0.2v0.5l1.3,1.2v0.7l-1.2,0.8l-0.1,0.6l0.4,0.8l1.5,0.9l1.3,0.4l1.8,0.3l1,0.6l-0.5,0.4h-2.2l-1,0.3l-0.2,0.6
	l1.3,0.6l0.5,0.8l1,0.7l0.8,0.1l1.5-0.7l4-0.1l2.3-0.5l2.3-0.6l0.7-0.7L523,60l-0.8-0.5l-0.7-0.6l-0.4-1.2l1-1l-1-0.6l-1.7-0.3h-1.6
	l-0.7-0.3l-0.5-0.7l-1-0.5l-3.5-0.3l-2-0.4l-1.8-0.6L506.9,53z M421,54.6l-0.7,0.7l0.8,1.2l0.6,0.6v0.7l1,0.4l1-0.1l0.7-0.5l1-0.6
	l-0.8-1.4l-1.8-1.2L421,54.6z M434.6,56.5l-4.3,0.6l-1.2,0.3l-0.9,0.3l-0.2,1.5l-1.7,1l-0.1,0.6l2.5,1l0.1,1.1l0.6,0.3l1.7,0.3
	l4.2-0.2l3,0.1l1.3-0.3l0.9-0.7l0.2-1.1l0.5-1.1l-0.1-0.5l-0.5-0.5l0.5-0.3l3.7-0.5l1.5-0.2l1-0.4l-0.1-0.8l-1.4-0.3l-2.3-0.2H434.6
	z M408.1,58.3l-1.3,0.3l-1.3,0.9l-2-0.1l-4.6-1.1h-3l-2,0.3l-2.7,0.9l-5.4,1.5l-3.3,1.1l-1.5,0.2l-3.9,0.1l-1.3,0.3l-0.7,1l-0.9,0.6
	l-0.7,0.3l-1.5-0.1l-1-0.3l-1.3-0.1l-3.5,0.6l-2,0.2l-0.3,0.4l0.3,0.8l-0.3,0.6v1.2l1.2,0.3l2.8-0.3l1,0.3l0.8,0.8l1.2,0.1l1-0.6
	l1.2-0.1l1.2,0.6l0.1,0.5l-0.3,0.4v0.8l0.7,0.3l2.3,0.2l1.8,0.1l1.9-0.8v-0.8l0.7-0.6l3.8-0.1l2.5-1.2l6.2-3.4l1.3-0.3l1,0.2v0.4
	l-2.4,1.5l-1,1.4l0.8,0.6l0.3,0.8l0.5,0.4l0.8,0.1l2.2-1.4l3.3-0.8l2.7-0.1l1.2-0.5l0.2-1.5l0.5-0.4l2-0.1l0.7-0.6l-1.1-1.2l0.3-0.4
	l1.7-0.6l1.3-0.1l1-0.6l-0.1-1.2l-0.6-1.4l-1-0.5L408.1,58.3z M485.2,61.7L484,62l-0.5,0.6l0.5,0.6l2.3,0.8h1.8l0.7-0.1h1.2l0.5-0.2
	l-0.1-0.7l-1.2-0.6l-2-0.4L485.2,61.7z M465.1,62.4l-0.7,0.6v0.8l1.1,1.6l0.1,1.5l1.2,1.1l0.8,0.3l2.2,0.2l0.7-0.4l0.2-0.3l-0.1-1
	l-1.8-1.2l-0.9-2.8l-0.9-0.3H465.1z M526,63.3l-2.8,0.6l-3.7-0.2l-1.3,0.1l-1.9,1l-0.9,0.6l0.3,0.6l1.3,0.3l3.3,0.2l5.5-0.1l2,0.4
	l1.5,0.1l1.2-0.6l0.2-1.2l1.2-0.7l-0.1-0.5l-1-0.3l-3.2-0.1L526,63.3z M545.3,64.6l-0.7,0.1l-1,0.8l-0.2,1l0.3,0.8l2.6,1.2l1.7,0.3
	l2.3-0.1l0.5-0.3l-0.1-1.6l-1.2-0.8l-2.3-0.7L545.3,64.6z M413.7,66.5l-0.7,0.2v0.4l0.5,0.5l0.8,0.3l4.8-0.2l0.7-0.3l-0.5-0.3
	l-3.6-0.6L413.7,66.5z M409.1,69.7l-5,0.1l-1.2,0.5l-0.4,1.2l-3,0.1l-4,1.9l0.3,0.4l1.5,0.4l1.7,0.7l0.1,0.3l-0.7,0.1l-1.5-0.1
	l-2.8-0.8l-1,0.2l-1.3,0.7l-2.2,0.6l-0.5,0.5l1,0.4l5.3,0.5l-0.2,0.6l-1,0.2l-2.3-0.1l-1.5-0.2h-2.6l-1.3-0.1L385,78l-1.3,0.4
	l0.1,0.6l2.8,1.3l1.7,0.6h2l1.8,0.7l0.6,1.7l1.3,0.3l0.5-0.2l1-0.1l1.3,0.6h4.2l1-0.1l0.9-0.6l0.4-0.8l1-0.3l1.3,0.1l0.5,0.4
	l-0.5,0.9v0.6l0.8,0.3l1.2-0.1l4.2-0.1l1-0.2l1-0.1l3.3,0.7h1.5l1.9-0.4l1.2-0.1l1,0.3l0.1,0.8l-1.2,0.8l-1.7,0.5H417l-2.3-0.1
	l-6.3-0.1l-1.2,0.1L404,87l-3.2,0.1l-0.7,0.4v0.9l1.8,1.5l5.6,1.5l2.8,0.1l10.9-1.5l2.7-0.6l3.2-0.3l4.3-0.4l1.4-0.5l2-0.6l2,0.3
	l0.6,1l1.3,0.4l4.5-0.5l3.5,0.9l1.8,0.1l2-0.2l1.8-0.3l3-1.2l1.2-1l1.2-1.9l2.4-1l0.9-1.7l-0.3-1.2l-0.8-0.7l-2.3-1.5l-1.7-0.2h-2
	l-2,0.6l-2,0.7l-1-0.1l-1.2-0.4l-1.1-1.2l-0.9-0.3l-1.3-0.1l-0.8-0.3v-0.4l1.3-0.6l1-0.3l0.5-0.6l-0.3-0.9l-1.8-1.3l0.2-0.4L446,72
	v-1l-0.8-0.7L444,70l-1.7,0.3l-3.2,1.4l-0.7,0.6l-0.7,0.3l-1.4,0.3l-0.5,0.1l-1.7,0.6l-0.5,0.4l0.1,0.6l0.8,0.5l0.4,0.1l3.2,1.4
	l0.3,0.7l-0.7,0.4l-1.2,0.2l-2.2,0.1l-0.5,0.4l0.1,0.6l1.8,0.8l0.1,0.8l2.5,1l0.1,0.7l-0.9,0.4h-2.2l-3-0.2l-1.9-0.2l-3.9-0.5
	l-2.3-0.4l-0.5-0.3l0.1-1.9l0.2-0.6l-0.3-0.5l-2.3-0.8l0.2-0.3l1.2-0.3V76l-2.8-1.2l-0.3-1l-1.2-0.5l-2.5-0.2l-2.2-0.3l-0.6-0.3
	l0.2-0.5l0.9-1l-0.8-0.6l-1.7-0.6L409.1,69.7z M390.3,70.9l-1,0.1l-0.9,0.3l-1.2,0.3l-5.7,1.2l-3.2,0.5l-1.2,0.4l1.3,1.3l0.6,0.4
	l1.3,0.1l2.5-0.7l2.2-0.8l2-1l3.9-1.7l-0.1-0.6L390.3,70.9z M515.6,71.2l-0.3,0.2l-2.8,0.8v0.6l1,0.4l0.1,0.3l-1.5,0.6l-0.1,0.5
	l0.6,0.2h1.5l0.8,0.3l0.5,0.8l1.2,0.5l0.3,1l0.7,0.3l1.5-0.1l1.2,0.2l0.2,0.2l-0.7,0.7v0.7l1.5,0.1l1.5-0.4l4.5,0.1l2.5-0.2l2.5-0.8
	h1.3l0.8,0.3l0.3,1.4l1.5,1.3l1.8,0.8l1.2,0.7v1.5l0.8,1.2l0.3,0.8l-2.2,3l0.3,0.6l2.2,0.4l1.3,0.6l-0.4,2.4l0.5,0.4l1.8,0.1
	l1.6,0.9l1.2,0.5l1.3,0.1l1-0.3l1-0.1l1.7,0.1l3.6,0.6l2.2,0.1l1.7-0.3l1.2-0.7l0.2-0.6l0.5-0.5l1-0.3l1-0.1l1.3,0.1l0.8,0.5
	l-0.3,0.8v0.8l1,0.3h4.8l3.7-0.3l8-0.1l2-0.1l5.5-0.8l5.8-0.3l1-0.4l2-1.2l1.2-0.5h1l1.8,0.7l1,0.2l2.6,0.3l2.9,0.1l2-1.1l1.2-0.3
	h2.8l1-0.3l0.5-0.6l0.7-1.2v-0.6l-0.8-0.7l0.3-0.3l0.7-0.1l2,0.2l1-0.1l1-0.8l-0.1-0.6l-1-0.3l-2.5,0.3l-1.2-0.1l-0.5-0.2V86
	l1.7-1.2l0.9-1.7l-1.2-0.6l-1-0.1l-4.2,0.3l-0.6-0.3l0.5-0.4l0.4-0.6l-0.9-0.3l-1.3-0.1h-4.3l-1-0.5l-1-0.7l-2,0.1l-5.9,0.6
	l-1.5,0.4l-2.2,0.3h-2.2l-1.9,0.6l-2.2,1l-1,0.2l-1.9,0.1l-0.8,0.6l-2.5,0.3l-1.3,0.5l-1.3,0.8l1.4,0.7l0.2,0.4l-1.2,0.3l-1.8-0.1
	l-3.3-1.2l-2-0.3l-4.2,0.1l-1.9,0.6h-1.3l-0.3-0.4l0.3-0.6l-0.7-0.2l-1.2-0.2l-0.9,0.3v1.9l-0.3,0.1l-1.2-0.1l-0.7-0.3l-0.6-1v-1.7
	l-1.2-0.8l-1.3-0.4l-1.7-0.2l-4-0.2l-2.5,0.3l-1.2-0.1l-0.7-0.3l1.4-0.8l1.8-0.2l0.5-1.3l1.2-0.3h2.8l0.9-0.3l-0.3-0.4l-1.6-0.5
	l-4.6-1l-0.3-1.2l-1.7-0.6l-2.8-0.7h-2.7l-2,0.6l-1.3,0.6l-1.5,0.2l-1.2-0.1l-1.3-0.6l-2.5-2l-0.8-0.3l-1.2-0.1h-2l-2.2-0.8
	l-6.6-0.8L515.6,71.2z M550.3,72.7l-1,0.1l-0.5,0.5v1.4l0.8,0.7l0.3,1.1l0.8,0.3l1-0.1l0.5-0.2l-0.1-1.2l-1-2.3L550.3,72.7z
	 M491.6,73.1l-2.3,0.5l-2,0.7l-1.2,0.8l0.1,0.3l1.2,0.2l1.2-0.1l1.7-0.5l1.2-0.6l1.3-0.3l0.3-0.2l-0.1-0.3L491.6,73.1z M469.7,74
	l-1.2,0.1l-0.9,0.3l-0.3,0.4l1.5,0.8l0.3,1l0.7,0.3l3.8,0.1l0.7-0.2l0.9-0.6l-0.1-0.8l-0.8-0.3L473,75l-0.5-0.2l-0.5-0.4l-0.7-0.3
	L469.7,74z M502.5,75.1l-1,0.4l-1.5,1.1l-1,0.4l-1.3-0.1l-1-0.4l-0.8-1l-1-0.3h-1.6l-2.3,0.5l-1.5,0.6V77l2,0.6l0.8,0.6l-0.2,1.2
	l1.5,1.2l0.8,0.9l0.1,0.7l-0.5,0.2l-1-0.1l-1.8-0.9l-1-0.6l-0.8-1.2l-2.1-1.7l-0.8-0.6l-2.5-0.3l-0.9,0.3l-0.9,0.9l1,0.5l0.1,0.7
	l-0.5,0.7l0.1,0.7l1.6,1.5l1.5,0.8l0.1,0.3l-0.8,0.3l-1.2-0.1l-1.7-0.8l-1.2-0.1l-2.2,1.2l-1,0.1l-1.7,0.4l-0.7,0.4l-0.2,0.9
	l1.3,0.1l3.3-0.6l5.8-0.1l2.3-0.1l2.5-0.6h2.5l1.3,0.4l0.1,0.6L493,86l-1.4,0.8l-2.3,0.9l-1.2,0.6l-0.3,0.6l1,0.6l0.1,0.3l-1,0.6
	l0.7,0.8l1.1,0.8l1.2,0.5l3.5-0.6l5.7,0.3l3.7-1l1-0.4l0.7-0.4l0.1-0.5l-0.3-1.2l0.4-0.5l1.2-0.5l1-0.6l-0.1-0.8l-1.3-1.7l0.2-1.5
	l0.7-0.9l0.4-1l0.3-0.9l-0.1-0.8l-1.3-0.7l-0.1-1l-2-1.1l-1.2-0.2l-0.3-0.8L502.5,75.1z M470.8,77.8l-2.7,0.3l0.3,0.6l1,1l0.8,0.1
	l2.2-0.4h2l2-0.2l1.2-0.5l-0.1-0.6l-0.9-0.1l-1.5,0.2l-1.5-0.2l-1.3,0.1L470.8,77.8z M335.2,80.1l-1,0.4l-0.4,1.5l-1.7,1.2l-0.3,0.8
	l0.3,1.2l-0.4,1.1l-1.3,0.9l-2.2,1l-4.2,1.2l-3.2,1.5l-1,0.8l-1.9,0.8l-2,0.4l-5.2,2.8l-2,0.6l-1.3,0.7l-4.5,1.5l-0.9,0.8l0.5,0.6
	l4.6,3.2l2.9,2.9l0.7,0.8l-0.4,1.2l-1,0.7l-1,1l-0.2,0.4l0.3,0.6l0.6,0.6h5.5l2.8-0.3l1.7-0.3l1.3-0.5l1-0.2l1.8,0.4v0.5l0.7,0.3
	l1.3-0.1h4.3l1.8-0.1l0.7-0.1l5.6-4.3l1.3-0.6l1.5-0.4l3.2-0.2l2.5-0.5l1.2-0.3l1-0.5l1.2-1.2l1.8-0.6l6-1l6.2-0.9l6.7-1.4l2.6-0.3
	l3.2-0.1l1.2,0.1l1.3-0.1l1.5-0.6l1.7-0.1l1.2-0.5l-0.1-1.2l-0.8-1.6l-0.3-1l-2.3-1.5l-0.1-0.9l-2.8-1.9l-3.2-0.9l-2.8-0.3l-3.8,0.1
	l-2.1-0.7l-1.9-0.3l-1.8-0.6l-2.3-0.9l-1-1l-1.6-2.7l-1-0.6l-1.5-0.2l-4,0.3l-2.2-0.1l-2.5-0.3l-2.6-0.1l-3.5-0.6L335.2,80.1z
	 M478.7,81l-1.5,0.1l-2.8,0.4l-1.4,1.1v0.2h4.2l1.3-0.8l1.3-0.4l-0.1-0.3L478.7,81z M524.1,82.3l-0.7,0.1l-0.3,0.4l0.5,0.6l1.4,0.6
	l1.2,0.1l0.8-0.3l-0.3-0.8l-1.3-0.6L524.1,82.3z M523.1,85.4l-2.3,0.6l-1.7,0.6l-0.4,0.4l-1.2,1.2l-1.7,1.2l-3,1.1l-0.2,0.9l0.5,0.4
	l3,0.9l1.8,0.8l1.5,0.3l1.5,0.6l1,0.6l1.6,0.7h2.3l1.7-0.1l0.8-0.1l3-0.1l0.5-0.4l0.4-1.5l-0.6-4.3l-1-0.9l-2.5-1.4l-3-1.2
	L523.1,85.4z M463.9,85.6l-0.7,0.3l-0.4,0.8l-0.7,0.8l-0.9,0.3l-0.5,0.6L461,89l1.2,0.5l1.5,0.3h2.7l0.7-0.3l0.5-0.6l-0.5-1.5l0.2-1
	l-0.6-0.7l-1.5-0.3H463.9z M513.7,85.6l-1.3,0.1l-1.9,1v1.1l1.2,0.1l1.8-0.8l3.5-0.8l-0.1-0.3l-1.5-0.1l-0.6-0.2L513.7,85.6z
	 M168.5,90.4l-26.8,12.4L78.4,132l-58.5,27l3.2,2.3l2.2-0.3l2,2.3l4.6-0.1l5.9,1.7l-4.2,1.3l-0.3,1.4v0.1v0.9l0.9,0.8l-1,1.1
	l1.2,5.2l0.4,1.7l-2.2,2.6l-1.3,0.7l-0.1,0.3l1.5,0.1l0.8-0.3h2.7h1.9l1.3,0.1h1.2l2.1,0.5l0.9,0.1l1.1-0.1l1.5-0.3l1.4-0.4l1-0.6
	l1-0.3l1.7,0.3l0.9-0.1l0.6-0.3l0.1-0.6l0.7-0.1l2.9,0.6l2.2,0.2l1.2-0.1l3.6,0.3l0.4,0.5l0.5,0.7l0.4,2l-0.3,0.3l-1.6,0.1l-0.1,0.6
	l-0.4,0.4l0.1,0.8l0.7,0.5v0.5l-0.2,0.7l0.3,0.2l0.7,0.7v0.8l-1.3,0.3l0.4,2.5l1.3,1.6l0.5,2.1l0.4,0.8l0.4,0.5l-0.1,0.3l-0.8,0.2
	l-0.7,0.3l0.3,0.8l-1.3,3l-0.1,3l-1,3l-0.2,2.8l-3.1,0.9l0.2,0.4l1.6,0.9l0.3,0.3l-2.5,1l-0.1,0.6l1.3,0.8l-0.4,0.3l-0.4,0.5
	l-0.8,0.3v0.6l1.7,0.6l1.2,0.3l1.8,2.1l2,1.2l1.1,0.6l1.1,0.3l0.3,1.3l1.4,0.4l0.4,0.3l-0.9,0.3l-0.1,0.4l0.7,0.6l0.8,0.2l1.9,0.3
	l0.3,0.6l-0.3,0.6l-0.6,0.6l-0.2,0.2l-0.2,0.1l-0.5,0.1l-0.7,0.1l-1,0.2l-0.9,0.2l-0.6,0.1l-0.4,0.1l-0.4,0.3l-0.3,0.2l-0.2,0.2
	l-0.3,0.2l-0.4,0.2l-0.4,0.2l-0.1,0.3l-0.3,0.3l-0.3,0.2l-0.2,0.3l-0.2,0.3l-0.1,0.2l-0.2,0.2l-0.3,0.3l-0.2,0.2l-0.1,0.2l-0.1,0.3
	l-0.1,0.2l-0.1,0.1l-0.3,0.1h-0.4l-0.6,0.1l-0.6,0.1l0,0l-0.4,0.1l-4,1.2l0.7,0.1l1.6,0.6l0.1,0.7l-0.7,0.2h-2.5l-2.9,0.9l-3.8,0.3
	l-4.7,2v0.6l1,0.9l0.5,0.8v0.7l-1.9,1.1l0.1,1l0.6,0.9l0.3,1.2v1.5l1.1,2.3l0.1,0.1l0.9,0.1l0.7-0.8l2.5-0.9l2-0.3l7.3-0.1l0.7,0.1
	l0.1,0.5l-1.5,0.8l-1.9,0.4l-1,0.6l-1.2,1l-1.8-0.1l-0.8,0.1l-1.4,1l-0.2,0.6l0.6,1.2l0.3,1.1l0.8,0.8l0.1,0.6l-1.2,1l-0.3,1
	l0.5,0.6l1.2,0.3l0.6,0.5l-2,1.1l-1.2,0.5l-1.3,0.3l-0.7,0.4v1l1.3,0.8l0.6,1.1l0.6,0.4l1.2,0.1l1.5-0.4l3.5-0.1l3.5-0.5H61l0.3,0.4
	l-0.7,0.8l-0.2,1l-1.9,0.7l-2.2,0.3l-2.2,0.1l-2.3,0.5l-4.6,0.3l-3.3,0.6l-0.5,0.4l-0.2,1l-0.5,0.5l0.1,0.3l1.2,0.3h1.3l0.3,0.3
	l-0.2,0.4l-1.7,0.7l-1.5,0.1l-0.2,0.5l-1.5,1l-1.5,0.6l-0.5,0.6l2.3,3l1,1l1.2,0.6l1.2,0.1l1.7-0.8l1,0.2l1.3,0.8l5.1,1.9l0.8,0.8
	l0.1,0.4l-2.4,1.5v0.9l1,0.4l1.5,0.2l2,0.6l2.3,1.2l2.5,0.1l2,0.3l2.5,1v0.4l0.3,0.5l1.8,0.6l1.5,0.8v0.9l-1.3,0.6l-1.9,0.5
	l-0.2,0.8L67,297l1.4,1.7l0.5,0.4l1.2,0.1l2-0.3h1.7l1.3,0.8l0.3,0.8l-3.4,1.2l0.1,0.7l2.5,1.5l0.5,0.4l1.2,0.1l1.5-0.2l1.3-0.4
	l1.3-0.1l0.7,0.2l0.1,0.5l-0.9,1.4l-0.2,0.9l0.7,0.9l1.8,0.8l-0.7,0.6h-2.8l-0.9,0.3v0.4l2.5,0.5l0.4-0.1l1.1,0.3l13.6,1.6l14.9,2.7
	l15,2.6l15.1,2.5l15.2,2.4l15.2,2.3l15.3,2.2l15.4,2.1l8.9,1.2l4.7,0.6l1.6,0.3l0.6,0.1l6.9,0.8l8.1,1l15.7,1.8l15.7,1.7l15.8,1.6
	l0.6,0.1l15.3,1.5l15.9,1.4l15.9,1.3l16,1.2l16,1.1l16.1,1l16.1,0.9l16.1,0.8l10.9,0.5h0.2h0.6l5.2,0.2l16.2,0.6l16.2,0.5l16.2,0.3
	l16.2,0.3l16.2,0.1l14.1,0.1l0.2-4.2h1l0.7,0.1h0.7l1,0.1l1.1,0.2l0.6,0.2l0.1,0.2l-0.2,0.8l0,0l1.3,2.7l0.1,0.6l0.8,1.2l0.7,0.3
	l2,0.7l3.7,0.1l1.7,0.2h2.5l2.3,0.3l1.8,0.6h3.2l3.5-0.9l3.4-0.2h2.2l1.6,0.1l4.2,0.9l1,0.1l0.9,0.8l1.7,0.3l1,0.5l0.1,0.6l0.7,0.6
	l1.3,0.1l1.5-0.7l1.4-0.4h1.6l0.6,0.3l0.4,0.5l1,0.3l1,0.3h0.6l0.8-0.1h0.6l0.1,0.1l0.2,0.2l0.1,0.2l0.2,0.1l0.4,0.1l0.7,0.1
	l0.1,0.1l0.4,0.1l1.2,0.1h0.7h0.5h0.7h0.3h1.1l0.9-0.1l0.7-0.1l0.8-0.3l0.7-0.4l0.7-0.3l1.1-0.3l0.7-0.2l0.6-0.1l0.6-0.1l0.7-0.1
	l0.9-0.1l0.4,0.3v0.2l0.7,0.2l2.4,0.6h1.1l1,0.2l0.6-0.1h1.9l2-0.1h2.4h0.9l0.2,0.1h0.2l0.2,0.1l0.2,0.1l0,0l0.1,0.1l0.2,0.1
	l1.1,0.3l0.4,0.1h0.7l0.7-0.1l1.2-0.1l0.9-0.1l0.9,0.1l0.2,0.1h0.2l0.3-0.1l0.4-0.1l0.2-0.1l1-0.1h0.1l1-0.5l2-2.8l1.8-0.8l2.1-0.4
	l1.6,0.9l1-0.1l1.3-0.8l0.5-0.6l1-2.1l1-0.6l1-0.1l1.2,0.5l-0.4,1l-0.9,0.8v0.6l0.7,0.1l0.8-0.3l0.9-0.7l2.1-2l-0.1-0.8l-1.2-1
	l0.2-0.6l2,0.1l3.9,0.3l5.2,0.9l3,0.3l4.1-0.1l4.6-0.4h3.8l2.1,0.2l3.5,0.8l0.9,0.6l-0.1,0.7l0.4,1l3.1,1.6l4.9,2l1.8,0.6l4.3,0.1
	l4.5-0.3l3.2-0.5l1.6-0.1l1.1,0.5v1.5l0.1,0.7l1,0.6l5,1.6l1.4,0.7l-0.1,1.5l-1.5,1.3v0.6l1.2,0.3l3.7,0.3l0.8,0.3l-0.1,1.8
	l-0.7,1.1l0.3,0.5l1.8,0.1l2-0.2l2.3,0.1l4.1,1.2l3.3,0.5l5.7,0.1l2.3-0.6l1.5,0.1l3.6,0.1h9.9l3-0.3h3.3l2.3-0.1h1.5l2.3-0.1l2,0.3
	l1.2,0.3l1.7,0.1l1.6-0.2l3.5-0.1l3-0.4l2.5-0.9l0.9-0.1l0.7,0.2l1.4,1l2.3,0.6l1.5,0.8l3.3,1.4l1.3,0.3l1.6,0.9l2.6,0.3l1,0.2
	l1.4,1.1l6.4,2.7l1.5,1v0.5l-0.8,0.1l-1.3-0.1l-1.2-0.2l-0.7,0.1l-0.4,0.4l0.3,0.7l1.4,1.5l-0.5,0.6l-0.8,0.3l-1.6,0.1H784h-1.3
	l-2-0.3l-2.5-0.7l-1.5-0.2l-2.5,0.4l-4.1-0.6l-0.9-0.4v-0.7l-0.6-0.3l-2.7-0.1l-2.2-0.9l-0.9-0.3l-0.8-0.9l-0.4-0.1l-2.8-0.1l-1,0.1
	l-1,0.3v0.5l5.3,1.7l2.3,1l1.5,1.2l0.1,1.3l-0.7,1.1l-2,1.7l-1.5,1.4l-0.2,1.4l0.8,2.1l0.8,1.4l0.6,2.2l0.1,2.3l-0.9,0.8l-3.2,1.2
	l-2,1.3l-1.8,0.6v0.3l-0.7,0.8l-0.3,0.8l-0.9,2.1l1,0.1l0.7,0.5l-0.5,0.6l-0.1,0.6l0.5,0.2l0.1,0.8l-1,0.6l-2,0.4l-2.9,0.3h-1
	l-2.9,0.8l-0.7,0.7l0.6,1.3l1.2,0.1l1.8,0.5h3.8l2-0.4l1.3-0.1l1.2,0.2h1.2l0.7-0.6l0.6-0.8l3.3-0.8l3.4-1.7l2.6-0.4l3.6-2.6l3-1.5
	l1.8-0.4l3-0.2l1.3-0.3l1.5-0.2h11.6l2.9-0.3l0.6-0.3l-0.1-0.3l-3.9-0.1l-0.8-0.3v-0.4l1-0.6l2-0.5l2.9-0.2l6.7-1.4l2-0.3l5.3-0.8
	l3.4-0.1l2.2-0.3l-0.3-1l-1.2-0.3l-1.3-0.3l-0.8-0.6l-0.1-1l-1.6-0.8l-6.1,1.7L803,394l-2.1-0.4l-1.2-0.5l0.1-0.4l1.7-0.9l1-0.7
	l1.1-0.8l1.2-0.6l1.9-1.1l1.1-0.5l4.1-1.7l3.2-0.8l7-1.2l1-0.1l1.2-0.2l2.1-0.3l5.9-1.5l0.7-0.1l1.2,0.1l1.5,0.3l2.8,0.1l2.5-0.5
	l2,0.2l1.8-0.6l1.4-0.9l-0.3-0.5l-0.5-0.3l-4.2-0.1l0.5-0.6l0.7-0.3l3.7-0.2l0.9-0.3l0.8-0.8l4.2-0.9l1.9-0.7l3.2-0.6l3.5-1.5
	l1.7-0.7l0.4-0.6l0.9-1l2.9-1.4l3.1-2.8l1.9-0.9l0.8-0.3h0.1l0.5-0.1l16.9-2.3l16.8-2.4l16.7-2.5l7.2-1.2l0.1-0.1l0.2-0.3l0.2-0.8
	l0.4-0.3l-0.1-0.6l-0.4-0.2l-0.3-0.1l0.4-0.3l0.4-0.3l0.1-0.4l0.4-0.1l1.7,0.1h0.8l1-0.8l0.6-0.6l0.7-0.1l0,0h0.6h0.1l0.6,0.3
	l0.4,0.5l0.7,0.1h0.4l0.4-0.3l0.2-0.3v-0.1l-0.1-0.1l-0.1-0.4l-0.5-0.3l-0.6-0.5l0.1-0.2l0.4-0.1h0.8l0.9,0.1l0.6-0.1l0.2-0.1
	l-0.1-0.2l-0.6-0.2l-1.4-0.5l-0.3-0.2l0.1-0.3l0.4-0.4l0.8-0.6l1.2-0.5l0.9-0.3l0.1-0.3v-0.1l-0.2-0.3l-0.7-0.3l0.4-0.5l0.5-0.6
	l0.4-0.6l0.1-0.3l-0.5-0.1h-0.7l-0.7-1.2l-0.4-0.1l-0.4-0.1l-0.3-0.3l-0.1-0.3l-0.1-0.1l-0.4-1l0.4-0.8l1.3-0.8l-1.1-2l-0.6-1.1
	l0.1-0.2l0.7-1.6l0.6-1.1l2.5-4.6l0.6-1.4h0.7l1.4-0.1h0.4l0.4,0.1l0.4,0.3l0.1,0.1l0.4,0.4l0.1,0.1l0.4,0.3l0.4,0.1l0.7,0.1
	l2.4,0.3l0.3-0.3l1.9-0.8l0.5-0.3l4.9-1.4l2.3-0.4h2.2l5.5,1.2l2,0.6l1.1,0.7l1.3,1.2l5,4.8l3.5,3l0.1,0.1l0.3,0.1l0.2,0.1l-0.2,0.2
	v0.1l0.2,0.1l0.5,0.1l0.2,0.1l0.1,0.2l0.1,0.2v0.2l0.1,0.2l0.3,0.2l0.3,0.2l0.4,0.1h0.3l0.4-0.2l0.3-0.1h0.6l0.3,0.1l0.4,0.1
	l0.5,0.1l0.7,0.1l0.9-0.1l0.6-0.1l0.7-0.1h0.5h0.4l0.4,0.1l0.1,0.1l0.2,0.2l0.1,0.3l-0.3,0.3v0.2l0.4,0.2l1.1,0.3l0.3,0.1l0.3,0.2
	l0.1,0.3l-0.1,0.2l0.1,0.3l0.2,0.1l0.4,0.1l0.1,0.1l1.2,0.3l0.9,0.2l0.6,0.1l0.8-0.1l0.3-0.1v-0.1l-0.3-0.2v-0.2l0.2-0.1h0.4
	l0.8,0.1l0.4-0.1h0.3l0.3,0.1l0.7,0.3l0.6,0.2l0.1,0.1l-0.1-0.5l0.9-0.4l1.5-0.2l2.3,0.3h1.3l2.5-1l2.2-0.2l1.3-0.3l1.5-0.8l0.7-1
	l1-0.7h2.5l1.3-0.3l2-1l1.7-1.4l0.7-0.7l2.7-1.7l1.5-0.5l1.3-0.6l1.7-1.2l1.6-1.7l0.5-1l2.7-0.5l1.2-0.1h0.2l0.3,0.4l-1.5,1.2
	l-0.4,1l-1.9,2v1l0.8,0.2l0.7-0.1l0.9-0.7l1.9-0.8l8-1.9l2-0.2l4.7-0.8h1.8l0.8,0.3l0.2,0.3l-0.7,0.3l-3.9,0.7l-2,0.7l-1.5,1
	l-1.7,1.6l-1,0.3l-0.7-0.1l-0.8-1.3l-1-0.4l-1.3,0.1l-0.8,0.3l-1.9,1.6l-3.4,1.7l-1.2,0.8l-2.7,2.6l-2.9,1.9l-1,0.4l-0.5,0.9
	l-1.3,0.7l-1.9,1.4l-0.5,0.7l0.5,0.3l2.2-0.3l0.7,0.3v0.7l-0.9,0.8v0.9l0.6,0.9l2,0.8l1.5,1l2.3,0.8h1.7l0.3-0.1l1-0.1l1.7,0.1
	l2.8,0.4l1.8,1.2l0.8,0.1l2.2-1l1.2-0.3l1.2-0.6l0.4-1.3l1-0.8l1.7-0.3l1.5-1.7l2.3-3.1l1.2-1.9l0.9-1l-0.1-0.8l-1.8-0.8l-0.3-0.6
	v-0.3l1.7-0.6l0.7-0.8l1-0.1l4.2,0.3l1.8-0.4l1.3-0.6l0.1-1.7l5.7-2.4l2.5-0.6l2.2-1l1.7-1.2l4.4-2.3l5.2-3l2-0.6l1.9-0.9l1.3-1
	l1.4-0.4l1.6-0.2l1-0.6l-0.1-0.6l-1-0.2l-3.7,0.7l-2.5,0.2l-1.3-0.3l0.5-0.7l-0.5-0.3l-3.5-0.6h-1.3l-2,0.6l-1.5,0.6l-0.8-0.1
	l-2.3-1h-1.5l-0.7,0.4l-0.5,0.8l-2.9,1.1l-0.5,0.6l-0.9,0.3l-3.2,0.4l-2.7-0.1l-2.3,0.1l-2.5,0.5l-1.9,1.1l-2.2-0.1l-2-0.4l-2,0.3
	l-1.8,0.5l-2-0.1l-2.6-0.2l-0.1-0.1l-0.4-0.2l0.4-0.3l1.2-0.5l-0.3-0.3h-2.7l-3,0.4h-2.3l-1.2-0.3l-2.5,0.1l-2.5,0.5l-1.3-0.1
	l-2.2-0.9l-0.8-0.6l-2-0.8l-1.3-0.3l-0.1-0.2l-1-0.1l-2.5,0.1l-1.3-0.4l-0.5-0.8l-0.1-1.2l-1-0.2h-3.3l-2.2,0.7l-1-0.1l-0.5-0.5
	l1.7-1.7l-0.3-1.5l-0.5-0.5v-0.5l0.3-0.8l-0.3-1l-1.3-1.2l-1.3-0.6l-1.9,0.3l-1.7,0.6l-2.2,0.6l-1,0.6l-0.7,0.9l-1,0.8l-1.3,0.3
	l-1.7-0.2l-3.1-1.2l-2-0.1l-4.9,0.5l-4.3,0.3l-0.6-0.3l-0.4-0.1l0.5-0.4l2-0.7l2.5-0.7l2.3-0.9l1.8-0.1l1.7,0.3l1.1,0.1l3.5-0.2
	l1.7-0.3l2.2-1.2l1.8-1.7l0.5-0.8l0.9-0.8l3.2-1.7l0.5-1l-0.1-1.2l-0.4-1.1v-0.8l-1.3-0.6l-3-0.6l-2.9-0.3l-8.3-0.3l-9.2,0.9l-3,0.6
	l-3.4,1.4l-3,0.9l-6.1,2.3l-8.9,3.6l-5.1,3l-2.7,1.3l-3.7,2.6l-1,0.3l-4.1,2.6l-1.5,1.2l-3.6,4.1l-1.3,3l-2.4,3.7l-2.6,3.5l-1.2,0.8
	l-1.7,0.9l-2.3,0.8l-4.9,2.6l-1.3,1.2l-2.1,0.8l-2.6,0.1l-2,0.6l-2.2,1.1l-4,1.7l-6.1,4.2l0,0l-3.1,2.1l-0.5,0.3l0.1,0.3l-1.2,0.3
	l-0.3,0.4l-0.6,1.5v1.3l-0.3,0.9l-0.1,0.3v0.8l-0.7,0.8l-2.6,1l-0.7,0.3l-2,0.6l-3.2,0.6l1.8-1.1l2.2-0.6l1.4-0.4l0.9-0.5l0.7-0.8
	l-0.2-0.9l-0.4-1.4l0.5-0.2l0.1-0.1l0.3-1l1.2-1.9l2-1.6l1.4-1.2l0,0l0,0l3.2-1.7l11.2-5.7l3.7-0.9l1.7-0.8l2.1-1.2l1.3-1.2l1.4-0.9
	l2.9-1.2l1-1.1l0.1-1.1l0.9-1.6l2.1-1.1l0.9-1.1l0.7-1.8l1-3.3l0.4-0.9l1.9-4.6l0.7-0.8l1.5-2.4l0.9-1l1.2-1l2.3-2.3l2.6-1.4
	l0.1-0.4l1.6-1.2l2-0.8l4.8-0.8l1.6-0.7l0.4-1.4l-0.4-1l0.2-2.3l1.6-4l2.2-1.6l3-1l2-0.6l2.3-1.2l5.5-1.3l7.5-1.4l8.7-1.7l3.5-0.9
	l6.7-1.4l2.5-0.3l2.1-0.2l8.3-2l3.9-0.7l3.8-0.9l3.5-0.7l2.1-0.3l1.7,0.1l1.3-0.1l5.4-1.9l4.4-1.2l4.3-0.9l4.2-1.3l3.5-1.2l0.9-0.7
	l-0.3-1.2v-0.6l2.5-1.7l0.2-0.9l0.7-1.7l1.2-1.4v0.3l-1.1-0.6l-0.5-0.3l0.4-0.6l1.8-1l0.1-1.6l0.5-0.6l3-1.1l1.3-0.2l1.3-0.7
	l0.7-1.1l1-1.2l2.5-1.1l2.7-0.3l1.9-0.3l0.6-0.1l-0.6-0.4l0.6,0.4l3.2-0.9l0.7-0.4l0.2-1l3.9-4l0.7-1.1l-0.4-3.1l-1.8-0.9l-2.2-0.8
	v-0.7l1.2-0.6l-0.8-0.3l-1.5,0.1l-2,0.4l-2.3-0.1l-1.3-0.9l-1.5-0.6v-1l-3-1.2l-1.1-1.1l-2.2-0.8l-2-0.4l-3-0.3l-2-0.3l-2.8-0.3
	l-2.2,0.2l-3.3-0.1l-2.3,0.8l-0.9,0.8l-0.2,2.1l-1,0.4l-2.8-0.6V238l0.9-0.7l-0.1-0.5l-0.9-0.3l-3-0.8l-2.3-0.8l-2.2-0.2l-5.7,0.9
	l-3.2,1l-1.4,0.8l0.5,0.3l1,0.1l0.5,0.4l-0.1,0.4l-1.7,1l-0.9,0.7l-2,1l-0.7,0.7l-0.5,1.2l-0.2,1.5l-1.2,0.5l-1.3,0.3l-0.4,1.2
	l-0.5,0.6l-1.9,0.9l-1,1.5l-1.5,1l-1.2,0.6l-0.7-0.7l0.4-1.2l-1-0.5l-0.8-1.7l1-1.2l1.7-1.4l4.5-2.2l3.2-1.9v-1l-0.9-0.4v-0.6
	l3.5-2.1l6.9-3.3l-0.4-1.5l-1-0.4h-1.8l-1.7,0.3l-2.8-0.1l-1.6-0.8l-1.7-0.1l-1.5,0.3l-1,0.6l-0.9,1.2l-1.3,0.7l-1.3,0.3l-2.2-0.1
	l-2.8-0.5l-1.8-0.1l-2.3-0.5l-1.6,0.1l-1,0.4l-0.8,0.6l-1,0.2l-1.5-0.2l-1.9,0.4l-1.8-0.8h-1.2l-1.3,0.3l-1.2,0.8l-1,0.5l-4.2,0.8
	l-1-0.3v-1.5L976,233l-2.3-1.2l-0.5-0.6v-0.5l-0.8-0.2l-2.7,0.6l-1.3,0.4l-1.3,0.1h-1.7l-1,0.3l-2.8-0.4l-1.5,0.1l-1.9,0.4l-0.7-0.1
	l-0.5-0.4v-0.7l-1.5-0.3l-1-0.4h-1.7l-1.3,0.6H950l-3-0.7h-1.9l-1.7,0.3l-0.6-0.3l0.2-0.5l2.3-1.1l0.3-0.4l-1.6-1.2l-1.1-0.6v-1.2
	l0.6-2l-0.5-0.6l-1.6-0.3h-1.2l-2.3,0.4l-1.8-0.1l-1.2-0.6l-0.6-0.6l-1.2-0.2l-2,0.1l-1.8-0.2l-0.5-0.2v-0.6l1.9-0.9l-0.2-0.5
	l-1-0.3l-1.3-0.7l-1-1.1h-2l-3.7,1.1l-0.7-0.1l-0.3-0.3l-0.1-1l-1-0.4l-1.6-0.3l-1.8-0.1l-0.7-0.3l-0.3-0.7l-1.3-0.9l-1.2-0.1
	l-2.7,1l-4.2,0.7l-1.2-0.5l0.7-0.6l1.7-0.8l-0.3-0.8l-0.7-0.6l-0.7-0.3l-1.3-0.1l-1.7,0.1l-2.3-1.3l-2.6-0.5l-2-1.1l-1.3,0.1
	l-1.2,0.3l-0.8-0.1l-1.3-1l-4.2-0.5l-3.5-0.8l-1.8-0.6l-1.6-0.9l-1.3-0.9l-2.7-0.4l-2.3-1.7l-0.8-0.3l-0.9,0.1l-1.7,0.2l-0.4,0.1
	l-0.9,0.6l-0.2,1.1l0.5,0.9v1l-0.4,1.2l-0.4,0.6v1l0.4,0.7l0.7,0.4l1.3,1.7l-0.1,2.3l-0.2,0.8l1.9,0.8l0.1,1l-0.7,1.2l0.7,1.1
	l-1.9,0.8l-2.2-0.3l-0.8,0.3l-0.2,2.6l-1.4,1l-1.9,0.9l-2.2,1.9l-1.3,1.2l-0.9,0.1l-0.7-0.1l-2-1.1l-2.8-0.6l-3.4-0.2l-1.5-0.1
	l-1.5-0.7l-3.7-0.8l-0.9-0.8l-2,0.1l-5.1,1.2l-2.5,0.8l-0.6,0.8l-0.4,1.1l-1,0.2h-1.4l-1.9-1l-0.8-0.9l0.5-0.4l0.3-0.1l1.7,0.5
	l0.6-0.1l0.5-0.6L830,224l0.5-0.4l1-0.2l1-0.3v-0.4l-1.5-0.4l-0.5-1l-1.4-0.5h-1.3l-0.7,0.5l-0.5,0.2l-1-0.2l-1.6-1.4l0.5-0.7
	l-0.3-0.4l-1.3-0.7l-0.5-0.3l-0.6-1l-0.7-0.3l-2-0.3l-1-0.3v-0.5l1.6-0.6l-0.7-0.6l-1.6-0.8l-2.6-1.1l-0.8-0.7l-0.3-1.1l-1.2-0.8
	l1.2-1.2l0.1-1l-1.3-1l-1-0.3l-1.1,0.1l-0.6,0.4l0.3,0.4l1,0.3l0.9,0.5l0.1,0.4l-0.5,0.1l-4.3-0.1l-1.1-0.4l-1.2-0.8l-0.8-0.1
	l-3.7,0.8l-1.2,0.6h-1.7l-2-0.1h-5.1l-2.3,0.2l-2.2-0.5l-0.7-0.3l-0.6-1l-1-0.5l0.2-0.9l0.5-0.5l-0.7-0.6l-0.6-0.1l-2.5,0.3
	l-2.8-0.5l-1.7-0.4l-3-0.3l-2.3-0.1l-2-0.7l-0.7-0.6l-1.4-0.4l-5.8-0.6l-4.1-0.6l-1.6-0.4l-1.6,0.3l-0.8,0.3l-2,1.2l-2.1,0.9
	l-2.1,0.4l-2.5,1.4l-1-0.1l-2-0.3h-1.4l-4.3,0.8l-1-0.1l-0.9-0.3H730l-7.1-0.3l-7.4,0.1l-1.2,0.5l-1,0.6l-2.5,0.7l-1.4,1.1v1.2
	l1.3,1.2l1.7,1.2l1.9,1.1l2.6,1.2l1.5,0.9l0.5,0.6l-0.4,0.9l1.6,2.3l-0.1,1.3l-1.7,1.5v0.7l0.4,0.3l1.3,0.4l1.7-0.3l1,0.3l0.4,1.4
	l1.4,0.4l0.7,0.4l0.7,1.7l2,1.6l0.7,0.3l1,0.1l1.4,0.4l1.2,1.5l-0.4,0.4l-1,0.3l-0.6,0.3l-0.7,0.8l-0.1,1.7l-0.7,0.8v0.4l1,0.6
	l0.1,0.3l-1.3,1.2l-0.2,1.3l-0.7,0.7l-2.8,1.2l-0.3,0.4l1.6,1l0.3,0.8l0.7,0.8l1.4,0.7l2.8,0.9l5.9,0.5l1.5,0.2l5.1,1.4l4.4,1.3
	l7.5,3.2l5.3,3.2l1.9,1.7l1.5,1.8l0.4,1.2l0.4,1.4l0.4,0.7l0.4,2.1l-0.1,0.6l-0.4,1.6l-1.2,1.2l-0.9,3.1l-3.6,2.6l-2,1.2l-4.9,3.9
	l-3.2,1.3l-2.3,0.8l-2.9,1.7l-6.9,1.4l-2.8,0.2l-0.7,0.3v0.3l1,0.4l2.5,0.3l1.5,0.6l2.1,1.4l0.7,0.6l1.4,0.6l2.7,0.1l1.3,0.6l1,1.8
	l1,1.7l1.4,1.4l0.3,1.2l2.3,1.2l2.1,1.5l1,1.2l1.9,0.8l1.3,1.1v0.9l1.9,1.8l2.5,0.3l1.8,1.2l0.1,1.4l-0.4,0.7l-1.2,1.2l-0.7,2.6
	l0.4,0.7l1.4,0.7l1.6,0.3l0.1,0.5l0.4,1.5l-0.4,0.5l-1.7,0.6l-0.7-0.1l-0.3-0.1l-1.3-1.6l-0.8-0.3h-3l-1.4-0.8l-1.2,0.1l-0.9,1.4
	v0.1l-0.5,1.9l-0.1,1l-0.8,0.6l-0.9,0.3h-3.3l-2.6-0.3l-3.8-0.8l-1-0.3l-0.9-0.6l-0.8-0.6l-2.6-1.2L734,311l-1.7-0.6l-3.7-0.5
	l-1.8-0.6l-1.5-1l-1.7-0.9l-2.5-1.2l-5.6-1.9l-3.2-1.2l-2-0.6l-1.5-0.1l-0.5-0.3l0.2-1.1l0.1-2.5l-0.5-0.8l-1.3-1.1l-1.6-2.8
	l-0.9-0.7l-0.5-0.6l-1.8-1l-1.6-2l-0.7-1.2l0.6-2.8l1-1.2l-0.4-0.8l-1.3-1.4l-0.3-1l-0.9-0.3h-1.1l-1.9,0.8h-2.8l-1.3,0.1l-1.2-0.1
	l-1.7-0.4h-3.3l-4.3,0.4l-3.5-0.3l-5.2,0.3l-3.7,0.3l-2.3,0.1L661,282l-3.2,0.3l-2.5-0.4l-4-1l-5.6-1.2l-2.9-0.3l-0.1,0.1l-1.7,0.3
	l-1.3-0.1l-4.6-1.1l-4-0.7l-2.6-0.2l-2.2,0.2h-1.2l-1.3-0.3l-1.3-0.1l-2-0.5l-0.1-0.7l-1-0.8l-5.3-2.3l-3.3-1.3l-2.3-0.7l-2.9-1
	l-3.1-0.7l-1.6-0.2h-0.7l0,0h-2.3l-2.7-0.1h-1.8l-2.8-0.3l-2-0.5l-4-1.2l-2.3-0.5l-3.5-0.2H572l-2.7,0.3l-5.2,1.1l-2.2,0.6l-1.7,0.2
	l-2-0.1l-1.8-0.6l-1.3,0.1l-1.3-0.1l1-1.8l-0.3-1.4l-3-5l-1.8-2l-2.1-1.9l-2-1.3l-0.5-1l0.4-0.7l0.7-0.7l-0.1-0.4l-1-0.2h-1.8
	l-2.2,0.6l-1-0.1l-2.2-0.7l-2.6-0.3l-4,0.6l-2.7,0.5l-0.9-0.1l-0.3-0.7l-0.1-0.8l-1.3-1.1l-2-0.6l-0.3-0.6l0.4-1.2l0.5-0.6l0.4-1.4
	l-0.6-2l-0.3-2l0.1-0.6l0.3-1.2l0.1-0.1l0.6-0.7l1.8-2.2l-0.3-1.1L526,235l1.4-0.9l2.3-1.1l1.1-1.9l2.2-2.9l1.5-1.2v-1.5l0.7-0.6
	l1.7-0.6l3.9-1.7l0.2-0.4l-0.3-0.3h-0.9l-1.3-0.3l-0.1-0.3l0.5-0.3l2.3-0.8l2.2-1l0.7-1.1l2-0.3l2.4-1.2l2-0.3l1.3-0.4v-0.4
	l-1.5-0.2l-0.1-0.4l1.2-0.4l4.3-0.1l0.5-0.3l-0.1-0.6l-0.6-0.3l-1.8-0.3l-2.2-0.1l-0.8-0.3l0.4-0.7l0.7-0.3l2-0.1l8,0.1l1.3-0.1
	l1.2-1l1.7-0.3l2.2-1l1.2-1l-0.1-0.9l-0.5-0.7l-1.4-0.8l-2-0.6l-2.3-0.4l-3.8-1.1l-2.5-0.2l-1.9,0.1l-2,0.2l-1.5-0.1l-2.1-0.8
	l-2-0.3l-2.6-0.8l-2.6-0.6l-2.7-0.3h-1.6l-1.3,0.3h-1l-0.7-0.1l0.3-0.6l1.9-0.2l1.3-0.5l1.2-0.1l2,0.3l11.4,2.2l5.7-0.1l2,0.8
	l3.3,0.3l1.5,0.5h4.5l1.3-0.7l2.7-0.6l0.9-0.6l0.6-1.9l0.9-0.8l2.3-0.6h7.7l1.8-0.3l2.3-0.9l2.7-0.5l1.9-0.8l0.7-0.7l0.9-1.5
	l0.5-1.2l1.5-0.3l1.5-0.7l0.5-1.2l0.5-0.4l1.6-2.3l-0.1-0.7l-1.3-0.8l-1.6-0.3l-3.2-0.1h-9L583,186l-3.3-1l-2-0.9l-3.3-1.2l-2.8-0.6
	l-5.9-0.8l-0.7-0.3v-0.6l1-0.2l1.2-0.1l2.5,0.3l4.2,0.1l2.5,0.2l2.5,0.6l4.3,0.8l3.3,1.4l2.5,0.6l4.3,0.3l3.6,0.1l2.5-0.2l2.5-0.7
	l0.3-0.4l2.5-1.1l2.2-1.4l0.9-1.1l0.2-1l1.8-0.8l1.5-1l-0.1-1l-1.2-0.6l-2.8-0.2l-3.6-0.6l-1.2-0.5l-0.3-0.8l0.7-0.6l0.6-0.1h2.9
	l2.8,0.3l4-0.5l1.7,0.2l1.5,0.6l0.1,0.6l0.6,0.4h2.9l2.6,0.3l0.7-0.1l0.2-0.6l0.3-0.4l1-0.3l2.5,0.4l1.8,0.8h1.7l1.2-0.3l-0.1-0.5
	l-2.5-1l-1-1.1l0.5-0.4l1-0.1l1,0.1l1.6,1l1.5-0.1l3.9-1.2l1.9-0.8l2-1.2l4.1-3.5l0.8-0.5l1.5-0.1l1.2-0.5l-0.1-2.1l-0.9-2.5
	l-2.1-0.8l-2.7-0.6l-2.8-1.2l-2.3-1.3l-0.8-1l-2.5-0.9l-0.8-1.3l-0.7-0.3l-0.7-0.1h-0.7l-1-0.3l-0.3-0.4l0.9-0.7l1.2-0.1l1,0.2h2.3
	l1,0.1l0.7-0.1l0.9-0.6l1.9-2.1l0.5-1l-0.3-0.5l-0.9-0.3l-1.6-0.3l-0.5-0.6l0.5-1v-0.8l-1.2-0.4l-1.2-0.2l-4.8-0.1l-1.5-0.3l-3.1-1
	l-0.3-0.4l0.5-0.7l-0.1-0.4l-0.8-0.3l-8.3-0.1l-3.8-0.3l-3.3-0.3h-1.2l-3,0.6l-3.3-0.2l-1,0.2L602,140l1.1,2.1l0.1,2.1l0.5,1
	l1.2,0.5l2.6,0.6l2.3,0.6l0.1,0.5l-1.4,1.5l0.5,0.4l1,0.4l0.1,0.6l-0.9,0.3l-1.3-0.1l-1.3-0.3l-0.9,0.1l-0.9,0.6l-0.5,1.3l0.4,2.3
	l-0.2,2.6l-1.7,1.7l-1.4,0.8l-0.4,1.1l-0.2,3.1l-1.5,0.8h-2.8l-0.7,0.3l0.1,0.5l0.5,0.4l-0.3,0.4l-1.5,0.3l-0.8,0.4l-0.4,0.2h-1.2
	l-0.4-1.5l-2.5-1.8l-4.1-1.9l-1.9-2.1l-1.6-0.9l-0.1-0.9l-0.5-1v-1.3l0.7-0.8l0.8-0.3l0.7,0.1l0.3,1.7l1,0.5h1l0.7-0.4l0.7-1.2
	l-0.3-0.8l-1.6-1.4l-1.6-1.6l-2.6-1.2l-4.6-1.8l-1.3-0.3l-0.7-0.3L574,147l-1.3-0.1l-0.8,0.2l-1.1,1.8l-2.3,1.1l0.1,1l0.7,1.1v1.2
	l-1.9,1.2l-0.3,2.9l-1,0.6h-1.3l-0.8-0.3l-0.5-1.2l-1-0.6l-0.3-0.8l-0.3-2l-2.6-3.1l-2-1H557l-0.3-0.2v-0.8l1-0.2l1.2-0.6l0.7-0.8
	l-0.3-0.6l-0.8-0.3l-4.2,0.1l-1.8-0.6l-0.9,0.1l-1.8,0.8l-0.7,0.1l-4.5-1.3l-1.5-0.6v-0.7l2-1l1-0.7l-0.1-0.7l-2.3-1v-0.8l0.8-0.3
	h0.9l2.8,1h1.2l0.7-0.5l-0.2-0.6l-1.3-0.6L547,138l-1-0.6l-0.8-1l-1.3-0.7l-2.1-0.9l-2.3-1.5l-0.3-2l-1.6-2.8l-1.3-1.5l-3.3-1.5
	l-1.8-1.3l-1.2-0.5l-1.7,0.2l-0.7,0.2h-1.3l-1-0.4l-0.1-1.2l-0.8-0.3h-2.3l-0.8,0.3v1l-3.5,1.5l-1.2,0.3v0.3l1.2,0.3l1.3,0.1
	l0.5,0.4l-0.2,0.3l-2.3,1.6l-1.2-0.1l-0.6-0.7h-1l-0.5,0.3l-1,1l-0.7,0.9l0.5,0.8l0.1,0.8l-1.6,1.7l0.5,1l0.7,0.4l2,0.2l0.9,0.3
	l0.3,0.5l-1.9,0.8l-0.7,0.1l-1.3,0.6l-1.2,0.8l-0.3,0.6l0.3,1.1l0.8,1.2l1.8,1.5l4.1,1.7l2.3,0.7l2,0.8l1.3,0.1l1-0.1l0.7-0.4l1-0.1
	l0.8,0.4l1.3,1.4l1,0.6l1.7,0.1l1.7-0.3h2l0.6,0.3l0.1,0.8l-0.8,0.5l-0.9-0.1l-1.6-0.4l-1,0.1l-1.3,0.4l-0.2,0.3v1l-0.3,0.8
	l-2.2,1.5l-0.2,1l0.8,0.7l1.3,0.3h2.2l0.9-0.3l0.4-1.5l1-0.4h1l0.8,0.7l0.4,3.7l-1.3,0.6l-2,0.3l-1.2,0.7l-0.7,1.2l-2,1.5l-1.3,0.6
	l-1,0.1l-4.3,0.1l-1.5,0.3l-0.9,0.3l-0.1,2.5l1,1l0.6,1.9l-0.1,2.1l-0.1,0.6h-2.2l-0.4-0.9l-1-0.4h-1.5l-2.2,0.6l-0.8-0.1l-0.5-0.2
	v-0.6l0.7-0.7l-1.6-1.2l0.4-0.8l1.3-0.9l0.4-0.4l-1-1.2v-0.6l1.3-0.6l-0.1-1.5l1.7-1.1l-0.5-0.5l-1-0.1l-1.3,0.1l-1.4,0.3l-0.6-0.1
	l-1.2-0.4l-2.9-0.1l-1-0.3l-1.6-0.9l-1.8-0.7l-2.5-0.5h-0.8l-1,1.1l-1.3,0.3l-1.7-0.1l-1.6-0.2h-1.5l-0.7,0.2l-0.2,0.6l2.2,1.1v0.9
	l0.3,0.6l1.5,0.6l1.2,0.1l2.5-0.2l1.8,0.1l4.3,1.9l0.5,0.6l-0.5,0.6l-0.9,0.5l-1.5,0.2l-1.3-0.1l-0.9-0.1l-3.1-0.8l-2.2-1l-1.3-0.8
	l-1.8-0.8l-1-0.1l-0.7,0.2v0.8l0.3,0.7l-0.9,0.3l-1.5,0.2l-3.3-0.1l-2.5-0.4l-2-0.6l-3.3-0.1l-2,0.1l-6.9,0.8l-1.5-0.1l-3.5,0.2
	l-1.5-0.1l-1.2-0.2l-1.1,0.1l-0.6,0.1l-1.3-0.3l-2-0.8l-5.6-2.1l-1-0.6l-1-0.8l-0.7-0.1l-1,0.1l-2.3,0.6h-1.3l-3-0.6l-1.2-0.4
	l-0.1-1.1l-1-0.3l-3-0.6l-1.2-0.5l-1.2-0.8l0.2-0.6l0.9-0.7l-0.4-1.2l-2.1-2.3l-1.3-0.7l-1.7-0.1l-3,0.2l-3.7,0.7l-3.2,0.3l-8.5,0.4
	l-1.7,0.3l-1,0.3l-4.2,1.8l-0.2,0.4l3,1.2l3.6,0.3l1.3-0.3l0.7-0.3l-0.3-0.4l0.7-0.4l1.5-0.1l1.7,0.6l0.8,0.1l2.7-0.5l4.5-0.2l2.2-1
	l1.7-0.3h2.6l0.9,0.3l0.3,0.6l-1,0.8l-10,2.1l-2.2,0.2l-2.6,0.1l-4,0.8l-2.7,0.8l-1.8,0.8l-0.2,0.3l2.3,1.9l0.1,0.8l-0.5,0.6
	l-0.2,1.2l1.6,1.4l-0.4,1.4l0.8,1.1l0.1,0.7l-0.8,0.4l-0.7-0.1l-1.8-1h-1.2l-0.3,0.4l-0.2,0.8l-0.7,0.3H401l-1.3-0.6l-1.3-1l0.8-0.3
	l0.9-0.8l0.2-0.8l0.5-0.4l-0.1-1.7l-2.3-1.5l-0.1-1.2l-1-0.5h-2.5l-0.3-0.3l-0.1-0.7l-1.2-0.9l-2.2-0.4l-2.1-1.1l-0.6-1l-1.2-0.4
	l-1.2,0.1l-1.8,0.3l-4.2,0.5l-2.2-0.1l-3.3-0.4l-5.5,0.1l-6.8-0.6l-4.5-0.8l-5.7-0.8l-3.8-1.1l-4.3-0.8l-1.3-0.1l-1-0.1l-0.3-0.6
	l-0.5-0.6l-0.1-0.6l2.7-0.8l1.2-0.9l0.7-0.1l2,0.3l1.6,0.4l1.5-0.3l1.2,0.2h2l1.2-0.6l0.7-0.9l-0.1-1.6l-2.3-2.3l-1.8-1.2l-2.6-1.5
	l-2.3-0.5l-2.2-0.3l-3.8,0.2l-3-0.2l-6.1-1.7l-4.6-1.7l-2.5-2l-3.9-1.6l-5.9-1.9l-2-1l-1.6-1l0,0l-0.7-0.8l-4.9-2.8l-3.3-1.2l-4-0.9
	l-2.2-0.2l-1.7,0.1l-1,0.3l-0.7,0.9l-0.9,0.6l-1.5,0.8l-1.2,0.2l-2,0.1L285,126l-1.3-0.3h-2.2l-0.3-0.8l0.7-1l0.7-0.4l1.3-0.3l1-1
	l-0.1-0.8l-0.3-0.6l0.1-0.4l4.2-2.3l0.2-0.7l-1-0.2l-1,0.1l-1.8,0.6l-2,1l-2.2,0.8l-2.8,0.5l-2.2,0.8l-0.7,0.6l-1.7,0.6l-0.9,0.6
	h-1.5l-0.8-0.3l-0.8-0.8l-0.5-0.9l-0.3-1.7l0.6-2.9l0.2-2.1l-0.6-3.2l-0.8-1.1l-1-0.5l-2,0.4l-0.5,0.4l0.1,0.8l0.8,0.7v0.6l-1,0.3
	l-1.8-0.9l-3.8,0.8v0.4l0.5,0.5v0.3l-0.5,0.2l-2.2-0.2l-1.2,0.1l-1.3,0.6l-2-0.2l1.7-0.9l-0.5-0.3l-4.8-0.1l-4-0.3l-2-0.3l-2.7,0.3
	l-3.8,0.9h-1.8l-1-0.3l-0.1-0.6l-0.8-0.3l-1,0.1l-1.3,0.3l-2.3-0.1l-2.5-0.2l-1.2,0.1l-1.7,0.3l-3,0.1l-4.2,0.8l-1.5,0.5l-0.7,0.6
	l-0.7,0.1l-1.3-0.1l-2-1v-0.5l0.5-0.6l1.3-0.6h3.3l3.2-0.6l7.8-0.4l2.3-0.3h3.2l3,0.6h2.8l12-0.5l2-0.1l1.3-0.3l0.7-0.3l-0.1-0.3
	l-1.3-0.6l-1.3-0.1l-3.5,0.1l-1.2-0.5l-0.8-0.7l-0.7-0.1h-1.5l-1.5,0.5l-2.7,0.7l-1.5-0.1l-1.2-0.5l-1.7-0.1l-2.7,0.1l-5-0.1
	l-2.5-0.3h-2.5l-0.7,0.3l-0.7,0.8l-1,0.2l-5.9-0.6l-7.7,1l-3,0.3L199,110l-1,0.1h-1.7l-2.1-0.8l-1,0.1l-0.5,0.4l-0.7,0.3l-1-0.1
	l-1.5-0.6l0.5-0.3l-0.3-0.8l-1.3-1l-1.5-0.6l-3.2-1.2l-3.3-2.1l-1-1.2l0.1-2.3l-1.8-1l-0.2-0.6l0.7-1.2l-0.1-0.6l-3.6-2.3l-3.3-2.3
	L168.5,90.4z M635.5,99l-2.9,0.3l-2.8,0.7l-2,0.1l-5-0.3l-2,0.1l-0.3,0.1l-1,0.5l0.3,1.4l1.3,1.1l0.8,1.3l3.8,0.8l1.6,1.1l1,1.7
	l0.8,1l1.2,0.4l3-0.1l2.3-0.4l0.7-0.3l0.7-1.1l1.3-0.6l2-0.5l5.4-0.3h8.3l1.6-0.2l0.9-0.4l-0.1-0.6l-2-1.1l-1.8-0.7l-7.1-2.3
	l-3.1-0.8l-3.6-0.6L635.5,99z M386.8,99.8l-8.2,1.1l-3.7,0.6l-2.3-0.6l-7.8,1l-2,0.4l-2,0.6l-5.2,1.1l-1.7,0.8v1l0.3,0.7l-0.4,0.4
	l-0.7,0.2l-2,0.1l-1.9,1.1l-1.5,0.6l-2.3,0.3l-1.7,0.5l-0.9,0.6v0.8l1,0.4h2.5l1,0.1l0.1,0.6l1,0.5l0.1,0.5L347,114l0.3,0.6l3,0.6
	l2.6-0.2h1.9l4,0.7l7.6,0.1l1.2,0.3l0.1,0.3l-0.7,0.3l-3.5-0.1l-2.2,0.4L359,117l-1.3-0.1l-5.8-0.1l-3.2,0.2l-4.3,0.6l-2.5,1
	l-0.2,0.8l1,0.6l1.3,2l1.6,0.6l2,0.1l2.6,0.6l3.7,0.4l4.8,1.2l7,0.6l6.2-0.1l1.3,0.1l2,0.7l0.6,0.5l0.9,0.3l2.3,0.7l4.6,0.9l4.6,2.3
	l0.1,0.6l-1,0.6h-2.8l-2,0.1l-1.8-0.1l-5.5-1.3l-2.5-0.2l-3.2-0.8l-0.6-0.7l-12.8-1.2l-4.6-0.1h-5l-3.3,0.3l-1.7,0.5l-0.7,0.6
	l-0.2,1.2l0.6,1.2l0.8,0.9l1.3,1.4l2.8,2.6l1.6,0.6l8.3,1.7l2.8,0.5l2.3,0.6l1.8,0.6l0.3,0.8l-0.7,1.9l2.1,3l1,1l2.3,0.6l8.1,0.6
	l1.3,0.2h0.8l1.5,0.2l4.5,0.1l3,0.3l6,0.1l1.8-0.1l5.5-1l4-0.9l2.8-0.2l4.8,0.3l3.3,0.1l6.4-2.3l0.5-0.9l1-0.4l2-0.1l1.6,0.2
	l0.3,0.3l-0.5,0.4v0.8l0.8,0.5l1.6,0.3l1.7,0.1l2,0.6l1.8,0.8l1,0.1l1-0.2l1.3-0.1l0.7,0.1l0.1,0.5l-1,0.4l-2.2,0.1l-0.7,0.3
	l-0.2,0.5l0.9,0.3l1.6,0.3h3.5l2.5-0.1l2,0.2l4.8,1.2l3-0.4l2.2,0.1l1.7-0.1l1.3-0.4l3-0.2l1.7-0.6l0.7-0.7l-0.1-0.9l-1.1-1.1
	l0.1-0.3l1-0.3l-0.3-0.5l-1-0.5l-2.5-0.3h-0.7l-0.3,0.8l-1.9,0.1l-1,0.6l-0.7-0.1l-0.6-0.3l-0.3-1.5l-1.6-1V143h1.5l2.3,1.1l1.5,0.2
	l0.8-0.1l0.5-0.4v-1l0.9-0.2h2.2l0.5-0.8l1-0.4l1-0.1l0.7,0.4v0.8l0.3,1l1,0.3l1.2-0.1l0.3-0.8l0.5-0.5l1.5-0.4l1.2,0.6l0.6,1.2
	l0.7,0.1l1-0.2l0.7-0.4v-2.3l0.5-0.8l-0.5-0.6L473,139l-2,0.4l-1.3-0.1l-0.3-0.1l-0.3-0.6l-0.7-0.3l-2.2-0.2l-0.7-0.3l-0.8-1
	l-3.8-2.2h-1.7l-1.3,0.4l-1-0.1l-1-0.5l-2.1-1.8l-1.8-0.8l-0.8-0.7l-0.6-1.5l-1.6-1.1l-0.5-0.8l0.3-0.8l2.4-1.4l-0.6-2.1l-1-0.7
	l-0.7-2.5v-0.8l-0.3-0.8l-0.2-4.1l-0.3-1.6l0.4-1.5l-1.8-1.2l-2.2-1.1l-2.6-1.6l-1.5-1.2l-1-0.3l-1.3,0.1l-1.2,0.2l-1-0.3l-0.8-0.6
	l-0.8-0.3l-1-0.1l-1.2,0.5l-1.6,3.7l-0.2,1.2l-0.6,1.7l-0.2,2.6l-0.9,0.9l0.1,1.5l1,1.5l0.1,1l-1,0.8l-1.5,0.4l-0.7,0.7h-1.8
	l-1.2-0.3l-0.3-0.4l0.4-0.6l-0.1-0.9l-0.8-0.6v-0.7l0.7-0.9l-0.1-0.5l-0.8-0.6l0.6-3.2l-0.1-1l-1.5-0.6v-0.9l-4.1-3.4l-0.9-0.3
	l-0.4-0.1l-0.9-0.1h-1.8l-1.3,0.4l-0.3,0.6l0.8,0.6l1.8,0.7l1,0.1l-0.7,1.2l0.7-1.2l0.3,0.1l0.8,0.4l-0.2,0.3l-1.5,0.4l-0.2,0.1
	l-1,0.1l0.2,0.4l0.3,0.2l0.3,0.1l-0.1,0.3l-0.4,0.1l-0.6,0.1l-1.3-0.3l-0.5-0.2h-1.9l-1.3,0.4l-1.7,1h-1.9l-1.3-0.2l-1.5,0.3
	l-0.7-0.1l-0.5-0.5l0.4-0.5l1-0.3l1.7-0.1l1-0.4l0.3-0.6l-0.1-0.8l-1-0.8l-2.6-1.5l-1.3-1.2l-1-0.5l-2.2-0.6h-1.8l-1.3,0.6l-2.6,1.5
	l-1.9,0.8l-1,0.2h-4.3l-1,0.1l-0.7-0.1v-0.6l1.3-0.7l3.7-0.8l2-0.6l1.2-0.7l-0.1-1.3l-1.3-2.3l-1.2-0.7L386.8,99.8z M532.8,100.2
	l-1,0.1l-2.5,0.9l-1.5-0.1l-1.3-0.3l-1.3,0.3l-3.2,1.2l-0.4,0.4l0.5,0.5l1.2,0.5v0.7h-2.5l-2.7,0.4v0.8l1.2,0.7l-0.2,1.7l-0.6,1.6
	l0.1,2.7l-0.4,1.2l0.1,0.9l0.5,0.4l0.8,0.4l3.2,3l-0.2,1.1l-0.5,0.8v1l1,0.3l2.3,0.1l1.3,0.4h0.9l1.5-0.3l2.2-3l1.4-1.2l-0.1-0.9
	l-1.4-1.4v-0.2l0.3-0.6l2-0.4l3.5,0.2l2.2,0.6l1.5,0.1l1.2-0.3l2.2-0.9l1.9-1.2l1.7-0.8l0.7-1.9l1.4-1.7l1.9-1.2l2-1.7l0.4-1.6
	l1-0.7l-0.1-0.4l-0.7-0.2l-4.5-0.3l-6,0.1l-1.3,0.3l-1.3,0.1l-1.6-0.7l-2-0.3l-2.5-0.7L532.8,100.2z M612.4,100.6l-4,0.9h-2.5
	l-2.2-0.1l-1.2,0.3l-3.2,2.4l-2.9,0.8l-0.9,0.3l-2,0.4l-0.5,0.7l-0.2,1.2l-0.7,0.8l-1.5,1l-0.1,3.7l0.4,1.4l1,0.8l1.5,0.6l2.3,0.2
	l0.7,0.6l-1.6,0.8l-1.2,0.2l-0.7,0.5l1.2,1L594,119l-2.7,0.6v0.4l2,0.6l1.3,1l1.2,0.5l1.3,0.1l1-0.1h2.2l1.5,0.6l0.7,0.8l0.3,1.1
	l-0.5,0.8l0.3,0.6l0.1,0.8l-1.5,0.6l-3.2-0.1l-0.3-0.4l0.7-0.4l0.7-0.1l0.9-0.5l-0.1-0.5l-1.5-0.7l-2.2-0.6l-2.3-0.8l-1.3-0.7
	l-4.9-2l-1.2-1.1l-0.8-1.7l0.1-3l-1.4-1.9l-0.9-1.8l0.3-0.8l0.7-1l0.4-2.2l0.7-1l2-0.8l0.5-1.2l1.2-1l1.5-0.9l-0.1-0.6l-0.6-0.3
	l-1.3-0.1l-2.2,0.3l-4.2,0.1l-2,0.3l-2.5,0.1l-2.3,0.5l-3.2,1.1l-1.8,0.9l-4.1,2.3l-1.9,1.7l-1.2,2.3l0.4,1.5l-1,1.1v1l-1.2,0.6
	l-0.2,1.1l-0.9,0.9v0.7l1.5,1.2l-0.4,1.6l0.9,2.9l0.1,3l0.6,0.8l1,0.4l3.5,0.1l2.5-0.6l2.3,0.5l3.1,0.4l1.2-0.3l1-0.1l1,0.3l0.7,0.7
	l1.3,0.5l1.3,0.1l1.3,0.4l0.1,0.4l-0.9,0.3l-5,0.1l-2.5-0.3l-1.2-0.3l-2-0.4l-2.3-0.1l-1.4,0.6l-0.1,0.6l0.8,0.8l0.5,1.3l1.8,0.8
	l0.8,0.6l1.8,1l1.3,0.4l1.5,0.1l0.5,0.2l1,1.1l1,0.4l1.5,0.1l0.9-0.4l1-0.1l1.3,0.3l1.5,0.1l1.5-0.2l0.5-0.4l-0.5-0.7l-0.1-0.6
	l0.3-0.3h1.5l1,0.4l0.5,0.6l1.6,0.4l3.8,1.9l1.5,0.1l1.3,0.7l1,0.1l1.7-0.1l2.5-1.2l2.2-0.6h1.2l1.2,0.6l1.3,0.3l3-0.1l2.2-0.3
	l2.6-0.1l3.3-0.5l1.8,0.1l4.6,0.8l2,0.2l1.3-0.4l1-0.7l1.3-0.1l1.5,0.2l2.8,0.8l1.3,0.1l0.9-0.6v-0.3l-0.5-0.3l-1.8-0.5l-0.1-0.3
	l0.5-0.7l0.9-0.3h1.8l2,0.1l1.3-0.1l1.5-0.3h1.7l2.6,0.8l0.8,0.1l4.3-0.7l1.3-0.6l-0.1-0.6l-4.3-2.2l-1.3-0.4h-3.2l-0.7-0.3v-0.7
	l1.5-0.4h2.3l4.5,0.4l2,0.8l1.5,0.2l1.5-0.3h1.7l0.8,0.3l0.8,1l2.5,1.5l0.6,0.9l0.3,0.1l1,0.1l1-0.2l0.2-0.5l0.7-0.3l3.5,0.3
	l0.6,0.2l0.1,0.4l-0.8,0.6l-0.2,0.5l0.8,0.3h1.5l1.2-0.2h1.7l1.2,0.6l1.2,0.4l4.8,1.2l1.3,0.6l0.1,1.2l-0.9,0.7l-4.2,0.7l-0.5,0.3
	l1,0.6v1.6l0.7,0.3l1.8,0.1l1.8-0.6l1.7-1.2l0.7-1.2l2.2-1l0.8-0.1l1.5,0.3l3.8,0.3l5.3,2.1l1.2-0.1l1.7-0.3l1.7-0.1l0.7,0.3
	l0.1,1.2l2,0.9l2,0.3l2.3,0.7h2l1.5,0.2l1.5,0.6l3.6,2.2l2.8,1l1.2,1.2l3.3,1.5l1.2,0.7l0.1,0.6l-1,0.6l-0.9,0.3l-0.7,2.1v1.3
	l0.3,0.6l-1.6,1.8l-1.5,1.5l-3.7,2.1l-1,0.8l-0.5,0.8l0.5,0.9l0.8,0.4l3.8,1.1l4.5,0.8l1.3,0.6l1.8,1.2l0.3,0.6l-0.7,0.4l-4.2,0.1
	l-1,0.8l-1.2,1.2l-0.8,0.3l-3.8,0.1l-0.9,0.6l-0.4,0.6l-0.7,0.3l-4.3,0.1l-2.5,0.8l-3.2-0.1l-1.8-0.3l-4.3-0.2l-3,0.1l-2.2,0.5
	l-1,0.6v1l1.2,0.7l0.6,0.6l-0.3,0.4l-3.7,0.8l-0.9,0.3l-0.9,0.6v0.8l2.3,1.7l0.8,1l1.2,0.6l2.9,1.2l5.3,1l3.5,0.1l1-0.3l2.2-1.2
	l2-0.3l2-0.8l3.2-0.7l-0.3-0.6l-1.3-0.6l-0.1-0.3l0.7-0.6l1-0.1l1.5-0.3l1.2-0.1l3,0.4l2.3,0.4h2l1.7-0.5l0.2-0.4l-0.8-0.6v-0.8
	l1-0.3l1-0.8l0.9-0.3l1.5-0.1l1.3,0.5v1.2l0.3,0.8l0.7,0.3l1-0.3l0.5-1.1l1-0.2l6.3,1.5l2.7,0.4l2.5,1l3,0.7l2,0.8l2.8,0.1l1.2,0.6
	l0.8,0.1l4.2-0.8h1.7l1.6,0.1l1.5,0.5l0.1,0.6l-0.3,0.7v1.6l0.5,0.9l1,0.4l2,0.2l1.5,0.8h1.2l3-0.8l10.6,0.9l2.2-0.2l3-0.9l2.5,0.2
	l0.8,0.3l0.5,0.8l0.8,0.3l1.8,0.1l1.6,0.3l2,0.6l1.3-0.3h1.7l1.5,0.5l1,0.1l8.2-0.9l5-0.1l4.2-0.2l6.1,0.3l3.3,0.3l2.6-0.3l1.4-0.8
	l-0.1-0.9l-2.5-1.4l-1.7-0.7l-3.3-0.3l-0.5-0.1l-3-1.2l-3.1-0.6l-3.2-0.1l-4.8-1l-4-0.2l-2.8-0.7h-2.8l-1.2-0.2l-7.8-2.2l-2.5-0.6
	l-3-0.5l-0.3-0.2l0.2-0.5l0.9-0.3l2-0.3l3.2,0.1l3,0.3l3.3,0.7l0.5,0.2l1,0.1l0.4-0.5l1.8-0.3h2l1.5,0.2l2.5,0.6h0.5l3,0.5l2,0.8
	h2.7l1.7-0.1h2l2.3-0.6l4.2,0.1l1.3-0.3l1.3,0.1l1,0.3l0.5,0.9l0.8,0.3l2.3-0.1l0.3-0.1l0.5-1l-0.1-0.4l-2-0.3l-0.6-0.3l0.3-0.3
	l1.3-0.4l-0.1-0.6l-0.8-0.6l-0.8-0.3l-2.7-0.3l-0.7-0.3l-0.1-0.5l-1.4-0.8l-2.3-0.9l-0.5-0.8l0.3-0.6h2l2,0.8l1.4,1.2l1.2,0.1
	l0.7-0.4l-0.8-1l-1.2-0.9l-2.3-1.1l-3.8-0.5l-0.8-0.3l-0.8-0.8l-0.3-0.7l-0.6-0.3l-2.8-0.1l-2-0.8l-1.5-0.2l-1.5,0.3l-1.2-0.3
	l-0.3-0.4l0.5-0.3l2.2-0.3l-1.3-1.4l-0.6-0.3l-1.2,0.1l-2,1.1l-1.5-0.1l-0.6-0.8l-0.1-0.6l-0.8-0.6l-2.3-1.2l-1.7-0.1l-1.5,0.8
	l-1.9-0.1l-2.3-0.5h-1.5l-1.7,0.1l-1.7-0.3l-2.5-1l-3.3-0.9l-1-0.4v-0.8l-1-0.3l-1.3,0.1l-0.6-0.1l-0.1-0.8l-0.7-0.1l-0.7,0.1
	l-0.7,0.3l-1.5-0.1l-0.5,0.3l-0.4,0.7l-0.8,0.4l-0.9-0.1l-0.6-0.7l-0.3-0.8l-2-0.8l-2.3-0.4l-1.5-0.6l0.2-0.8l1-0.6h1l0.3,0.1
	l0.7,0.6l0.8,0.5l1.2,0.1l3.2-0.6l0.8-0.3l-0.1-0.6l-1-0.6l-2.8-0.3l-2.5-0.5l-1.6-0.5l-0.7-0.6l0.2-0.5l1-0.2l1,0.1l1.3,0.3
	l1.2,0.1l0.7-0.3l-0.5-0.6l-1.2-0.5l-2.3-0.4l-0.3-0.4l0.8-0.3h2l1.7-0.6l2-0.1l1.5,0.5l0.6,0.6l1.2,0.5l1.5,0.2l2.6,0.1l2.5,0.5
	l2,0.6l1.8,0.3h0.7l1.7-0.4l3.4-1.4h1l0.1,0.4l-1.7,1.4v1l0.7,0.3l2.2,0.1l1,0.1l1.2,1l1.5,0.2l0.3,0.1l0.3,0.4l0.7,0.3l1.8,0.4
	l1.5,0.1l1,0.2l1.5,0.8l0.8,0.3l1.3-0.1l1.9-1.2l1.2-0.1l1.8,0.9l1.2-0.1l0.7-0.2l1-0.1l1.2,0.4l0.9,0.1l0.7-0.4l-0.5-1.5l-1.3-1.1
	l-2.6-1.6l-1.1-1.7l-1-0.6v-0.7h1.5l1.2,0.5l0.8-0.1l1.2-0.7l0.7-1.7l1.2-0.5l-0.3-1l-0.5-0.4v-0.7l1-0.5l-0.1-0.5l-0.5-0.1
	l-2.5,0.1l-1.5,0.1l-1-0.1l-0.3-0.3l0.7-0.7v-1.2l1.2-0.2l2.3,0.2l0.9-0.2l0.5-0.5l-0.1-0.4l-1-0.6l-1.3-0.5v-0.7l1.5-0.8v-0.7
	l-1.5-0.6l-4.3-0.6h-3.8l-3.3,1.2l-6,2.5l-1.7,0.1l-0.6-0.3l0.3-0.8l-1-0.7l0.2-0.6l1-1.2l-0.1-0.4l-1-0.3l-1,0.2l-1,1.2l-0.7,0.4
	l-1.7,0.5l-1,0.9l-2.2-0.1l-1-0.3l-0.6-0.3l-0.1-0.9l-0.8-0.3l-1.5-0.1l-0.1-0.7l-1.2-0.6l-2.3-0.5l-3.2-0.4l-1,0.1l-2.5,1.1
	l-1.2,0.1l-0.5-0.3l0.2-0.9l1.2-1.7l-0.3-0.3l-0.7-0.2l-1,0.1l-2.5,1.2l-1.9,1.2l-1.2,0.3l-0.3,1l-0.7,0.1l-0.7-0.1l-1.8-0.7
	l-0.7,0.1l-1.2,0.5l-0.9-0.1l-0.8-0.7l-0.6-0.2l-1.3,0.1l-1.2,0.6l-0.7-0.1l-0.1-0.3l-0.8-0.8l-2.2-0.6l-0.7-0.3l-0.1-1l-0.7-0.1
	l-2.2,0.3h-2.5l-1-0.2l-1.5,0.1l-1,0.3l-1.7,0.1l-1.5-0.1l-0.8-0.3l-0.5-0.4h-1.5l-1.7,0.3l-1,0.3l-1,0.1l-0.5-0.1l-1.5-0.1
	l-1.2-0.3l0.1-0.3l1.4-0.4h1.5l1.7-0.1l0.5-0.1l0.9-0.2l1-0.4l1.3-0.3l0.7-0.3l-0.1-0.5l-1.2-0.8l-0.1-0.7l-1-0.4l-2.5-0.2l-0.9-0.3
	v-0.4l2.8-0.3l4.8-0.1l2.9-1.1l0.5-0.4l-0.2-0.4l-1.3-0.5l-1.5-0.1l-5.7,0.5l-3,0.3l-3,0.2l-1.7-0.1l-0.7-0.3v-0.7l1.5-1l1-1
	l2.7-0.5l1.7-0.6l0.5-0.4l-2-0.9l-6.1-1.7l-1.3-0.1l-1.3,0.2l-0.5,0.6l0.3,1l-2.2,1.2h-1.2l-1.8-1l-1-0.1l-1.6,0.2l-1,0.6l-1.3,1.1
	l-0.7,0.1l-0.9-0.1v-0.8l2.9-1.7l5.4-2.4l-0.3-0.6l-1-0.3l-2-0.1l-3.6-0.1l-3.3-0.6l-1.3,0.1l-1.2,0.6l-1,1.1l-0.7,0.3l-1-0.1
	l-0.5-0.3v-0.6l0.5-0.5l-0.2-0.3l-0.3-0.1l-0.6,0.1l-1,1l-1,0.7l-1.3,0.4h-1.5l-0.6-2l-0.1-1.2l-1-0.4l-0.5-0.1l-1.5,0.3l-0.4,1.7
	l-1.7,1.4l-1,0.4l-2.3,0.4h-2.3l-0.7-0.3l-0.1-1l-0.3-0.6l0.5-0.8l1.5-0.8l1.2-0.4l0.5-0.5l0.2-0.6l0.2-0.1l-0.3-0.5l-0.8-0.3
	l-1.3-0.1l-1.8-0.9l-2.3-0.6l-2,0.1l-1.2,0.3l-0.7,0.7l-0.9,1.4l0.1,1.2l-1.9,1l-1.3-0.1l-1.8-0.6l-1.3-1l-0.7-0.2l-0.3-0.8
	l-1.7-0.3l-0.6-0.2l-0.3-0.3l0.7-0.7l-0.1-0.4l-1-0.1l-1,0.2l-2,1.1l-2.7,1.2l-2.3,0.1l-0.5-0.1v-0.7l3.3-1.2l0.9-0.7l-0.1-1
	l-1.3-1.2l-1-0.2l-4.7,0.3l-1-0.3l-0.1-1.2l-2.2-0.9l-2.8-0.5l-1.3,0.1l-1.7,0.4l-2.3-0.1l-1.8-0.6l-1.7-0.1l-1.2-0.3l-1.7-0.1
	l-2,0.1l-2.7,0.6l-2.2,0.8l-1.7,0.8l-0.5,0.7l0.4,0.8l-0.2,0.8l-1.3,0.8l0.6,0.8l0.1,1.5l-0.9,0.6l-0.7,0.2l-1-0.1l0.1-2.3l-1-0.6
	l-1.6-0.1l-0.9,0.2l-0.9,1l-0.5,0.2l-1-0.1l-0.3-0.3v-0.8l0.7-0.8l-1.2-0.3l-1.2,0.3l-0.9,0.9l-1.1,2.7v0.4l-0.9,0.8l-0.8,0.3
	l-1.3-0.1l-0.8-0.4l-0.3-0.8l0.6-1.4l1.4-1.3l-0.2-0.6l-1.6-0.8l0.4-0.7l0.9-0.7l-0.1-0.8l-2-2l-1.3-1.4l-1.8-0.8l-2.8-0.3l-0.6-0.6
	l-0.1-1.6l-2.6-1.7l-1.3-0.5H612.4z M500.3,100.8l-3,0.7l-1.2,0.1l-1.3,0.3l-0.3,0.5l1,0.8l0.7,0.1l7.9-1.5l0.7-0.4l-0.3-0.4
	l-0.7-0.1L500.3,100.8z M489.8,101.7l-1,0.1l-1,0.6l-0.2,0.3l-1.2,0.2l-1.2-0.1l-1.3-0.3l-1.5,0.3l-0.5,0.9l1,1.2l1.2,0.6l0.1,0.4
	l-1,0.2l-1-0.3l-1-0.2l-2,0.1l-0.7,0.3l-0.5,0.7v0.2l1.4,1.2l1,0.7l0.8,0.1l0.7-0.1l1.2-0.1l0.7,0.3l0.3,0.4l-0.7,0.8l1,0.6l0.1,0.4
	l-0.9,0.6v1.5l-0.9,0.6l-1.3,0.3h-2.5l-0.8-0.3l-1.8-2.3l-1.1-0.8l-1.3-0.6l-1.7-0.1l-1.8,0.6l-1.9,1.3l0.1,1.3l1.4,1.5l1.8,0.9
	l0.3,1.5l0.5,0.6l0.8,0.3l2,0.2l2,1.2l2,0.1l0.7,0.2l2,1.5l2.1,1l4.1,3.7v1l0.6,0.6l0.9,0.3l3.1,0.7l1.5,0.1l1-0.1l1.3-0.3l1-0.8v-2
	l0.7-0.3l1.3-0.1l1.8,0.7l0.7,0.1l1.7-0.3l3.5-1.4l2-0.1l1-0.3l0.2-0.4l-1-1l-0.1-0.9l1-0.7l0.2-0.4l-0.7-0.6v-0.5l1.7-1l-0.1-1.1
	l-0.6-1.5l-0.6-0.2l-1,0.1l-1.2,0.6l-1-0.1l-0.7-0.4l0.2-0.7l0.4-0.6l-0.1-0.8l-0.8-0.8l-0.3-1.1h-4.3l-2,0.5h-1l-0.3-0.3l3-2l1-0.3
	l2.9-1.2l1.2-0.7l-0.7-0.6l-0.1-0.4l0.9-0.3l2-0.3l1-0.5l-0.1-0.6l-1.3-0.8l-1-1l-0.6-0.3l-1.3,0.1l-2.2,0.4l-2,0.3l-1,0.1l-2,0.6
	l-1.7,0.3l-1.3,0.1l-1.6-0.1l-1.5-0.5v-1l-0.5-0.3l-0.3-0.6L489.8,101.7z M446.2,101.7l-1.7,0.1l-2.2,0.9l-1.3,0.4l-0.2,0.8l0.7,0.4
	l1,0.3l1.2,0.8l1,1l0.5,0.7l4.6,3.2h0.7l0.7-0.3l0.2-0.9l1.4-0.8l2.7-2.3l2.4-1.2l-0.3-0.7l-1.6-0.8l-1.2-0.4l-0.7-0.6l-1.5-0.5
	l-2-0.1l-2.3-0.1H446.2z M211.6,104.1l-1,0.3l-0.7,0.6l-0.7,0.2l-2,0.2l-1.2-0.1l-1.8-0.6l-2,0.1l-2.2,0.3l-1.5-0.1l-1.8-0.3l-1,0.1
	l-1.2,0.1l-1.2,0.2v0.6l1.2,0.5l0.4,1.9l1.2,0.4l2,0.1l5.5-0.5l4.7-0.6l4.3-0.8l1.5-0.5L214,106l-1.6-0.6l-0.1-1.1L211.6,104.1z
	 M510.6,110.2l-1.3,0.1l-1,0.4l-0.5,1l0.6,0.4h2.3l1.2-1l-0.1-0.6L510.6,110.2z M703.1,117.8l-1,0.1l-1.9,0.6l-0.3,0.6l0.5,0.4h1.2
	l3.2-1l-0.1-0.3L703.1,117.8z M661.7,136.8l-1.5,0.3l-1,1l-1.7,0.7l-0.2,0.5h1.3l3-1.2l0.8-0.2l1-0.6l-0.1-0.3L663,137h-0.5
	L661.7,136.8z M650.8,137.1l-1.3,0.3l-0.8,0.4l-1,0.1l-2.2-0.2l-1.7,0.8l-1,0.1l-0.3,0.3l0.1,0.3l1.8,0.3l1.8,0.8l1,0.1l0.3-0.1
	l0.3-0.2l-0.1-0.1l0.3-0.6l3.3-1.1l0.4-0.5l-0.1-0.8L650.8,137.1z M587.4,138.5l-1.8,0.6l-0.2,0.6l1,0.4h4.7l0.5-0.5l-0.1-0.6
	l-0.8-0.3l-1.6-0.1l-1-0.1L587.4,138.5z M675,138.5l-1.5,0.1l-0.3,0.1l-0.3,0.1l-1.3,0.6l-0.2,0.6l0.3,0.8l1,0.4l1.2,0.1l0.9-0.3
	V140l1.5-0.7l-0.1-0.6L675,138.5z M660.9,140.7l-1.2,0.3l-0.5,1.2l-1.4,1.5l-0.5,0.9v0.8l1,0.3l1.5-0.3l1.2-0.6l1.2-1l0.1-1.9
	l0.3-0.7l-0.1-0.6l-0.1-0.1L660.9,140.7z M498.6,142.8l-1.2,0.1l-1.7,0.9l-2,0.8l-0.9,0.6l-0.9,1l0.3,2l-0.8,0.6l-1,0.3l-1.5,0.3
	l-2.3,0.2l-1.7,0.3l-1,0.6v0.8l0.5,0.6l1,0.4l1.3,0.1l2.2-0.4l0.8,0.3l0.5,0.7l1.3,0.4l3.8,0.6l1.8,0.6l2.3,0.1l1.8,0.9l3.3,0.3
	l3,0.7l2,0.2l2.7-0.3l1.2-0.3l1-0.4l1.7-1.1l3-0.4l1-0.6l-0.1-0.8l-1-0.4l-1,0.1l-1.2,0.2l-1-0.4l-0.8-1.7l-1.5-1l-1.6-0.8l-4.5-1.5
	l-1.1-1l-0.3-0.6l-1.5-0.7l-2.5-0.6l-1.2-0.5l-1.2-0.8L498.6,142.8z M693.1,143.4l-0.7,0.3v1.3l2.9,1.2l2,0.4l0.7-0.4l-0.5-0.6
	l-1.8-0.9l-1.1-1.2l-0.3-0.1L693.1,143.4z M516.6,145.7l-1.2,0.1l-1,0.6v0.6l1.4,0.6l1.7,0.3l1.3-0.1l0.9-0.7l-0.1-0.6l-1.5-0.6
	L516.6,145.7z M692.2,147.3l-2,0.1l-4.9,1l-1.5,0.6l-0.3,0.4l-0.3,0.2l-0.3,5.6l0.3,0.8l1.5,1.7l1.2,0.4l1.8,0.2l5.5-0.2l7-0.8
	l1.7-1.1l0.6-1.6l-0.1-1l-1.1-1.3l-2.5-1.5l-0.1-0.9l0.5-0.5l0.3-0.6l-0.1-0.6l-1-0.6h-4.3L692.2,147.3z M705,147.7l-0.9,0.6
	l-1.2,0.3l-0.1,0.6l0.5,0.6l2,0.8h4.6l3.8-0.5l1.2-0.5v-0.3l-0.3-0.5l-1.3-0.5h-5.2l-2-0.7L705,147.7z M475.7,150.6l-1.5,0.5
	l-0.4,0.6l1.1,1.5l1,0.1l0.9-0.1l1-0.7l0.3-0.7l0.2-0.1l-0.1-0.7l-0.8-0.3L475.7,150.6z M461.5,152.3l-1,0.4v0.5l1.2,0.7l0.6,0.2
	h1.3l0.9-0.6l-0.1-0.6l-1.5-0.6L461.5,152.3z M436,152.8l-0.7,0.4l0.3,0.8l1.5,0.4l0.5,0.1l1-0.2l0.5-0.5l-0.6-0.7l-1-0.3L436,152.8
	L436,152.8z M596,156.8l-0.7,0.3l-1,0.8v0.9l2.5,2.3l0.7,0.1l0.7-0.3l0.7-2.3l-0.1-1.2l-0.7-0.4l-0.5-0.2H596z M627.5,176.4
	l-0.7,0.3l-0.2,0.2l0.5,0.6l3,1.1v0.8l0.6,0.3l1.3,0.1l1.8,0.5h4.3l1-0.4l-0.1-0.3l-1.6-0.7l-3.2-0.5l-3.3-1.3l-2.5-0.7L627.5,176.4
	z M620,177.9l-0.4,0.4l1.5,1.1l0.3,1l2.1,1.4h0.9l1.5-0.7l-0.1-0.3l-2-1.3l-1.1-1l-1.3-0.5H620z M613.8,179.6l-1.2,0.6l-0.7,0.8v1.9
	l-0.3,0.5l-0.2,0.9l1.7,3.2l-0.4,1.4l-0.1,5l0.5,1.2l0.8,0.8l0.1,0.8l-0.8,0.6l-3,1.5l-1.5,1l-0.5,1l-2.2,1v0.8l0.5,0.3h2l1-0.4
	l3.4-0.8l2.8-0.1l1.3-0.3l2.7-0.4l2.3,0.3l1.3,0.7v1.4l0.9,2.2l1.2,0.4l2.2,0.1l3.5-0.8l1.3-0.5l0.9-0.6l1.7-2.4l1.9-1.3l4.2-1
	l0.7-0.8l-0.3-0.8v-1.3l2-0.8l1-0.8l1.5-0.6l1-0.1l1,0.4l-1,0.6v0.4l0.5,0.2l1.8,0.1l2-0.1l3,0.2l1.3,0.4v0.4l-1.3,0.3v0.4l2,0.7
	l8.8,0.6l2.3,0.4h2.3l1.7-0.9l2.5-0.7l1.2-0.5l0.7-0.7l1.9-1.1l-0.3-0.5l-1.6-0.5l-2.6-0.3l-1.5-0.8H670l-1.5,0.8l-2.5-0.1l-1.6-0.1
	l-1.3,0.3l-1.5,0.6l-1.3-0.1l-1-0.4l0.2-0.6l2-0.6l-0.3-0.6l-3.6-2.5l-2.3-1l-2.8-0.8l-2.7-0.2l-5.6-1.3l-5.8-1.8l-2-0.2l-2.7-0.1
	l-2.3-0.6l-2.6-1.2h-1.5l-1,0.2l-0.2,1.9l-0.9,0.3l-1.3-0.1l-1.3-0.8l-1.8-1.6l-2.3-1.7l-1.5-1l-1.5-0.6L613.8,179.6z M847.6,182
	l-1.3,0.3l-1,0.6v0.4l1.2,0.3h1.5l1.7-0.7l0.3-0.3l-0.3-0.4L847.6,182z M852.8,190.7l-0.8,0.1l-0.7,0.4l-1.5,0.7l-0.5,0.4l0.5,0.3
	l2.3,0.1l2.3,0.6l1.7,0.3l1.8,0.1l0.9-0.3l-0.8-0.9l-0.1-0.5l-2.6-1.2L852.8,190.7z M780.6,191.5l-1,0.1v0.3l1.2,0.6l1.3,0.4l3,0.8
	h3.3l1.2-0.6l-0.1-0.7l-0.5-0.1l-0.1-0.1l-2.7-0.5h-1.7l-2-0.2H780.6z M711.3,193l-1.5,0.1l-0.7,0.2l-0.1,0.3l0.6,0.3l2.5,0.2
	l2.5,0.8l1.2,0.1l1.7-0.1l0.9-0.3l-0.1-0.4l-1-0.4l-1.2-0.2l-1.7-0.1L711.3,193z M702.1,195.6l-2,0.3l-1.7,0.6l-0.2,0.6l1.5,0.5
	l1.8,0.1l0.8,0.3l0.8,0.6l0.8,0.3h2.3l2.2-0.7l0.7-1.1l-0.3-0.6l-0.7-0.3l-1.8-0.3l-2.3-0.3H702.1z M869.7,200.6l-1.2,0.1l-0.7,0.4
	l0.7,0.3l1.6,0.1l0.6,0.1l1,0.1l-0.1-0.6l-0.3-0.1L869.7,200.6z M662.9,204.8l-1.8,0.5l-3.8,0.4l-1.7,0.5l-1.3,0.6l-1.3-0.1
	l-1.6-0.6l-1,0.1l-1.2,0.6l-0.3,1.4l-1,1.5l-2.4,1.3v0.8l2.8,1.3l0.4,1l0.3,0.1l0.7,0.1l0.9-0.3l0.5-0.6l1-0.4h2.5l2.6-0.1l1-0.2
	l0.3-1l2.9-1.4l3.6-2l0.5-1.2l-0.1-1.8l-0.7-0.3L662.9,204.8z M833.7,206.9l-1.2,0.1l-1.3,0.6l-0.2,0.2l-0.2,1.2l-1.5,1v0.8l1.5,0.5
	h2l2-1.5l0.9-1.2l-0.1-0.8L833.7,206.9z M694.1,207.6l-1.2,0.1l-0.3,0.1h-1.3l-1.7,0.4l-1.4,0.8l-1,1.3v0.8l0.3,1l1,1l1.7,0.7
	l3.1,1.9l1.2,0.3l2.5-0.9l0.2-0.8l-0.3-0.3l-0.1-0.7l0.9-1.6l-0.1-0.9l-1.7-2.5L694.1,207.6z M946.7,223.9l-1,0.2l-0.5,1.2l1.5,1
	l0.8-0.3l0.4-0.3l-0.1-1.3L946.7,223.9z M10.5,233.8l-0.5,0.1l-1.2,0.7l-2.7,0.9l-0.9,0.6l-0.7,1.8l-1.7,0.8l-0.4,0.5l1.3,1l0.1,0.6
	l-0.7,0.3l-0.7,0.6l0.3,0.4l0.3,1.2l0.5,0.3l2.2-0.1l2.2,0.6l1.5,0.1l0.9-0.3l1.9-1.1l1.7-0.6l1-0.5l3.9-1.4l2.9-0.8l2.9-0.7l1-0.5
	l-0.5-0.4l-2.8-0.3h-1.7l-1.3,0.4l-1.4,1.1l-2.5,0.6l-1.7,0.3l-1.7,0.1l-1.7-0.1L9,239.7v-0.5l6.8-0.6l0.7-0.3l0.7-0.6l-0.1-1.1
	l-0.7-0.6l-3-0.5l-0.3-1.2l-1.3-0.8L10.5,233.8z M36.5,242.3l-1.7,0.1l-0.7,0.2l0.3,0.3l2.6,1.3l1.2,0.1l1-0.4l0.3-0.3l-0.1-0.5
	l-0.1-0.1L36.5,242.3z M3.1,244.2l-1.3,0.6l0.1,0.3l0.7,0.3l-0.2,0.4l-0.5,0.3v0.7l0.8,1.4l0.1,2.7l0.5,0.8l0.1,2.4l1.3,1.5l1.3,0.4
	l1.3,0.1L8,256l-0.2-0.6l-1.7-0.6l0.1-3l-0.8-1.4l0.2-2.1l0.2-0.1l0.9-1l1-0.7l1.5-0.3h3l0.3-0.3l-0.8-0.8l-3-0.3H6.2L3.1,244.2z
	 M39.7,245.1l-0.9,0.3l0.1,2.6l-0.1,0.3l0.1,0.8l-0.4,1l0.5,1.2l0.6,0.3l0.9,0.1l0.3-0.1l0.3-0.4l1.2-0.8l-0.1-0.5l-0.7-0.6
	l-0.1-0.8l-0.1-0.2l-0.4-2.6L39.7,245.1z M32.8,246.3l-1,0.8l0.4,1.2l1,1.1l0.3,1l1.1,1.1h1l0.5-0.4l-0.1-1.5l-0.8-1.4l-0.1-1.2
	l-1-0.6L32.8,246.3z M1088,249.3l-2.2,0.1l-1.2,0.3l-0.5,0.4l-0.5,0.2l-1.8,0.1l-1.3,0.6l-1.4,1.7l-2,2.1l-0.9,1.9l0.4,1.1l0.1,1.7
	l0.5,0.9l-0.4,1.2l-1,1.1l1.5,0.8l0.1,0.5l-0.3,0.4l-0.2,0.6l1.3,1.1l0.5,0.8l0.4,1.5l0.8,0.8l2,3.7l0.3,1.6l-0.3,1l-0.2,1.4
	l1.6,1.2l1,0.3l1.5-0.1h1l0.8,0.3l0.1,1.1l-0.9,0.3h-2.2l-0.5,0.2l0.6,3.2l0.5,0.8l0.1,1.1l-1.2,1l-1.8-0.5l-1.3,0.4l-1.9,1.1
	l-0.2,0.3l0.3,0.2h1.5l4.5-1l1.5-0.8l2.7-0.8l0.5,0.2l0.1,0.6l-0.5,0.8l-0.9,0.5l-0.2,2.8l-1.6,1.5l-1.2,0.8l-0.2,0.7l0.7,0.6
	l1.5,0.3l0.7,0.3l0.8,1.2l2.5,0.2l1.9-0.1l2.3-0.5l1.7-0.8l1.2-0.8l1.2-0.6l1.5-0.4l1.7-1l4.5-1.1l2.2-0.1l2.5-0.4l4.5-1.5h3.3
	l2.2-0.6l1.2-0.1l1.7-0.3l1.3-0.6l0.7-1l1-0.6l3.7-1.3l2.4-1.5l0.7-0.8l1.2-0.5l1-0.1l1.5,0.5l0.8,0.6v1.5l0.5,0.3l0.8,0.1l1.7-0.7
	l2.2-0.3l1.2-0.3l0.2-0.6l-1.2-0.7l-0.3-0.5l0.5-0.5l7.4-1.5l0.7,0.2l0.1,0.8l-1.9,1.4l-0.7,1l-0.6,1.5v1.2l-1,1l-1.7,1.1l-1.2,0.8
	l-0.3,0.5l0.8,0.3l3,0.1l5-1.7l2.2-1.2l0.2-0.9l-1-2.5l-0.1-1.2l0.7-0.7l2.7-1.4l0.9-0.7l-0.1-1l-1.8-1.8l-0.8-1.4l0.1-0.4l1-0.4
	h1.2l1.6,0.3l6.3,2.5l1.2,0.7l1.7,3l1.3,0.9l1.6,0.7l1.5,0.1l1-0.4l0.2-1.9l-0.4-1.7l0.9-0.4h1.7l0.8,0.3l0.9,1.9l2.5,0.6l2.1,1
	l1.3,0.1l0.7-0.2l0.2-0.8l0.5-0.7l1.5-0.4l1-0.6l-0.1-1.3l-1.3-1.4l-1.5-1.1l-0.7-2.4l-2.8-2.3l-1.3-0.6l-2-0.3l-1.3-0.6l-1.9,0.1
	l-0.3,0.3l0.7,0.7l2.3,0.8l-0.4,0.6l-1.3,0.7l-0.4,1l-0.8,0.3h-1.3l-1.8-0.9l-0.8-0.8l0.1-2.1l-1.3-1.1l0.2-0.5l0.7-0.8l-0.3-0.3
	l-1-0.2l-0.9,0.1l-1.3,0.8l-0.7,0.7l0.1,1.5l0.3,0.8v1.9l0.8,1.4l-0.5,0.3h-1.5l-2.8-0.7l-1-0.5v-1.4l-1.6-0.7h-1.8l-1.7,0.2
	l-0.9-0.1l-0.6-0.4l0.2-0.4l4.1-2V267l1.2-0.3l0.7-0.6l-0.4-2.3l-1.2-0.5h-1.2l-0.7,0.4l-0.7,1.2l-1.2,0.6l-0.2,1.4l-0.7,0.3
	l-2.5,0.1l-1,0.6h-1.2l-1-0.4l0.5-1v-0.5l-1.2-0.3h-1l-1.3,0.3h-1.2l-1.5-0.6l-0.3-0.6l0.2-0.8l1.2-2.4l-0.5-0.7l-1.3-0.3l-2-0.3
	l-4.8,0.5l-9.7,2l-0.3,0.4v1.2l-1.5,0.9l-2.2,0.9l-0.7,0.7l-1,0.2l-1-0.1l-0.3-0.4l-0.4-1.1l-1-0.3l-0.7,0.2l-0.3,0.4l-0.2,0.6
	l-1.5,0.6l-0.9,0.5l-1.7,0.2l-4.6-0.3l-1.2-0.6l-0.5-0.4l-2,0.1l-0.5-0.1l-0.3-0.3l0.7-0.4l0.7-0.1l1.2-0.5l0.4-0.6l1.3-1l-0.1-0.7
	l-1-0.6l-1,0.1l-1.7,1.1l-3.8,0.8l-1.2,0.1l-0.8-0.8l-1.3,0.3l-0.7,0.4l0.4,1.6l-1.4,2.1l1,1.7l-0.9,0.3l-1-0.2l-1-0.6l-0.8-1.5
	l-1.5-0.6v-0.6l0.4-0.6l-0.8-1.1l-0.4-3l-0.8-1.5l-1.3-1l-2-1v-0.6l0.7-0.3l2,0.5l0.2-0.1v-1.7l-1.1-2.6l-0.9-0.3l-0.7,0.1l-2,1
	h-1.3l-0.7-0.4V253l3.7-1.1l0.7-1l-0.1-1.2L1088,249.3z M50.7,249.9l-1.3,0.3l-0.3,0.6l0.8,0.3l2.8-0.3l1.3-0.3l-0.1-0.3l-0.7-0.1
	l-1-0.1L50.7,249.9z M46.5,253.9l-2.5,1l-1.3,0.3l-1,0.6l-0.1,0.3l-0.9,1.5l-0.2,0.8l1.8,0.9l0.3,0.6l1,0.6l1,0.1l1.2-0.5l0.7-1
	l2.7-1.7l-0.3-0.7l-0.8-0.5l-0.4-1v-1.1L46.5,253.9L46.5,253.9z M37.7,257.5l-1.3,0.3l-0.6,2.2h1.7l0.5-0.1l0.3-0.1V259l0.3-0.3
	l-0.1-1L37.7,257.5z M733.7,262.2l-1.2,0.5l-0.6,2l-1.2,0.8l-2.3,0.2l-0.4,0.8l-2.6,2.1v0.5l0.7,0.3l1.7-0.3l0.9-0.8l1-0.6h1l0.1,1
	l0.5,0.3l1-0.2l1.7-1.3l1-0.9l0.5-0.1l0.1-0.1l0.2-0.1l0.7-0.3l0.3-0.6l-0.5-0.8l-1.2-0.7l-0.6-1l-0.1-0.6L733.7,262.2z M737,265.5
	l-0.1,1.7l0.4-0.6l0.1-0.6L737,265.5z M735.8,266.5l-1,1.7l0.7-0.6l0.5-0.3l0.1-0.3L735.8,266.5z M739.2,263.5l-0.4,0.6l0.2,0.6
	l0.6,0.1l0.3-0.1l0.2-0.2l-0.3-0.6L739.2,263.5z M725.5,265l-1.4,0.5l-0.5,0.7l0.3,0.3l2-0.8l0.3-0.2l-0.1-0.4H725.5z M57.3,266.2
	l-2.2,0.2l-1,0.2l-2.3,0.3l-0.5,0.1l-4,0.2l-1,0.2v0.8l0.7,0.1l1.3-0.3h1.8l2-0.3l3-0.2l1.2-0.3l2.3-0.2l-0.3-0.5L57.3,266.2z
	 M600,269.4l-0.3,0.2L599,270l0.7-0.3L600,269.4z M25.9,276.9l-0.9,0.2l-0.9,0.6v1.1l1.6,1.6l1.6,0.8l1.7,0.1l2.2-0.1l1,0.2l0.1,0.5
	l-0.7,0.5l-1.7,0.3l-2-0.2l-1,0.2l-0.9,1l-1.5,0.8v0.5l1.3,0.4l1.6,0.1l0.7,0.1l0.5,0.3l1.8,0.8l0.7,0.2l0.5,0.6l-0.7,0.7l1.1,1
	l1.3,0.4l2.2,0.2l1.2,0.3v1.2l1.2,0.9l0.6,1l-0.7,0.3l-2,0.3l-0.7,0.4l-0.2,0.7l0.5,0.6l2.3,0.6l1.5,0.1l1.3,0.6l0.1,1.7l1.6,0.8
	v0.5l-1.2,0.4l-0.3,0.4l1.8,1.2l0.8,1.4l0.8,0.1l1.5-0.6l0.3-0.1l1.8,0.3l1.6,0.7l0.1,0.9l-1.5,0.7l-0.2,0.6l2.3,1.4l1.2,0.5
	l0.8,0.8l0.8,0.2l0.7,0.3l1,1l1.3,0.4l1.2,0.2l3.9,2.3l3.3,1h0.7l1-0.6l2.3-0.5l0.9-0.3l-0.1-1.2l-1.3-1.5l-0.3-0.8l1.2-2.9
	l-0.3-0.8l-0.5-1.2l-2.6-1.5l-2.5-1.2l-1.8-0.8l-1.7-0.6l-0.6-0.7l-0.3-1.1l0.2-0.6l0.3-0.3v-2.1l-0.8-1l-0.6-3.2l-0.6-1.2l-2.3-1.2
	l-1.5-0.6l-0.5-0.3l-4.8-2.1l-4.3-1.5l-3.8-1.7l-2.9-2.3l-0.5-0.9l-3-1.2l-3.5-1.2L25.9,276.9z M740.1,278.6l-1.7,0.1l-3.5,1.1v0.5
	l1,0.3l0.7-0.1l2-1l2.5-0.3l0.2-0.1l-0.2-0.3L740.1,278.6z M1018.5,290l-5.5,0.6l-3.6-0.2h-2.9l-2.6,0.3l-9.6,1.7l-4,0.5l-0.8,0.5
	l0.6,0.3l3.5,0.1l1.3-0.1l5.5-0.1l1.7,0.1l2.3,0.6l2.2,0.7l1.6,0.1l2-0.2l3.7,0.1h3.8l5.3-0.6l4.5-0.8l6.3-0.5l2.9-0.4l0.7-0.2
	l0.9-0.6l-0.3-0.7l-1.2-0.6l-2.8-0.3h-4.2l-2.3,0.1l-1-0.1l-1.3-0.3l-3.2-0.1l-1.3-0.1L1018.5,290z M34,290.6l-2.2,0.4l-0.5,0.5
	l0.1,0.6l1.8,0.5l0.8-0.2l0.7-0.8l-0.1-0.9L34,290.6z M65,297.5l-0.9,0.1l-0.3,0.7l2.8,1.7l1.3,0.6l1,0.1l0.3-0.6l-3.3-2.3L65,297.5
	z M721.3,298.4l-8.3,0.8l-1.5,0.5l-0.7,0.4v0.7l1,0.6l1.6,0.2l6.8,0.1l1.5,0.3l1.7,0.1l2.6-0.2l2.2,0.6h1.2l1.5,0.2h2.6l0.5-0.3
	l-0.1-0.5l-1.2-0.6l-1.3-0.4l-4.3-2l-1.6-0.4L721.3,298.4z M1058.3,303.5l-1.2,0.3l-0.9,0.8l-1.2,0.6l-1,1.1l-0.1,2l0.5,0.6l1.2,0.3
	l1.3-0.1l2.2-0.5l0.3-0.3l-0.1-0.3l-2.5-0.2l-0.9-0.3l0.2-0.6l0.7-0.7l0.2-0.8l1.5-1l1.3-0.3l0.5-0.3l-0.1-0.5L1058.3,303.5z
	 M1083,305.3l-1.5,0.1l-0.7,0.3l-0.4,0.6l0.8,0.9l-0.7,1.4l-0.4,2.5l-0.3,3l-1.2,1.7l0.5,0.5l0.1,0.5l-0.4,0.8l0.7,0.6l2.9,1.5
	l2.5,1l1.5,0.2l2.8-0.3l2.2-0.4l1.7-0.8l0.7-0.2l3.3-0.8l3.2-1.2l1.7-1.4l0.2-1.2l0.5-0.9l2.5-1.1l-0.3-0.3l-1.6-0.3l-0.8-0.5
	l0.7-0.8l-0.3-0.3h-1.3l-5.5,1.1l-1-0.1l-0.5-0.3h-0.7l-2.9,0.9h-1.3l-0.7-0.4l0.1-2l-1-1.1v-0.8l-1.6-0.7l-1.7-0.3l-0.8-0.3
	l-0.3-0.4L1083,305.3z M755.6,305.9l-1.7,0.3l-2.5,1.1v1l0.8-0.1l1.9-0.7l2-0.6l1.2-0.7l-0.1-0.3L755.6,305.9z M1065.4,315.9
	l-7.4,1.9l-1.2,0.8l-1,0.3l-1.3,0.1l-2.2,0.1l-1.9,0.7l-1.3,0.1l-1.8,0.1l-2,0.6l-0.7,0.1h-3.3l-1.2,0.3l-1.2,0.8l-1.3-0.1l-1.6-0.8
	l-1.2-0.2l-2.5-0.1l-0.3-0.1l-0.6-0.5l-0.1-1.3l-1.3-0.6l-1.2,0.2l-0.4,1.7l-0.9,1.3l0.3,0.6l0.8,0.4l2.2,0.1l1.6,0.1l2.3,0.7
	l1.9,0.1l2-0.4h0.8l0.8,0.6l0.8,0.1l4.7-0.3h2.2l3.2-0.1l1.2-0.5l1.3-0.8l1.3-0.2l0.7,0.2l0.1,0.8l1,0.3l5.8-0.1l1.5-0.2l1.7-0.8
	l-0.1-0.6l-1-0.1l-1.6,0.1l-1.2-0.5v-0.2l0.1-0.3l1.2-0.6l0.3-0.4l-0.6-0.5l-0.1-0.4l0.5-0.6l2.2-0.6l1.4-0.8l-0.2-0.5L1065.4,315.9
	z M1133.2,328l-1.3,0.1l-1.2,0.7l-1.3,0.4l-0.3,0.2l-0.5,0.6l0.8,0.3l1.3-0.2l3.7-1.5l-0.1-0.4L1133.2,328z M1012.1,348.3l-1.3,0.3
	l-0.3,0.5l0.8,0.3l0.7-0.1l0.3-0.1l1.2-0.4l-0.3-0.3L1012.1,348.3z M712.5,370.2l-1.7,0.1l-0.1,0.1v0.3l2.5,0.8l1-0.1l0.5-0.2
	l-0.1-0.5L712.5,370.2z M748.6,370.6l-2,1l-1.8,0.1l-1.7-0.3l-2.8,0.3l-1.3,0.4l-0.9,0.3l-1.8,0.1l-5.5-0.3l-1,0.1l-1.2,0.5v0.5
	l0.7,0.3h6.7l6.8,0.3l4,0.5l3.7,0.1l0.5,0.3l1,0.1l1-0.4l1.2-0.7l0.2-1.3l0.4-0.7l-0.1-0.5l-0.7-0.2l-1.2,0.1l-1,0.4l-0.8-0.1
	l-0.7-0.3l-0.5-0.4L748.6,370.6z M723.5,372.3l-0.7,0.3l0.1,0.7l1,0.2l1.2-0.1l0.5-0.3l-0.1-0.6l-1.3-0.3L723.5,372.3z"/>
</svg>
