<svg xmlns="http://www.w3.org/2000/svg" xmlns:xlink="http://www.w3.org/1999/xlink" xmlns:lucid="lucid" width="1461" height="672.76"><g transform="translate(-399 -219)" lucid:page-tab-id="0_0"><path d="M520 220c22.1 0 40 17.9 40 40s-17.9 40-40 40h-80c-22.1 0-40-17.9-40-40s17.9-40 40-40z" stroke="#3a414a" stroke-width="2" fill="#fff"/><use xlink:href="#a" transform="matrix(1,0,0,1,405,225) translate(15.299479166666664 41.28472222222222)"/><use xlink:href="#b" transform="matrix(1,0,0,1,405,225) translate(60.377604166666664 41.28472222222222)"/><path d="M480 301.5v43.1" stroke="#3a414a" fill="none"/><path d="M480.48 301.5h-.96v-.5h.96z" stroke="#3a414a" stroke-width=".05" fill="#3a414a"/><path d="M480 359.38l-4.63-14.27h9.26z" stroke="#3a414a" fill="#3a414a"/><path d="M475.2 363.6a8 8 0 0 1 9.6 0l70.4 52.8a4.5 4.5 0 0 1 0 7.2l-70.4 52.8a8 8 0 0 1-9.6 0l-70.4-52.8a4.5 4.5 0 0 1 0-7.2z" stroke="#3a414a" stroke-width="2" fill="#fff"/><use xlink:href="#c" transform="matrix(1,0,0,1,405,365) translate(20.95986111111111 61.90972222222222)"/><use xlink:href="#d" transform="matrix(1,0,0,1,405,365) translate(79.54493055555557 61.90972222222222)"/><path d="M480.48 742.62h-.96V629.76h.96zm0-134.37h-.96V479.5h.96z" stroke="#3a414a" stroke-width=".05" fill="#3a414a"/><path d="M480 479l.48-.03v.54h-.96V479z" fill="#3a414a"/><path stroke="#3a414a" stroke-width=".05" fill="#3a414a"/><path d="M480 757.38l-4.63-14.26h9.26z" fill="#3a414a"/><path d="M480 758.92l-5.3-16.28h10.6zm-3.98-15.33l3.98 12.25 3.98-12.26z" stroke="#3a414a" stroke-width=".05" fill="#3a414a"/><use xlink:href="#e" transform="matrix(1,0,0,1,464.2013888888889,608.2458185118733) translate(0 17.22222222222222)"/><path d="M520 760c22.1 0 40 17.9 40 40s-17.9 40-40 40h-80c-22.1 0-40-17.9-40-40s17.9-40 40-40z" stroke="#3a414a" stroke-width="2" fill="#fff"/><use xlink:href="#f" transform="matrix(1,0,0,1,405,765) translate(21.493055555555543 41.28472222222222)"/><use xlink:href="#g" transform="matrix(1,0,0,1,405,765) translate(58.56770833333333 41.28472222222222)"/><use xlink:href="#h" transform="matrix(1,0,0,1,405,765) translate(94.70486111111111 41.28472222222222)"/><path d="M587.77 420.48H558.5v-.96h29.27zm37.84 0h-13.37v-.96h13.38z" stroke="#3a414a" stroke-width=".05" fill="#3a414a"/><path d="M558.52 420.48h-.56l.04-.48-.04-.48h.56z" fill="#3a414a"/><path stroke="#3a414a" stroke-width=".05" fill="#3a414a"/><path d="M640.38 420l-14.27 4.63v-9.26z" fill="#3a414a"/><path d="M641.9 420l-16.26 5.3v-10.6zm-15.3 3.98l12.24-3.98-12.25-3.98z" stroke="#3a414a" stroke-width=".05" fill="#3a414a"/><use xlink:href="#i" transform="matrix(1,0,0,1,587.7734375,409.2447916666667) translate(0 17.22222222222222)"/><path d="M715.2 363.6a8 8 0 0 1 9.6 0l70.4 52.8a4.5 4.5 0 0 1 0 7.2l-70.4 52.8a8 8 0 0 1-9.6 0l-70.4-52.8a4.5 4.5 0 0 1 0-7.2z" stroke="#3a414a" stroke-width="2" fill="#fff"/><use xlink:href="#j" transform="matrix(1,0,0,1,645,365) translate(41.879999999999995 41.28472222222222)"/><use xlink:href="#k" transform="matrix(1,0,0,1,645,365) translate(77.31402777777777 41.28472222222222)"/><use xlink:href="#l" transform="matrix(1,0,0,1,645,365) translate(38.746319444444445 62.795138888888886)"/><use xlink:href="#m" transform="matrix(1,0,0,1,645,365) translate(90.77756944444445 62.795138888888886)"/><use xlink:href="#n" transform="matrix(1,0,0,1,645,365) translate(46.73677083333333 84.30555555555554)"/><path d="M827.77 420.48H798.5v-.96h29.27zm37.84 0h-13.37v-.96h13.38z" stroke="#3a414a" stroke-width=".05" fill="#3a414a"/><path d="M798.52 420.48h-.56l.04-.48-.04-.48h.56z" fill="#3a414a"/><path stroke="#3a414a" stroke-width=".05" fill="#3a414a"/><path d="M880.38 420l-14.27 4.63v-9.26z" fill="#3a414a"/><path d="M881.9 420l-16.26 5.3v-10.6zm-15.3 3.98l12.24-3.98-12.25-3.98z" stroke="#3a414a" stroke-width=".05" fill="#3a414a"/><use xlink:href="#i" transform="matrix(1,0,0,1,827.7734375,409.2447916666667) translate(0 17.22222222222222)"/><path d="M955.2 363.6a8 8 0 0 1 9.6 0l70.4 52.8a4.5 4.5 0 0 1 0 7.2l-70.4 52.8a8 8 0 0 1-9.6 0l-70.4-52.8a4.5 4.5 0 0 1 0-7.2z" stroke="#3a414a" stroke-width="2" fill="#fff"/><use xlink:href="#o" transform="matrix(1,0,0,1,885,365) translate(32.387812499999995 61.90972222222222)"/><use xlink:href="#p" transform="matrix(1,0,0,1,885,365) translate(83.76802083333334 61.90972222222222)"/><path d="M955.2 603.6a8 8 0 0 1 9.6 0l70.4 52.8a4.5 4.5 0 0 1 0 7.2l-70.4 52.8a8 8 0 0 1-9.6 0l-70.4-52.8a4.5 4.5 0 0 1 0-7.2z" stroke="#3a414a" stroke-width="2" fill="#fff"/><use xlink:href="#j" transform="matrix(1,0,0,1,885,605) translate(41.879999999999995 41.28472222222222)"/><use xlink:href="#k" transform="matrix(1,0,0,1,885,605) translate(77.31402777777777 41.28472222222222)"/><use xlink:href="#l" transform="matrix(1,0,0,1,885,605) translate(38.746319444444445 62.795138888888886)"/><use xlink:href="#m" transform="matrix(1,0,0,1,885,605) translate(90.77756944444445 62.795138888888886)"/><use xlink:href="#n" transform="matrix(1,0,0,1,885,605) translate(46.73677083333333 84.30555555555554)"/><path d="M960 479.5v105.1" stroke="#3a414a" fill="none"/><path d="M960 479l.48-.03v.54h-.96V479z" stroke="#3a414a" stroke-width=".05" fill="#3a414a"/><path d="M960 599.38l-4.63-14.27h9.26z" stroke="#3a414a" fill="#3a414a"/><path d="M480.48 874.98l.06.88.2.85.34.8.45.75.56.66.65.57.74.45.8.33.84.2.88.07h282.75v.96h-282.8l-.98-.08-1-.24-.94-.4-.87-.52-.78-.66-.66-.77-.53-.86-.4-.94-.23-1-.08-.98v-17.64h.96zm480 .04l-.08 1-.24.98-.4.94-.52.87-.66.78-.77.66-.86.53-.94.4-1 .23-.98.08h-160.8v-.96H954l.88-.06.85-.2.8-.34.75-.45.66-.56.57-.65.45-.74.33-.8.2-.84.07-.88V719.5h.96z" stroke="#3a414a" stroke-width=".05" fill="#3a414a"/><path d="M960 719l.48-.03v.54h-.96V719z" fill="#3a414a"/><path stroke="#3a414a" stroke-width=".05" fill="#3a414a"/><path d="M484.63 856.88h-9.26l4.63-14.26z" fill="#3a414a"/><path d="M485.3 857.36h-10.6l5.3-16.28zm-9.28-.95h7.96L480 844.16z" stroke="#3a414a" stroke-width=".05" fill="#3a414a"/><use xlink:href="#i" transform="matrix(1,0,0,1,768.7724106547934,870.2447916666666) translate(0 17.22222222222222)"/><path d="M1380 220c22.1 0 40 17.9 40 40s-17.9 40-40 40h-80c-22.1 0-40-17.9-40-40s17.9-40 40-40z" stroke="#3a414a" stroke-width="2" fill="#fff"/><use xlink:href="#a" transform="matrix(1,0,0,1,1265,225) translate(32.25260416666667 41.28472222222222)"/><use xlink:href="#q" transform="matrix(1,0,0,1,1265,225) translate(77.33072916666667 41.28472222222222)"/><path d="M1340 301.5v43.1" stroke="#3a414a" fill="none"/><path d="M1340.47 301.5h-.94v-.5h.94z" stroke="#3a414a" stroke-width=".05" fill="#3a414a"/><path d="M1340 359.38l-4.63-14.27h9.27z" stroke="#3a414a" fill="#3a414a"/><path d="M1335.2 363.6a8 8 0 0 1 9.6 0l70.4 52.8a4.5 4.5 0 0 1 0 7.2l-70.4 52.8a8 8 0 0 1-9.6 0l-70.4-52.8a4.5 4.5 0 0 1 0-7.2z" stroke="#3a414a" stroke-width="2" fill="#fff"/><use xlink:href="#j" transform="matrix(1,0,0,1,1265,365) translate(41.879999999999995 41.28472222222222)"/><use xlink:href="#k" transform="matrix(1,0,0,1,1265,365) translate(77.31402777777777 41.28472222222222)"/><use xlink:href="#l" transform="matrix(1,0,0,1,1265,365) translate(38.746319444444445 62.795138888888886)"/><use xlink:href="#m" transform="matrix(1,0,0,1,1265,365) translate(90.77756944444445 62.795138888888886)"/><use xlink:href="#n" transform="matrix(1,0,0,1,1265,365) translate(46.73677083333333 84.30555555555554)"/><path d="M1442.62 617.53v.95h-86.82v-.95zm-102.14-20.28h-.95V479.5h.94z" stroke="#3a414a" stroke-width=".05" fill="#3a414a"/><path d="M1340 479l.47-.03v.54h-.94V479z" fill="#3a414a"/><path stroke="#3a414a" stroke-width=".05" fill="#3a414a"/><path d="M1457.38 618l-14.26 4.64v-9.27z" fill="#3a414a"/><path d="M1458.92 618l-16.28 5.3v-10.6zm-15.33 3.98l12.25-3.98-12.26-3.98z" stroke="#3a414a" stroke-width=".05" fill="#3a414a"/><use xlink:href="#e" transform="matrix(1,0,0,1,1324.201388888889,597.2468935071736) translate(0 17.22222222222222)"/><path d="M1580 760c22.1 0 40 17.9 40 40s-17.9 40-40 40h-80c-22.1 0-40-17.9-40-40s17.9-40 40-40z" stroke="#3a414a" stroke-width="2" fill="#fff"/><use xlink:href="#f" transform="matrix(1,0,0,1,1465,765) translate(21.493055555555543 41.28472222222222)"/><use xlink:href="#g" transform="matrix(1,0,0,1,1465,765) translate(58.56770833333333 41.28472222222222)"/><use xlink:href="#h" transform="matrix(1,0,0,1,1465,765) translate(94.70486111111111 41.28472222222222)"/><path d="M1775.2 363.6a8 8 0 0 1 9.6 0l70.4 52.8a4.5 4.5 0 0 1 0 7.2l-70.4 52.8a8 8 0 0 1-9.6 0l-70.4-52.8a4.5 4.5 0 0 1 0-7.2z" stroke="#3a414a" stroke-width="2" fill="#fff"/><use xlink:href="#r" transform="matrix(1,0,0,1,1705,365) translate(31.710729166666663 51.59722222222222)"/><use xlink:href="#s" transform="matrix(1,0,0,1,1705,365) translate(56.93208333333334 73.10763888888889)"/><path d="M1775.2 563.6a8 8 0 0 1 9.6 0l70.4 52.8a4.5 4.5 0 0 1 0 7.2l-70.4 52.8a8 8 0 0 1-9.6 0l-70.4-52.8a4.5 4.5 0 0 1 0-7.2z" stroke="#3a414a" stroke-width="2" fill="#fff"/><use xlink:href="#j" transform="matrix(1,0,0,1,1705,565) translate(41.879999999999995 41.28472222222222)"/><use xlink:href="#k" transform="matrix(1,0,0,1,1705,565) translate(77.31402777777777 41.28472222222222)"/><use xlink:href="#l" transform="matrix(1,0,0,1,1705,565) translate(38.746319444444445 62.795138888888886)"/><use xlink:href="#m" transform="matrix(1,0,0,1,1705,565) translate(90.77756944444445 62.795138888888886)"/><use xlink:href="#n" transform="matrix(1,0,0,1,1705,565) translate(46.73677083333333 84.30555555555554)"/><path d="M1547.77 420.48H1418.5v-.96h129.27zm137.84 0h-113.37v-.96h113.38z" stroke="#3a414a" stroke-width=".05" fill="#3a414a"/><path d="M1418.52 420.48h-.56l.04-.48-.04-.48h.56z" fill="#3a414a"/><path stroke="#3a414a" stroke-width=".05" fill="#3a414a"/><path d="M1700.38 420l-14.27 4.63v-9.26z" fill="#3a414a"/><path d="M1701.9 420l-16.26 5.3v-10.6zm-15.3 3.98l12.24-3.98-12.25-3.98z" stroke="#3a414a" stroke-width=".05" fill="#3a414a"/><use xlink:href="#i" transform="matrix(1,0,0,1,1547.7734375,409.2447916666667) translate(0 17.22222222222222)"/><path d="M1780 479.5v65.1" stroke="#3a414a" fill="none"/><path d="M1780 479l.47-.03v.54h-.94V479z" stroke="#3a414a" stroke-width=".05" fill="#3a414a"/><path d="M1780 559.38l-4.63-14.27h9.27z" stroke="#3a414a" fill="#3a414a"/><path d="M640 606a6 6 0 0 1 6-6h148a6 6 0 0 1 6 6v108a6 6 0 0 1-6 6H646a6 6 0 0 1-6-6z" stroke="#3a414a" stroke-width="2" fill="#fff"/><use xlink:href="#t" transform="matrix(1,0,0,1,652,612) translate(21.502604166666664 44.22222222222222)"/><use xlink:href="#u" transform="matrix(1,0,0,1,652,612) translate(83.36024305555556 44.22222222222222)"/><use xlink:href="#v" transform="matrix(1,0,0,1,652,612) translate(3.0434027777777715 65.73263888888889)"/><use xlink:href="#w" transform="matrix(1,0,0,1,652,612) translate(53.03472222222222 65.73263888888889)"/><use xlink:href="#x" transform="matrix(1,0,0,1,652,612) translate(65.265625 65.73263888888889)"/><path d="M825.7 660.48h-8.32v-.96h8.32zm55.8 0h-24.2v-.96h24.2z" stroke="#3a414a" stroke-width=".05" fill="#3a414a"/><path d="M882 660l.04.48h-.56v-.96h.56z" fill="#3a414a"/><path stroke="#3a414a" stroke-width=".05" fill="#3a414a"/><path d="M816.88 664.63L802.62 660l14.26-4.63z" fill="#3a414a"/><path d="M817.36 665.3l-16.28-5.3 16.28-5.3zm-13.2-5.3l12.25 3.98v-7.96z" stroke="#3a414a" stroke-width=".05" fill="#3a414a"/><g><use xlink:href="#e" transform="matrix(1,0,0,1,825.6992274217578,649.2447916666666) translate(0 17.22222222222222)"/></g><path d="M720.48 582.62h-.96v-32.86h.96zm0-54.37h-.96V479.5h.96z" stroke="#3a414a" stroke-width=".05" fill="#3a414a"/><path d="M720 479l.48-.03v.54h-.96V479z" fill="#3a414a"/><path stroke="#3a414a" stroke-width=".05" fill="#3a414a"/><path d="M720 597.38l-4.63-14.26h9.26z" fill="#3a414a"/><path d="M720 598.92l-5.3-16.28h10.6zm-3.98-15.33l3.98 12.25 3.98-12.26z" stroke="#3a414a" stroke-width=".05" fill="#3a414a"/><g><use xlink:href="#e" transform="matrix(1,0,0,1,704.2013888888889,528.2458435118731) translate(0 17.22222222222222)"/></g><path d="M720 721.5V794a6 6 0 0 1-6 6H577.38" stroke="#3a414a" fill="none"/><path d="M720.48 721.5h-.96v-.5h.96z" stroke="#3a414a" stroke-width=".05" fill="#3a414a"/><path d="M562.62 800l14.26-4.63v9.26z" stroke="#3a414a" fill="#3a414a"/><path d="M1460 566a6 6 0 0 1 6-6h148a6 6 0 0 1 6 6v108a6 6 0 0 1-6 6h-148a6 6 0 0 1-6-6z" stroke="#3a414a" stroke-width="2" fill="#fff"/><g><use xlink:href="#t" transform="matrix(1,0,0,1,1472,572) translate(6.993055555555557 32.22222222222222)"/><use xlink:href="#y" transform="matrix(1,0,0,1,1472,572) translate(68.85069444444446 32.22222222222222)"/><use xlink:href="#z" transform="matrix(1,0,0,1,1472,572) translate(114.19791666666667 32.22222222222222)"/><use xlink:href="#A" transform="matrix(1,0,0,1,1472,572) translate(12.665798611111114 53.732638888888886)"/><use xlink:href="#v" transform="matrix(1,0,0,1,1472,572) translate(66.11197916666667 53.732638888888886)"/><use xlink:href="#B" transform="matrix(1,0,0,1,1472,572) translate(116.10329861111111 53.732638888888886)"/><use xlink:href="#x" transform="matrix(1,0,0,1,1472,572) translate(34.154513888888886 75.24305555555554)"/></g><path d="M1645.7 620.48h-8.32v-.96h8.32zm55.8 0h-24.2v-.96h24.2z" stroke="#3a414a" stroke-width=".05" fill="#3a414a"/><path d="M1702 620l.04.48h-.56v-.96h.56z" fill="#3a414a"/><path stroke="#3a414a" stroke-width=".05" fill="#3a414a"/><path d="M1636.88 624.63l-14.26-4.63 14.26-4.63z" fill="#3a414a"/><path d="M1637.36 625.3l-16.28-5.3 16.28-5.3zm-13.2-5.3l12.25 3.98v-7.96z" stroke="#3a414a" stroke-width=".05" fill="#3a414a"/><g><use xlink:href="#e" transform="matrix(1,0,0,1,1645.699227421758,609.2447916666666) translate(0 17.22222222222222)"/></g><path d="M1540 681.5v61.12" stroke="#3a414a" fill="none"/><path d="M1540.47 681.5h-.94v-.5h.94z" stroke="#3a414a" stroke-width=".05" fill="#3a414a"/><path d="M1540 757.38l-4.63-14.26h9.27z" stroke="#3a414a" fill="#3a414a"/><path d="M1748.77 800.48H1637.4l-.02-.96h111.4zm31.7-6.46l-.07 1-.24.98-.4.94-.52.87-.66.78-.77.66-.86.53-.94.4-1 .23-.98.08h-.8v-.96h.76l.88-.06.85-.2.8-.34.75-.45.66-.56.57-.65.45-.74.33-.8.2-.84.08-.88V679.5h.94z" stroke="#3a414a" stroke-width=".05" fill="#3a414a"/><path d="M1780 679l.47-.03v.54h-.94V679z" fill="#3a414a"/><path stroke="#3a414a" stroke-width=".05" fill="#3a414a"/><path d="M1636.88 804.63l-14.26-4.63 14.27-4.63z" fill="#3a414a"/><path d="M1637.36 805.3l-16.28-5.3 16.28-5.3zm-13.2-5.3l12.25 3.98v-7.96z" stroke="#3a414a" stroke-width=".05" fill="#3a414a"/><g><use xlink:href="#i" transform="matrix(1,0,0,1,1748.7727225146377,789.2447916666666) translate(0 17.22222222222222)"/></g><defs><path d="M657 26c-323 0-524-166-541-416h195c15 169 171 246 346 246 202 0 356-106 356-265 5-203-294-238-475-293-239-73-380-191-380-389 0-252 224-419 512-419 294 0 499 171 508 396H992c-17-145-151-228-328-228-193 0-321 102-321 242 0 156 175 211 284 241l149 41c160 44 422 134 422 412 0 244-197 432-541 432" id="C"/><path d="M598-1118v154H368v674c0 100 37 144 132 144 23 0 62-6 92-12L629-6c-37 13-88 20-134 20-193 0-307-107-307-290v-688H20v-154h168v-266h180v266h230" id="D"/><path d="M471 26C259 26 90-98 90-318c0-256 228-303 435-329 202-27 287-16 287-108 0-139-79-219-234-219-161 0-248 86-283 164l-173-57c86-203 278-265 451-265 150 0 419 46 419 395V0H815v-152h-12C765-73 660 26 471 26zm31-159c199 0 310-134 310-271v-155c-30 35-226 55-295 64-131 17-246 59-246 186 0 116 97 176 231 176" id="E"/><path d="M158 0v-1118h174v172h12c41-113 157-188 290-188 26 0 70 2 91 3v181c-11-2-60-10-108-10-161 0-279 109-279 260V0H158" id="F"/><g id="a"><use transform="matrix(0.008680555555555556,0,0,0.008680555555555556,0,0)" xlink:href="#C"/><use transform="matrix(0.008680555555555556,0,0,0.008680555555555556,11.40625,0)" xlink:href="#D"/><use transform="matrix(0.008680555555555556,0,0,0.008680555555555556,17.30902777777778,0)" xlink:href="#E"/><use transform="matrix(0.008680555555555556,0,0,0.008680555555555556,27.291666666666668,0)" xlink:href="#F"/><use transform="matrix(0.008680555555555556,0,0,0.008680555555555556,34.26215277777778,0)" xlink:href="#D"/></g><path d="M180 0v-1490h908v168H370v486h669v168H370v500h727V0H180" id="G"/><path d="M338-670V0H158v-1118h173l1 207c72-158 192-221 342-221 226 0 378 139 378 422V0H872v-695c0-172-96-275-252-275-161 0-282 109-282 300" id="H"/><path d="M611 442c-248 0-391-105-460-228l146-94c47 65 117 165 314 165 178 0 307-82 307-266v-224h-17C863-141 792-18 576-18c-268 0-472-195-472-546 0-346 197-568 476-568 216 0 288 133 326 193h17v-179h175V29c0 289-215 413-487 413zm-5-620c203 0 314-146 314-390 0-237-108-403-314-403-213 0-319 180-319 403 0 230 109 390 319 390" id="I"/><path d="M158 0v-1118h180V0H158zm91-1301c-68 0-125-53-125-119s57-119 125-119c69 0 126 53 126 119s-57 119-126 119" id="J"/><path d="M628 24c-324 0-524-230-524-574 0-343 198-582 503-582 237 0 487 146 487 559v75H286c9 234 145 362 343 362 132 0 231-58 273-172l174 48C1024-91 857 24 628 24zM287-650h624c-17-190-120-322-304-322-192 0-309 151-320 322" id="K"/><g id="b"><use transform="matrix(0.008680555555555556,0,0,0.008680555555555556,0,0)" xlink:href="#G"/><use transform="matrix(0.008680555555555556,0,0,0.008680555555555556,10.68576388888889,0)" xlink:href="#H"/><use transform="matrix(0.008680555555555556,0,0,0.008680555555555556,21.189236111111114,0)" xlink:href="#I"/><use transform="matrix(0.008680555555555556,0,0,0.008680555555555556,32.09201388888889,0)" xlink:href="#J"/><use transform="matrix(0.008680555555555556,0,0,0.008680555555555556,36.39756944444444,0)" xlink:href="#H"/><use transform="matrix(0.008680555555555556,0,0,0.008680555555555556,46.90104166666667,0)" xlink:href="#K"/><use transform="matrix(0.008680555555555556,0,0,0.008680555555555556,57.26562500000001,0)" xlink:href="#K"/><use transform="matrix(0.008680555555555556,0,0,0.008680555555555556,67.63020833333334,0)" xlink:href="#F"/></g><path d="M180 0v-1490h510c348 0 508 194 508 460 0 198-88 351-276 417L1256 0h-220L726-579c-117 2-238 0-356 1V0H180zm190-747h312c235 0 327-108 327-283 0-177-92-293-329-293H370v576" id="L"/><path d="M158 418v-1536h174v179h20c37-59 106-193 324-193 279 0 474 222 474 576 0 356-194 580-473 580-213 0-288-135-325-197h-14v591H158zm492-555c209 0 317-186 317-421 0-232-105-413-317-413-206 0-314 166-314 413 0 249 111 421 314 421" id="M"/><g id="c"><use transform="matrix(0.008680555555555556,0,0,0.008680555555555556,0,0)" xlink:href="#L"/><use transform="matrix(0.008680555555555556,0,0,0.008680555555555556,11.180555555555559,0)" xlink:href="#K"/><use transform="matrix(0.008680555555555556,0,0,0.008680555555555556,21.545138888888893,0)" xlink:href="#M"/><use transform="matrix(0.008680555555555556,0,0,0.008680555555555556,32.60416666666667,0)" xlink:href="#E"/><use transform="matrix(0.008680555555555556,0,0,0.008680555555555556,42.58680555555556,0)" xlink:href="#J"/><use transform="matrix(0.008680555555555556,0,0,0.008680555555555556,46.892361111111114,0)" xlink:href="#F"/></g><path d="M98-1322v-168h1126v168H757V0H567v-1322H98" id="N"/><path d="M158 0v-1490h180v865h22l478-493h223L593-638 1096 0H865L456-523 338-412V0H158" id="O"/><path d="M383-449c-3-277 82-343 222-425 88-53 156-134 156-250 0-139-108-227-243-227-118 0-235 70-246 236H82c10-251 200-395 436-395 259 0 427 165 427 393 0 161-74 273-203 352-132 80-180 132-178 316H383zm93 462c-75 0-135-60-135-134 0-75 60-135 135-135 74 0 134 60 134 135 0 74-60 134-134 134" id="P"/><g id="d"><use transform="matrix(0.008680555555555556,0,0,0.008680555555555556,0,0)" xlink:href="#N"/><use transform="matrix(0.008680555555555556,0,0,0.008680555555555556,10.17361111111111,0)" xlink:href="#E"/><use transform="matrix(0.008680555555555556,0,0,0.008680555555555556,20.15625,0)" xlink:href="#H"/><use transform="matrix(0.008680555555555556,0,0,0.008680555555555556,30.659722222222218,0)" xlink:href="#O"/><use transform="matrix(0.008680555555555556,0,0,0.008680555555555556,40.41666666666666,0)" xlink:href="#P"/></g><path fill="#333" d="M601 0v-560L49-1490h357l252 464c38 68 67 130 97 208 96-243 225-446 337-672h356L905-560V0H601" id="Q"/><path fill="#333" d="M633 22C291 22 81-200 81-553c0-345 210-579 537-579 292 0 525 185 525 567v84H378c7 183 109 277 260 277 105 0 184-46 216-132l272 51C1071-99 893 22 633 22zM380-669h474c-15-146-94-237-233-237-143 0-229 99-241 237" id="R"/><path fill="#333" d="M572 22C302 22 117-98 78-306l279-48c29 105 101 156 224 156 114 0 185-48 185-115 0-118-228-130-337-155-215-49-322-150-322-317 0-215 187-347 470-347 265 0 424 116 466 298l-266 47c-24-76-87-130-196-130-98 0-174 46-174 113 0 56 38 95 144 117l201 40c216 44 320 143 320 302 0 220-207 367-500 367" id="S"/><g id="e"><use transform="matrix(0.008680555555555556,0,0,0.008680555555555556,0,0)" xlink:href="#Q"/><use transform="matrix(0.008680555555555556,0,0,0.008680555555555556,11.050347222222223,0)" xlink:href="#R"/><use transform="matrix(0.008680555555555556,0,0,0.008680555555555556,21.640625,0)" xlink:href="#S"/></g><path d="M577 24c-279 0-473-224-473-580 0-354 195-576 474-576 218 0 287 134 324 193h14v-551h180V0H922v-173h-20C865-111 790 24 577 24zm27-161c203 0 314-172 314-421 0-247-108-413-314-413-212 0-317 181-317 413 0 235 108 421 317 421" id="T"/><g id="f"><use transform="matrix(0.008680555555555556,0,0,0.008680555555555556,0,0)" xlink:href="#G"/><use transform="matrix(0.008680555555555556,0,0,0.008680555555555556,10.68576388888889,0)" xlink:href="#H"/><use transform="matrix(0.008680555555555556,0,0,0.008680555555555556,21.189236111111114,0)" xlink:href="#T"/></g><path d="M537 14c-226 0-379-139-379-422v-710h180v695c0 172 97 275 253 275 160 0 281-109 281-300v-670h181V0H879v-209C806-46 684 14 537 14" id="U"/><g id="g"><use transform="matrix(0.008680555555555556,0,0,0.008680555555555556,0,0)" xlink:href="#U"/><use transform="matrix(0.008680555555555556,0,0,0.008680555555555556,10.512152777777779,0)" xlink:href="#H"/><use transform="matrix(0.008680555555555556,0,0,0.008680555555555556,21.015625,0)" xlink:href="#J"/><use transform="matrix(0.008680555555555556,0,0,0.008680555555555556,25.321180555555557,0)" xlink:href="#D"/></g><g id="h"><use transform="matrix(0.008680555555555556,0,0,0.008680555555555556,0,0)" xlink:href="#D"/><use transform="matrix(0.008680555555555556,0,0,0.008680555555555556,5.815972222222222,0)" xlink:href="#U"/><use transform="matrix(0.008680555555555556,0,0,0.008680555555555556,16.328125,0)" xlink:href="#F"/><use transform="matrix(0.008680555555555556,0,0,0.008680555555555556,23.298611111111118,0)" xlink:href="#H"/></g><path fill="#333" d="M135 0v-1490h340l471 754c59 97 122 210 187 365-32-387-14-721-19-1119h312V0h-341C855-382 627-689 427-1113c32 420 16 695 20 1113H135" id="V"/><path fill="#333" d="M628 22C291 22 81-210 81-554c0-346 210-578 547-578 336 0 547 232 547 578 0 344-211 576-547 576zm0-236c160 0 242-146 242-341 0-197-82-341-242-341S387-753 387-555c0 195 81 341 241 341" id="W"/><g id="i"><use transform="matrix(0.008680555555555556,0,0,0.008680555555555556,0,0)" xlink:href="#V"/><use transform="matrix(0.008680555555555556,0,0,0.008680555555555556,13.550347222222223,0)" xlink:href="#W"/></g><path d="M458 0L52-1490h194c108 439 233 855 324 1313 92-459 221-873 331-1313h216c110 438 234 854 330 1307 92-455 216-869 323-1307h196L1558 0h-221l-256-944c-26-95-50-200-73-331-22 122-44 223-73 331L680 0H458" id="X"/><path d="M338-1490V0H158v-1490h180" id="Y"/><g id="j"><use transform="matrix(0.008680555555555556,0,0,0.008680555555555556,0,0)" xlink:href="#X"/><use transform="matrix(0.008680555555555556,0,0,0.008680555555555556,17.51736111111111,0)" xlink:href="#J"/><use transform="matrix(0.008680555555555556,0,0,0.008680555555555556,21.822916666666664,0)" xlink:href="#Y"/><use transform="matrix(0.008680555555555556,0,0,0.008680555555555556,26.128472222222225,0)" xlink:href="#Y"/></g><path d="M140 405l46-156c120 36 205 19 263-150l32-93L54-1118h197c107 313 237 620 324 950 87-331 219-637 326-950h196L606 167c-68 178-176 259-334 259-64 0-113-12-132-21" id="Z"/><path d="M613 24c-304 0-509-231-509-576 0-350 205-580 509-580 305 0 511 230 511 580 0 345-206 576-511 576zm0-161c226 0 329-195 329-415 0-222-103-419-329-419-223 0-326 196-326 419 0 220 103 415 326 415" id="aa"/><g id="k"><use transform="matrix(0.008680555555555556,0,0,0.008680555555555556,0,0)" xlink:href="#Z"/><use transform="matrix(0.008680555555555556,0,0,0.008680555555555556,9.644097222222223,0)" xlink:href="#aa"/><use transform="matrix(0.008680555555555556,0,0,0.008680555555555556,20.303819444444446,0)" xlink:href="#U"/></g><path d="M538 24C308 24 148-78 108-271l171-41c32 123 123 178 257 178 156 0 256-77 256-169 0-77-54-128-164-154l-186-44c-203-48-300-148-300-305 0-192 176-326 414-326 230 0 351 112 402 269l-163 42c-31-80-94-158-238-158-133 0-233 69-233 162 0 83 57 129 188 160l169 40c203 48 298 149 298 302 0 196-179 339-441 339" id="ab"/><path d="M338-670V0H158v-1490h180v566c73-149 190-208 336-208 226 0 379 139 379 422V0H872v-695c0-172-96-275-252-275-161 0-282 109-282 300" id="ac"/><g id="l"><use transform="matrix(0.008680555555555556,0,0,0.008680555555555556,0,0)" xlink:href="#ab"/><use transform="matrix(0.008680555555555556,0,0,0.008680555555555556,9.383680555555555,0)" xlink:href="#ac"/><use transform="matrix(0.008680555555555556,0,0,0.008680555555555556,19.895833333333336,0)" xlink:href="#aa"/><use transform="matrix(0.008680555555555556,0,0,0.008680555555555556,30.555555555555557,0)" xlink:href="#aa"/><use transform="matrix(0.008680555555555556,0,0,0.008680555555555556,41.21527777777778,0)" xlink:href="#D"/></g><g id="m"><use transform="matrix(0.008680555555555556,0,0,0.008680555555555556,0,0)" xlink:href="#E"/><use transform="matrix(0.008680555555555556,0,0,0.008680555555555556,9.98263888888889,0)" xlink:href="#H"/></g><path d="M158 0v-1118h175l1 205c55-151 181-225 313-225 147 0 245 90 285 228 53-141 190-228 352-228 194 0 352 125 352 384V0h-181v-749c0-161-105-225-225-225-151 0-243 103-243 244V0H807v-767c0-124-93-207-219-207-131 0-250 92-250 270V0H158" id="ad"/><g id="n"><use transform="matrix(0.008680555555555556,0,0,0.008680555555555556,0,0)" xlink:href="#K"/><use transform="matrix(0.008680555555555556,0,0,0.008680555555555556,10.364583333333334,0)" xlink:href="#H"/><use transform="matrix(0.008680555555555556,0,0,0.008680555555555556,20.868055555555557,0)" xlink:href="#K"/><use transform="matrix(0.008680555555555556,0,0,0.008680555555555556,31.232638888888893,0)" xlink:href="#ad"/><use transform="matrix(0.008680555555555556,0,0,0.008680555555555556,46.54513888888889,0)" xlink:href="#Z"/></g><path d="M180 0v-1490h270l367 940c28 72 75 218 110 339 35-117 81-264 110-339l362-940h271V0h-187c2-448-5-837 7-1287-157 497-311 829-483 1287H842C666-458 514-784 354-1284c12 438 5 843 7 1284H180" id="ae"/><path d="M481 0L54-1118h197c107 314 236 620 325 951 87-331 217-637 324-951h197L670 0H481" id="af"/><g id="o"><use transform="matrix(0.008680555555555556,0,0,0.008680555555555556,0,0)" xlink:href="#ae"/><use transform="matrix(0.008680555555555556,0,0,0.008680555555555556,16.05902777777778,0)" xlink:href="#aa"/><use transform="matrix(0.008680555555555556,0,0,0.008680555555555556,26.37152777777778,0)" xlink:href="#af"/><use transform="matrix(0.008680555555555556,0,0,0.008680555555555556,36.015625,0)" xlink:href="#K"/></g><path d="M763 24c-353 0-583-224-583-531v-983h190v968c0 214 149 370 393 370 243 0 391-156 391-370v-968h190v983c0 307-230 531-581 531" id="ag"/><g id="p"><use transform="matrix(0.008680555555555556,0,0,0.008680555555555556,0,0)" xlink:href="#ag"/><use transform="matrix(0.008680555555555556,0,0,0.008680555555555556,13.229166666666668,0)" xlink:href="#H"/><use transform="matrix(0.008680555555555556,0,0,0.008680555555555556,23.732638888888893,0)" xlink:href="#J"/><use transform="matrix(0.008680555555555556,0,0,0.008680555555555556,28.03819444444445,0)" xlink:href="#D"/></g><g id="q"><use transform="matrix(0.008680555555555556,0,0,0.008680555555555556,0,0)" xlink:href="#N"/><use transform="matrix(0.008680555555555556,0,0,0.008680555555555556,10.17361111111111,0)" xlink:href="#E"/><use transform="matrix(0.008680555555555556,0,0,0.008680555555555556,20.15625,0)" xlink:href="#H"/><use transform="matrix(0.008680555555555556,0,0,0.008680555555555556,30.659722222222218,0)" xlink:href="#O"/></g><path d="M692-1560L212 224H46l480-1784h166" id="ah"/><g id="r"><use transform="matrix(0.008680555555555556,0,0,0.008680555555555556,0,0)" xlink:href="#ae"/><use transform="matrix(0.008680555555555556,0,0,0.008680555555555556,16.05902777777778,0)" xlink:href="#aa"/><use transform="matrix(0.008680555555555556,0,0,0.008680555555555556,26.37152777777778,0)" xlink:href="#af"/><use transform="matrix(0.008680555555555556,0,0,0.008680555555555556,36.015625,0)" xlink:href="#K"/><use transform="matrix(0.008680555555555556,0,0,0.008680555555555556,46.380208333333336,0)" xlink:href="#ah"/><use transform="matrix(0.008680555555555556,0,0,0.008680555555555556,52.786458333333336,0)" xlink:href="#D"/><use transform="matrix(0.008680555555555556,0,0,0.008680555555555556,58.60243055555556,0)" xlink:href="#U"/><use transform="matrix(0.008680555555555556,0,0,0.008680555555555556,69.11458333333334,0)" xlink:href="#F"/><use transform="matrix(0.008680555555555556,0,0,0.008680555555555556,76.08506944444444,0)" xlink:href="#H"/></g><g id="s"><use transform="matrix(0.008680555555555556,0,0,0.008680555555555556,0,0)" xlink:href="#D"/><use transform="matrix(0.008680555555555556,0,0,0.008680555555555556,5.902777777777778,0)" xlink:href="#E"/><use transform="matrix(0.008680555555555556,0,0,0.008680555555555556,15.885416666666668,0)" xlink:href="#H"/><use transform="matrix(0.008680555555555556,0,0,0.008680555555555556,26.388888888888893,0)" xlink:href="#O"/></g><g id="t"><use transform="matrix(0.008680555555555556,0,0,0.008680555555555556,0,0)" xlink:href="#G"/><use transform="matrix(0.008680555555555556,0,0,0.008680555555555556,10.68576388888889,0)" xlink:href="#H"/><use transform="matrix(0.008680555555555556,0,0,0.008680555555555556,21.189236111111114,0)" xlink:href="#K"/><use transform="matrix(0.008680555555555556,0,0,0.008680555555555556,31.55381944444445,0)" xlink:href="#ad"/><use transform="matrix(0.008680555555555556,0,0,0.008680555555555556,46.86631944444445,0)" xlink:href="#Z"/></g><g id="u"><use transform="matrix(0.008680555555555556,0,0,0.008680555555555556,0,0)" xlink:href="#U"/><use transform="matrix(0.008680555555555556,0,0,0.008680555555555556,10.512152777777779,0)" xlink:href="#H"/><use transform="matrix(0.008680555555555556,0,0,0.008680555555555556,21.015625,0)" xlink:href="#J"/><use transform="matrix(0.008680555555555556,0,0,0.008680555555555556,25.321180555555557,0)" xlink:href="#D"/></g><g id="v"><use transform="matrix(0.008680555555555556,0,0,0.008680555555555556,0,0)" xlink:href="#D"/><use transform="matrix(0.008680555555555556,0,0,0.008680555555555556,5.902777777777778,0)" xlink:href="#E"/><use transform="matrix(0.008680555555555556,0,0,0.008680555555555556,15.885416666666668,0)" xlink:href="#O"/><use transform="matrix(0.008680555555555556,0,0,0.008680555555555556,25.243055555555557,0)" xlink:href="#K"/><use transform="matrix(0.008680555555555556,0,0,0.008680555555555556,35.60763888888889,0)" xlink:href="#ab"/></g><path d="M653-1490V0H466v-1314h-10L96-1047v-204l324-239h233" id="ai"/><use transform="matrix(0.008680555555555556,0,0,0.008680555555555556,0,0)" xlink:href="#ai" id="w"/><g id="x"><use transform="matrix(0.008680555555555556,0,0,0.008680555555555556,0,0)" xlink:href="#T"/><use transform="matrix(0.008680555555555556,0,0,0.008680555555555556,10.885416666666668,0)" xlink:href="#E"/><use transform="matrix(0.008680555555555556,0,0,0.008680555555555556,20.868055555555557,0)" xlink:href="#ad"/><use transform="matrix(0.008680555555555556,0,0,0.008680555555555556,36.44097222222223,0)" xlink:href="#E"/><use transform="matrix(0.008680555555555556,0,0,0.008680555555555556,46.423611111111114,0)" xlink:href="#I"/><use transform="matrix(0.008680555555555556,0,0,0.008680555555555556,57.32638888888889,0)" xlink:href="#K"/></g><g id="y"><use transform="matrix(0.008680555555555556,0,0,0.008680555555555556,0,0)" xlink:href="#U"/><use transform="matrix(0.008680555555555556,0,0,0.008680555555555556,10.512152777777779,0)" xlink:href="#H"/><use transform="matrix(0.008680555555555556,0,0,0.008680555555555556,21.015625,0)" xlink:href="#J"/><use transform="matrix(0.008680555555555556,0,0,0.008680555555555556,25.321180555555557,0)" xlink:href="#D"/><use transform="matrix(0.008680555555555556,0,0,0.008680555555555556,30.963541666666668,0)" xlink:href="#ab"/></g><g id="z"><use transform="matrix(0.008680555555555556,0,0,0.008680555555555556,0,0)" xlink:href="#J"/><use transform="matrix(0.008680555555555556,0,0,0.008680555555555556,4.305555555555555,0)" xlink:href="#H"/></g><g id="A"><use transform="matrix(0.008680555555555556,0,0,0.008680555555555556,0,0)" xlink:href="#F"/><use transform="matrix(0.008680555555555556,0,0,0.008680555555555556,6.692708333333334,0)" xlink:href="#E"/><use transform="matrix(0.008680555555555556,0,0,0.008680555555555556,16.67534722222222,0)" xlink:href="#H"/><use transform="matrix(0.008680555555555556,0,0,0.008680555555555556,27.178819444444443,0)" xlink:href="#I"/><use transform="matrix(0.008680555555555556,0,0,0.008680555555555556,38.08159722222222,0)" xlink:href="#K"/></g><use transform="matrix(0.008680555555555556,0,0,0.008680555555555556,0,0)" xlink:href="#ai" id="B"/></defs></g></svg>