<svg xmlns="http://www.w3.org/2000/svg" xmlns:xlink="http://www.w3.org/1999/xlink" xmlns:lucid="lucid" width="1544.23" height="1802"><g transform="translate(-1139 -739)" lucid:page-tab-id="0_0"><path d="M1260 740c22.1 0 40 17.9 40 40s-17.9 40-40 40h-80c-22.1 0-40-17.9-40-40s17.9-40 40-40z" stroke="#3a414a" stroke-width="2" fill="#fff"/><use xlink:href="#a" transform="matrix(1,0,0,1,1145,745) translate(54.9609375 41.28472222222222)"/><path d="M1140 1086a6 6 0 0 1 6-6h148a6 6 0 0 1 6 6v108a6 6 0 0 1-6 6h-148a6 6 0 0 1-6-6z" stroke="#3a414a" stroke-width="2" fill="#fff"/><use xlink:href="#b" transform="matrix(1,0,0,1,1145,1085) translate(5.694444444444429 41.28472222222222)"/><use xlink:href="#c" transform="matrix(1,0,0,1,1145,1085) translate(38.715277777777764 41.28472222222222)"/><use xlink:href="#d" transform="matrix(1,0,0,1,1145,1085) translate(74.53125 41.28472222222222)"/><use xlink:href="#e" transform="matrix(1,0,0,1,1145,1085) translate(1.553819444444457 62.795138888888886)"/><use xlink:href="#f" transform="matrix(1,0,0,1,1145,1085) translate(91.12847222222223 62.795138888888886)"/><use xlink:href="#g" transform="matrix(1,0,0,1,1145,1085) translate(110.9375 62.795138888888886)"/><use xlink:href="#h" transform="matrix(1,0,0,1,1145,1085) translate(14.978298611111107 84.30555555555554)"/><use xlink:href="#i" transform="matrix(1,0,0,1,1145,1085) translate(92.13107638888889 84.30555555555554)"/><path d="M1220.47 1322.62h-.94v-41.86h.94zm0-63.38h-.94v-57.74h.94z" stroke="#3a414a" stroke-width=".05" fill="#3a414a"/><path d="M1220.47 1201.5h-.94v-.5h.94z" fill="#3a414a"/><path stroke="#3a414a" stroke-width=".05" fill="#3a414a"/><path d="M1220 1337.38l-4.63-14.26h9.27z" fill="#3a414a"/><path d="M1220 1338.92l-5.3-16.28h10.6zm-3.98-15.33l3.98 12.25 3.98-12.26z" stroke="#3a414a" stroke-width=".05" fill="#3a414a"/><use xlink:href="#j" transform="matrix(1,0,0,1,1204.201388888889,1259.2447916666667) translate(0 17.22222222222222)"/><path d="M1140 1346a6 6 0 0 1 6-6h148a6 6 0 0 1 6 6v108a6 6 0 0 1-6 6h-148a6 6 0 0 1-6-6z" stroke="#3a414a" stroke-width="2" fill="#fff"/><use xlink:href="#k" transform="matrix(1,0,0,1,1152,1352) translate(28.62065972222222 32.22222222222222)"/><use xlink:href="#l" transform="matrix(1,0,0,1,1152,1352) translate(76.56336805555556 32.22222222222222)"/><use xlink:href="#m" transform="matrix(1,0,0,1,1152,1352) translate(14.714409722222221 53.732638888888886)"/><use xlink:href="#n" transform="matrix(1,0,0,1,1152,1352) translate(110.44357638888889 53.732638888888886)"/><use xlink:href="#o" transform="matrix(1,0,0,1,1152,1352) translate(14.137152777777779 75.24305555555554)"/><path d="M1220.47 1582.62h-.94v-51.8h.94zm0-73.3h-.94v-47.82h.94z" stroke="#3a414a" stroke-width=".05" fill="#3a414a"/><path d="M1220.47 1461.5h-.94v-.5h.94z" fill="#3a414a"/><path stroke="#3a414a" stroke-width=".05" fill="#3a414a"/><path d="M1220 1597.38l-4.63-14.26h9.27z" fill="#3a414a"/><path d="M1220 1598.92l-5.3-16.28h10.6zm-3.98-15.33l3.98 12.25 3.98-12.26z" stroke="#3a414a" stroke-width=".05" fill="#3a414a"/><use xlink:href="#j" transform="matrix(1,0,0,1,1204.201388888889,1509.3052431850845) translate(0 17.22222222222222)"/><path d="M1260 1600c22.1 0 40 17.9 40 40s-17.9 40-40 40h-80c-22.1 0-40-17.9-40-40s17.9-40 40-40z" stroke="#3a414a" stroke-width="2" fill="#fff"/><use xlink:href="#p" transform="matrix(1,0,0,1,1145,1605) translate(57.15711805555556 41.28472222222222)"/><path d="M1387.77 1140.47h-86.27v-.94h86.27zm94.85 0h-70.4v-.94h70.4z" stroke="#3a414a" stroke-width=".05" fill="#3a414a"/><path d="M1301.5 1140.47h-.5v-.94h.5z" fill="#3a414a"/><path stroke="#3a414a" stroke-width=".05" fill="#3a414a"/><path d="M1497.38 1140l-14.26 4.63v-9.27z" fill="#3a414a"/><path d="M1498.92 1140l-16.28 5.3v-10.6zm-15.33 3.98l12.25-3.98-12.26-3.98z" stroke="#3a414a" stroke-width=".05" fill="#3a414a"/><use xlink:href="#q" transform="matrix(1,0,0,1,1387.7734375,1129.2447916666667) translate(0 17.22222222222222)"/><path d="M1500 1086a6 6 0 0 1 6-6h148a6 6 0 0 1 6 6v108a6 6 0 0 1-6 6h-148a6 6 0 0 1-6-6z" stroke="#3a414a" stroke-width="2" fill="#fff"/><use xlink:href="#r" transform="matrix(1,0,0,1,1512,1092) translate(21.190104166666657 32.22222222222222)"/><use xlink:href="#s" transform="matrix(1,0,0,1,1512,1092) translate(56.64149305555555 32.22222222222222)"/><use xlink:href="#t" transform="matrix(1,0,0,1,1512,1092) translate(71.62413194444444 32.22222222222222)"/><use xlink:href="#u" transform="matrix(1,0,0,1,1512,1092) translate(98.5078125 32.22222222222222)"/><use xlink:href="#v" transform="matrix(1,0,0,1,1512,1092) translate(0.06597222222221433 53.732638888888886)"/><use xlink:href="#w" transform="matrix(1,0,0,1,1512,1092) translate(90.03993055555556 53.732638888888886)"/><use xlink:href="#x" transform="matrix(1,0,0,1,1512,1092) translate(44.17621527777778 75.24305555555554)"/><path d="M1405.92 1400.47H1301.5v-.94h104.42zm174.55-6.45l-.07 1-.24.98-.4.94-.52.87-.66.78-.77.66-.86.53-.94.4-1 .23-.98.07h-143.64v-.94h143.6l.88-.07.85-.2.8-.34.75-.45.66-.56.57-.65.45-.74.33-.8.2-.84.08-.88v-176.6h.94z" stroke="#3a414a" stroke-width=".05" fill="#3a414a"/><path d="M1301.5 1400.47h-.5v-.94h.5z" fill="#3a414a"/><path stroke="#3a414a" stroke-width=".05" fill="#3a414a"/><path d="M1584.63 1216.88h-9.27l4.64-14.26z" fill="#3a414a"/><path d="M1585.3 1217.36h-10.6l5.3-16.28zm-9.28-.95h7.96l-3.98-12.25z" stroke="#3a414a" stroke-width=".05" fill="#3a414a"/><use xlink:href="#q" transform="matrix(1,0,0,1,1405.9232181775867,1389.2447916666667) translate(0 17.22222222222222)"/><path d="M1661.5 1140h141.12" stroke="#3a414a" fill="none"/><path d="M1661.5 1140.47h-.5v-.94h.5z" stroke="#3a414a" stroke-width=".05" fill="#3a414a"/><path d="M1817.38 1140l-14.26 4.63v-9.27z" stroke="#3a414a" fill="#3a414a"/><path d="M1820 1086a6 6 0 0 1 6-6h148a6 6 0 0 1 6 6v108a6 6 0 0 1-6 6h-148a6 6 0 0 1-6-6z" stroke="#3a414a" stroke-width="2" fill="#fff"/><use xlink:href="#k" transform="matrix(1,0,0,1,1832,1092) translate(4.592881944444436 44.22222222222222)"/><use xlink:href="#y" transform="matrix(1,0,0,1,1832,1092) translate(52.53559027777777 44.22222222222222)"/><use xlink:href="#z" transform="matrix(1,0,0,1,1832,1092) translate(76.12934027777777 44.22222222222222)"/><use xlink:href="#A" transform="matrix(1,0,0,1,1832,1092) translate(23.86805555555555 65.73263888888889)"/><use xlink:href="#B" transform="matrix(1,0,0,1,1832,1092) translate(70.98611111111111 65.73263888888889)"/><path d="M2049.1 1140.47h-67.6v-.94h67.6zm96.47 0h-72.03v-.94h72.03z" stroke="#3a414a" stroke-width=".05" fill="#3a414a"/><path d="M1981.5 1140.47h-.5v-.94h.5z" fill="#3a414a"/><path stroke="#3a414a" stroke-width=".05" fill="#3a414a"/><path d="M2160.33 1140l-14.26 4.63v-9.27z" fill="#3a414a"/><path d="M2161.87 1140l-16.28 5.3v-10.6zm-15.33 3.98l12.26-3.98-12.26-3.98z" stroke="#3a414a" stroke-width=".05" fill="#3a414a"/><use xlink:href="#q" transform="matrix(1,0,0,1,2049.0865853691175,1129.2447916666667) translate(0 17.22222222222222)"/><path d="M2285.24 1043.66a7.8 7.8 0 0 1 9.52 0l120.48 92.68a4.62 4.62 0 0 1 0 7.32l-120.48 92.68a7.8 7.8 0 0 1-9.52 0l-120.48-92.68a4.62 4.62 0 0 1 0-7.32z" stroke="#3a414a" stroke-width="2" fill="#fff"/><use xlink:href="#C" transform="matrix(1,0,0,1,2165,1045) translate(56.7628125 76.59722222222223)"/><use xlink:href="#D" transform="matrix(1,0,0,1,2165,1045) translate(101.64128472222222 76.59722222222223)"/><use xlink:href="#E" transform="matrix(1,0,0,1,2165,1045) translate(158.06489583333334 76.59722222222223)"/><use xlink:href="#F" transform="matrix(1,0,0,1,2165,1045) translate(43.759340277777774 98.10763888888889)"/><use xlink:href="#G" transform="matrix(1,0,0,1,2165,1045) translate(86.26802083333334 98.10763888888889)"/><use xlink:href="#H" transform="matrix(1,0,0,1,2165,1045) translate(127.52670138888888 98.10763888888889)"/><use xlink:href="#I" transform="matrix(1,0,0,1,2165,1045) translate(175.11350694444445 98.10763888888889)"/><use xlink:href="#J" transform="matrix(1,0,0,1,2165,1045) translate(80.72982638888888 119.61805555555554)"/><path d="M2290 1040.54a1.54 1.54 0 0 0-1.54-1.54h-373.13a6 6 0 0 0-6 6v17.62" stroke="#3a414a" fill="none"/><path d="M2290.47 1041.07l-.47-.03-.47.03v-.54h.94z" stroke="#3a414a" stroke-width=".05" fill="#3a414a"/><path d="M1909.33 1077.38l-4.63-14.26h9.27z" stroke="#3a414a" fill="#3a414a"/><path d="M1900.47 1362.62h-.94v-74.53h.94zm0-96.04h-.94v-65.08h.94z" stroke="#3a414a" stroke-width=".05" fill="#3a414a"/><path d="M1900.47 1201.5h-.94v-.5h.94z" fill="#3a414a"/><path stroke="#3a414a" stroke-width=".05" fill="#3a414a"/><path d="M1900 1377.38l-4.63-14.26h9.27z" fill="#3a414a"/><path d="M1900 1378.92l-5.3-16.28h10.6zm-3.98-15.33l3.98 12.25 3.98-12.26z" stroke="#3a414a" stroke-width=".05" fill="#3a414a"/><use xlink:href="#j" transform="matrix(1,0,0,1,1884.201388888889,1266.5781250000002) translate(0 17.22222222222222)"/><path d="M1940 1380c22.1 0 40 17.9 40 40s-17.9 40-40 40h-80c-22.1 0-40-17.9-40-40s17.9-40 40-40z" stroke="#3a414a" stroke-width="2" fill="#fff"/><use xlink:href="#K" transform="matrix(1,0,0,1,1832,1392) translate(32.56163194444444 34.72222222222222)"/><use xlink:href="#L" transform="matrix(1,0,0,1,1832,1392) translate(69.63628472222223 34.72222222222222)"/><path d="M1220 821.5v41.12" stroke="#3a414a" fill="none"/><path d="M1220.47 821.5h-.94v-.5h.94z" stroke="#3a414a" stroke-width=".05" fill="#3a414a"/><path d="M1220 877.38l-4.63-14.26h9.27z" stroke="#3a414a" fill="#3a414a"/><path d="M1140 886a6 6 0 0 1 6-6h148a6 6 0 0 1 6 6v108a6 6 0 0 1-6 6h-148a6 6 0 0 1-6-6z" stroke="#3a414a" stroke-width="2" fill="#fff"/><use xlink:href="#M" transform="matrix(1,0,0,1,1145,885) translate(6.1675347222222 41.28472222222222)"/><use xlink:href="#c" transform="matrix(1,0,0,1,1145,885) translate(34.657118055555536 41.28472222222222)"/><use xlink:href="#N" transform="matrix(1,0,0,1,1145,885) translate(70.47309027777777 41.28472222222222)"/><use xlink:href="#O" transform="matrix(1,0,0,1,1145,885) translate(103.58940972222223 41.28472222222222)"/><use xlink:href="#P" transform="matrix(1,0,0,1,1145,885) translate(25.8984375 62.795138888888886)"/><use xlink:href="#Q" transform="matrix(1,0,0,1,1145,885) translate(71.24565972222223 62.795138888888886)"/><use xlink:href="#R" transform="matrix(1,0,0,1,1145,885) translate(97.40885416666667 62.795138888888886)"/><use xlink:href="#S" transform="matrix(1,0,0,1,1145,885) translate(45.963541666666664 84.30555555555554)"/><path d="M1220.47 1062.62h-.94v-17.2h.94zm0-38.7h-.94v-22.42h.94z" stroke="#3a414a" stroke-width=".05" fill="#3a414a"/><path d="M1220.47 1001.5h-.94v-.5h.94z" fill="#3a414a"/><path stroke="#3a414a" stroke-width=".05" fill="#3a414a"/><path d="M1220 1077.38l-4.63-14.26h9.27z" fill="#3a414a"/><path d="M1220 1078.92l-5.3-16.28h10.6zm-3.98-15.33l3.98 12.25 3.98-12.26z" stroke="#3a414a" stroke-width=".05" fill="#3a414a"/><use xlink:href="#j" transform="matrix(1,0,0,1,1204.201388888889,1023.9114583333331) translate(0 17.22222222222222)"/><path d="M1327.77 940.48h-26.27v-.96h26.27zm54.85 0h-30.4v-.96h30.4z" stroke="#3a414a" stroke-width=".05" fill="#3a414a"/><path d="M1301.5 940.48h-.5v-.96h.5z" fill="#3a414a"/><path stroke="#3a414a" stroke-width=".05" fill="#3a414a"/><path d="M1397.38 940l-14.27 4.63.02-9.26z" fill="#3a414a"/><path d="M1398.92 940l-16.28 5.3v-10.6zm-15.33 3.98l12.24-3.98-12.25-3.98z" stroke="#3a414a" stroke-width=".05" fill="#3a414a"/><use xlink:href="#q" transform="matrix(1,0,0,1,1327.7734375,929.2447916666666) translate(0 17.22222222222222)"/><path d="M1520 900c22.1 0 40 17.9 40 40s-17.9 40-40 40h-80c-22.1 0-40-17.9-40-40s17.9-40 40-40z" stroke="#3a414a" stroke-width="2" fill="#fff"/><use xlink:href="#T" transform="matrix(1,0,0,1,1405,905) translate(52.3828125 41.28472222222222)"/><path d="M1260 1880c22.1 0 40 17.9 40 40s-17.9 40-40 40h-80c-22.1 0-40-17.9-40-40s17.9-40 40-40z" stroke="#3a414a" stroke-width="2" fill="#fff"/><use xlink:href="#U" transform="matrix(1,0,0,1,1145,1885) translate(25.381944444444443 41.28472222222222)"/><use xlink:href="#V" transform="matrix(1,0,0,1,1145,1885) translate(70.46006944444444 41.28472222222222)"/><path d="M1220 1961.5v43.1" stroke="#3a414a" fill="none"/><path d="M1220.47 1961.5h-.94v-.5h.94z" stroke="#3a414a" stroke-width=".05" fill="#3a414a"/><path d="M1220 2019.38l-4.63-14.27h9.27z" stroke="#3a414a" fill="#3a414a"/><path d="M1215.2 2023.6a8 8 0 0 1 9.6 0l70.4 52.8a4.5 4.5 0 0 1 0 7.2l-70.4 52.8a8 8 0 0 1-9.6 0l-70.4-52.8a4.5 4.5 0 0 1 0-7.2z" stroke="#3a414a" stroke-width="2" fill="#fff"/><use xlink:href="#W" transform="matrix(1,0,0,1,1145,2025) translate(41.879999999999995 41.28472222222222)"/><use xlink:href="#l" transform="matrix(1,0,0,1,1145,2025) translate(77.31402777777777 41.28472222222222)"/><use xlink:href="#X" transform="matrix(1,0,0,1,1145,2025) translate(38.746319444444445 62.795138888888886)"/><use xlink:href="#Y" transform="matrix(1,0,0,1,1145,2025) translate(90.77756944444445 62.795138888888886)"/><use xlink:href="#Z" transform="matrix(1,0,0,1,1145,2025) translate(46.73677083333333 84.30555555555554)"/><path d="M1260 2400c22.1 0 40 17.9 40 40s-17.9 40-40 40h-80c-22.1 0-40-17.9-40-40s17.9-40 40-40z" stroke="#3a414a" stroke-width="2" fill="#fff"/><use xlink:href="#K" transform="matrix(1,0,0,1,1145,2405) translate(21.493055555555543 41.28472222222222)"/><use xlink:href="#aa" transform="matrix(1,0,0,1,1145,2405) translate(58.56770833333333 41.28472222222222)"/><use xlink:href="#L" transform="matrix(1,0,0,1,1145,2405) translate(94.70486111111111 41.28472222222222)"/><path d="M1575.2 2023.6a8 8 0 0 1 9.6 0l70.4 52.8a4.5 4.5 0 0 1 0 7.2l-70.4 52.8a8 8 0 0 1-9.6 0l-70.4-52.8a4.5 4.5 0 0 1 0-7.2z" stroke="#3a414a" stroke-width="2" fill="#fff"/><use xlink:href="#ab" transform="matrix(1,0,0,1,1505,2025) translate(32.387812499999995 61.90972222222222)"/><use xlink:href="#ac" transform="matrix(1,0,0,1,1505,2025) translate(83.76802083333334 61.90972222222222)"/><path d="M1575.2 2223.6a8 8 0 0 1 9.6 0l70.4 52.8a4.5 4.5 0 0 1 0 7.2l-70.4 52.8a8 8 0 0 1-9.6 0l-70.4-52.8a4.5 4.5 0 0 1 0-7.2z" stroke="#3a414a" stroke-width="2" fill="#fff"/><use xlink:href="#W" transform="matrix(1,0,0,1,1505,2225) translate(41.879999999999995 41.28472222222222)"/><use xlink:href="#l" transform="matrix(1,0,0,1,1505,2225) translate(77.31402777777777 41.28472222222222)"/><use xlink:href="#X" transform="matrix(1,0,0,1,1505,2225) translate(28.34701388888889 62.795138888888886)"/><use xlink:href="#ad" transform="matrix(1,0,0,1,1505,2225) translate(80.37826388888888 62.795138888888886)"/><use xlink:href="#Y" transform="matrix(1,0,0,1,1505,2225) translate(101.176875 62.795138888888886)"/><use xlink:href="#Z" transform="matrix(1,0,0,1,1505,2225) translate(46.73677083333333 84.30555555555554)"/><path d="M1387.77 2080.47h-89.27v-.94h89.27zm97.84 0h-73.37v-.94h73.38z" stroke="#3a414a" stroke-width=".05" fill="#3a414a"/><path d="M1298.52 2080.47h-.56l.04-.47-.04-.47h.56z" fill="#3a414a"/><path stroke="#3a414a" stroke-width=".05" fill="#3a414a"/><path d="M1500.38 2080l-14.27 4.64v-9.28z" fill="#3a414a"/><path d="M1501.9 2080l-16.26 5.3v-10.6zm-15.3 3.98l12.24-3.98-12.25-3.98z" stroke="#3a414a" stroke-width=".05" fill="#3a414a"/><use xlink:href="#q" transform="matrix(1,0,0,1,1387.7734375,2069.2447916666665) translate(0 17.22222222222222)"/><path d="M1580 2139.5v65.1" stroke="#3a414a" fill="none"/><path d="M1580 2139l.47-.03v.55h-.94v-.55z" stroke="#3a414a" stroke-width=".05" fill="#3a414a"/><path d="M1580 2219.38l-4.63-14.27h9.27z" stroke="#3a414a" fill="#3a414a"/><path d="M1478.77 2440.47H1317.4l-.02-.94h161.4zm101.7-6.45l-.07 1-.24.98-.4.94-.52.87-.66.78-.77.66-.86.53-.94.4-1 .23-.98.07h-70.8v-.94H1574l.88-.07.85-.2.8-.34.75-.45.66-.56.57-.65.45-.74.33-.8.2-.84.08-.88v-94.48h.94z" stroke="#3a414a" stroke-width=".05" fill="#3a414a"/><path d="M1580 2339l.47-.03v.55h-.94v-.55z" fill="#3a414a"/><path stroke="#3a414a" stroke-width=".05" fill="#3a414a"/><path d="M1316.88 2444.64l-14.26-4.64 14.27-4.64z" fill="#3a414a"/><path d="M1317.36 2445.3l-16.28-5.3 16.28-5.3zm-13.2-5.3l12.25 3.98v-7.96z" stroke="#3a414a" stroke-width=".05" fill="#3a414a"/><use xlink:href="#q" transform="matrix(1,0,0,1,1478.7727225146377,2429.2447916666665) translate(0 17.22222222222222)"/><path d="M2080 1880c22.1 0 40 17.9 40 40s-17.9 40-40 40h-80c-22.1 0-40-17.9-40-40s17.9-40 40-40z" stroke="#3a414a" stroke-width="2" fill="#fff"/><use xlink:href="#U" transform="matrix(1,0,0,1,1965,1885) translate(21.51107638888889 30.34722222222222)"/><use xlink:href="#ae" transform="matrix(1,0,0,1,1965,1885) translate(66.58920138888888 30.34722222222222)"/><use xlink:href="#af" transform="matrix(1,0,0,1,1965,1885) translate(41.94076388888888 51.857638888888886)"/><path d="M2040 1961.5v43.1" stroke="#3a414a" fill="none"/><path d="M2040.47 1961.5h-.94v-.5h.94z" stroke="#3a414a" stroke-width=".05" fill="#3a414a"/><path d="M2040 2019.38l-4.63-14.27h9.27z" stroke="#3a414a" fill="#3a414a"/><path d="M2035.2 2023.6a8 8 0 0 1 9.6 0l70.4 52.8a4.5 4.5 0 0 1 0 7.2l-70.4 52.8a8 8 0 0 1-9.6 0l-70.4-52.8a4.5 4.5 0 0 1 0-7.2z" stroke="#3a414a" stroke-width="2" fill="#fff"/><use xlink:href="#W" transform="matrix(1,0,0,1,1965,2025) translate(41.879999999999995 41.28472222222222)"/><use xlink:href="#l" transform="matrix(1,0,0,1,1965,2025) translate(77.31402777777777 41.28472222222222)"/><use xlink:href="#X" transform="matrix(1,0,0,1,1965,2025) translate(38.746319444444445 62.795138888888886)"/><use xlink:href="#Y" transform="matrix(1,0,0,1,1965,2025) translate(90.77756944444445 62.795138888888886)"/><use xlink:href="#Z" transform="matrix(1,0,0,1,1965,2025) translate(46.73677083333333 84.30555555555554)"/><path d="M2545.2 2023.6a8 8 0 0 1 9.6 0l70.4 52.8a4.5 4.5 0 0 1 0 7.2l-70.4 52.8a8 8 0 0 1-9.6 0l-70.4-52.8a4.5 4.5 0 0 1 0-7.2z" stroke="#3a414a" stroke-width="2" fill="#fff"/><use xlink:href="#ag" transform="matrix(1,0,0,1,2475,2025) translate(59.78798611111111 27.53472222222222)"/><use xlink:href="#c" transform="matrix(1,0,0,1,2475,2025) translate(33.58138888888888 49.045138888888886)"/><use xlink:href="#ah" transform="matrix(1,0,0,1,2475,2025) translate(69.39736111111111 49.045138888888886)"/><use xlink:href="#ai" transform="matrix(1,0,0,1,2475,2025) translate(33.99371527777778 70.55555555555554)"/><use xlink:href="#aj" transform="matrix(1,0,0,1,2475,2025) translate(59.479826388888895 70.55555555555554)"/><use xlink:href="#ak" transform="matrix(1,0,0,1,2475,2025) translate(52.16645833333333 92.06597222222223)"/><path d="M2040.47 2204.6h-.94v-13.84h.94zm0-35.36h-.94v-29.74h.94z" stroke="#3a414a" stroke-width=".05" fill="#3a414a"/><path d="M2040 2139l.47-.03v.55h-.94v-.55z" fill="#3a414a"/><path stroke="#3a414a" stroke-width=".05" fill="#3a414a"/><path d="M2040 2219.38l-4.63-14.27h9.27z" fill="#3a414a"/><path d="M2040 2220.92l-5.3-16.28h10.6zm-3.98-15.33l3.98 12.24 3.98-12.25z" stroke="#3a414a" stroke-width=".05" fill="#3a414a"/><use xlink:href="#q" transform="matrix(1,0,0,1,2027.7734375,2169.2447916666665) translate(0 17.22222222222222)"/><path d="M2035.2 2223.6a8 8 0 0 1 9.6 0l70.4 52.8a4.5 4.5 0 0 1 0 7.2l-70.4 52.8a8 8 0 0 1-9.6 0l-70.4-52.8a4.5 4.5 0 0 1 0-7.2z" stroke="#3a414a" stroke-width="2" fill="#fff"/><use xlink:href="#ab" transform="matrix(1,0,0,1,1965,2225) translate(32.387812499999995 61.90972222222222)"/><use xlink:href="#ac" transform="matrix(1,0,0,1,1965,2225) translate(83.76802083333334 61.90972222222222)"/><path d="M2590 2460c22.1 0 40 17.9 40 40s-17.9 40-40 40h-80c-22.1 0-40-17.9-40-40s17.9-40 40-40z" stroke="#3a414a" stroke-width="2" fill="#fff"/><use xlink:href="#K" transform="matrix(1,0,0,1,2475,2465) translate(21.493055555555543 41.28472222222222)"/><use xlink:href="#aa" transform="matrix(1,0,0,1,2475,2465) translate(58.56770833333333 41.28472222222222)"/><use xlink:href="#L" transform="matrix(1,0,0,1,2475,2465) translate(94.70486111111111 41.28472222222222)"/><path d="M2275.2 2223.6a8 8 0 0 1 9.6 0l70.4 52.8a4.5 4.5 0 0 1 0 7.2l-70.4 52.8a8 8 0 0 1-9.6 0l-70.4-52.8a4.5 4.5 0 0 1 0-7.2z" stroke="#3a414a" stroke-width="2" fill="#fff"/><use xlink:href="#W" transform="matrix(1,0,0,1,2205,2225) translate(41.879999999999995 41.28472222222222)"/><use xlink:href="#l" transform="matrix(1,0,0,1,2205,2225) translate(77.31402777777777 41.28472222222222)"/><use xlink:href="#X" transform="matrix(1,0,0,1,2205,2225) translate(38.746319444444445 62.795138888888886)"/><use xlink:href="#al" transform="matrix(1,0,0,1,2205,2225) translate(90.77756944444445 62.795138888888886)"/><use xlink:href="#am" transform="matrix(1,0,0,1,2205,2225) translate(46.73677083333333 84.30555555555554)"/><path d="M1220.47 2192.62h-.94v-7.86h.94zm0-29.37h-.94v-23.75h.94z" stroke="#3a414a" stroke-width=".05" fill="#3a414a"/><path d="M1220 2139l.47-.03v.55h-.94v-.55z" fill="#3a414a"/><path stroke="#3a414a" stroke-width=".05" fill="#3a414a"/><path d="M1220 2207.38l-4.63-14.26h9.27z" fill="#3a414a"/><path d="M1220 2208.92l-5.3-16.28h10.6zm-3.98-15.33l3.98 12.24 3.98-12.25z" stroke="#3a414a" stroke-width=".05" fill="#3a414a"/><g><use xlink:href="#j" transform="matrix(1,0,0,1,1204.201388888889,2163.245843511873) translate(0 17.22222222222222)"/></g><path d="M1140 2216a6 6 0 0 1 6-6h148a6 6 0 0 1 6 6v108a6 6 0 0 1-6 6h-148a6 6 0 0 1-6-6z" stroke="#3a414a" stroke-width="2" fill="#fff"/><g><use xlink:href="#an" transform="matrix(1,0,0,1,1152,2222) translate(21.502604166666664 44.22222222222222)"/><use xlink:href="#I" transform="matrix(1,0,0,1,1152,2222) translate(83.36024305555556 44.22222222222222)"/><use xlink:href="#ao" transform="matrix(1,0,0,1,1152,2222) translate(3.0434027777777715 65.73263888888889)"/><use xlink:href="#ap" transform="matrix(1,0,0,1,1152,2222) translate(53.03472222222222 65.73263888888889)"/><use xlink:href="#aq" transform="matrix(1,0,0,1,1152,2222) translate(65.265625 65.73263888888889)"/></g><path d="M1385.7 2280.47h-68.32v-.94h68.32zm115.8 0h-84.2v-.94h84.2z" stroke="#3a414a" stroke-width=".05" fill="#3a414a"/><path d="M1502 2280l.04.47h-.56v-.94h.56z" fill="#3a414a"/><path stroke="#3a414a" stroke-width=".05" fill="#3a414a"/><path d="M1316.88 2284.64l-14.26-4.64 14.26-4.64z" fill="#3a414a"/><path d="M1317.36 2285.3l-16.28-5.3 16.28-5.3zm-13.2-5.3l12.25 3.98v-7.96z" stroke="#3a414a" stroke-width=".05" fill="#3a414a"/><g><use xlink:href="#j" transform="matrix(1,0,0,1,1385.6992320513875,2269.2447916666665) translate(0 17.22222222222222)"/></g><path d="M1220 2331.5v51.12" stroke="#3a414a" fill="none"/><path d="M1220.47 2331.5h-.94v-.5h.94z" stroke="#3a414a" stroke-width=".05" fill="#3a414a"/><path d="M1220 2397.38l-4.63-14.26h9.27z" stroke="#3a414a" fill="#3a414a"/><path d="M2200 2026a6 6 0 0 1 6-6h148a6 6 0 0 1 6 6v108a6 6 0 0 1-6 6h-148a6 6 0 0 1-6-6z" stroke="#3a414a" stroke-width="2" fill="#fff"/><g><use xlink:href="#an" transform="matrix(1,0,0,1,2212,2032) translate(21.502604166666664 44.22222222222222)"/><use xlink:href="#I" transform="matrix(1,0,0,1,2212,2032) translate(83.36024305555556 44.22222222222222)"/><use xlink:href="#ao" transform="matrix(1,0,0,1,2212,2032) translate(3.0434027777777715 65.73263888888889)"/><use xlink:href="#ap" transform="matrix(1,0,0,1,2212,2032) translate(53.03472222222222 65.73263888888889)"/><use xlink:href="#aq" transform="matrix(1,0,0,1,2212,2032) translate(65.265625 65.73263888888889)"/></g><path d="M2142.7 2080.47h-24.2v-.94h24.2zm39.92 0h-8.32v-.94h8.32z" stroke="#3a414a" stroke-width=".05" fill="#3a414a"/><path d="M2118.52 2080.47h-.56l.04-.47-.04-.47h.56z" fill="#3a414a"/><path stroke="#3a414a" stroke-width=".05" fill="#3a414a"/><path d="M2197.38 2080l-14.26 4.64v-9.28z" fill="#3a414a"/><path d="M2198.92 2080l-16.28 5.3v-10.6zm-15.33 3.98l12.24-3.98-12.25-3.98z" stroke="#3a414a" stroke-width=".05" fill="#3a414a"/><g><use xlink:href="#j" transform="matrix(1,0,0,1,2142.70355035602,2069.2447916666665) translate(0 17.22222222222222)"/></g><path d="M2361.5 2080h94.1" stroke="#3a414a" fill="none"/><path d="M2361.5 2080.47h-.5v-.94h.5z" stroke="#3a414a" stroke-width=".05" fill="#3a414a"/><path d="M2470.38 2080l-14.27 4.64v-9.28z" stroke="#3a414a" fill="#3a414a"/><path d="M2470 2226a6 6 0 0 1 6-6h148a6 6 0 0 1 6 6v108a6 6 0 0 1-6 6h-148a6 6 0 0 1-6-6z" stroke="#3a414a" stroke-width="2" fill="#fff"/><g><use xlink:href="#an" transform="matrix(1,0,0,1,2482,2232) translate(21.502604166666664 44.22222222222222)"/><use xlink:href="#I" transform="matrix(1,0,0,1,2482,2232) translate(83.36024305555556 44.22222222222222)"/><use xlink:href="#ao" transform="matrix(1,0,0,1,2482,2232) translate(3.0434027777777715 65.73263888888889)"/><use xlink:href="#ap" transform="matrix(1,0,0,1,2482,2232) translate(53.03472222222222 65.73263888888889)"/><use xlink:href="#aq" transform="matrix(1,0,0,1,2482,2232) translate(65.265625 65.73263888888889)"/></g><path d="M2550.47 2202.62h-.94v-12.86h.94zm0-34.37h-.94v-28.75h.94z" stroke="#3a414a" stroke-width=".05" fill="#3a414a"/><path d="M2550 2139l.47-.03v.55h-.94v-.55z" fill="#3a414a"/><path stroke="#3a414a" stroke-width=".05" fill="#3a414a"/><path d="M2550 2217.38l-4.64-14.26h9.28z" fill="#3a414a"/><path d="M2550 2218.92l-5.3-16.28h10.6zm-3.98-15.33l3.98 12.24 3.98-12.25z" stroke="#3a414a" stroke-width=".05" fill="#3a414a"/><g><use xlink:href="#j" transform="matrix(1,0,0,1,2534.2013888888887,2168.245843511873) translate(0 17.22222222222222)"/></g><path d="M2144.2 2280.47h-25.7v-.94h25.7zm41.4 0h-9.8v-.94h9.8z" stroke="#3a414a" stroke-width=".05" fill="#3a414a"/><path d="M2118.52 2280.47h-.56l.04-.47-.04-.47h.56z" fill="#3a414a"/><path stroke="#3a414a" stroke-width=".05" fill="#3a414a"/><path d="M2200.38 2280l-14.27 4.64v-9.28z" fill="#3a414a"/><path d="M2201.9 2280l-16.26 5.3v-10.6zm-15.3 3.98l12.24-3.98-12.25-3.98z" stroke="#3a414a" stroke-width=".05" fill="#3a414a"/><g><use xlink:href="#j" transform="matrix(1,0,0,1,2144.2013888888887,2269.2447916666665) translate(0 17.22222222222222)"/></g><path d="M2280.47 2220.5h-.94v-28.75h.94zm0-50.26h-.94v-12.86h.94z" stroke="#3a414a" stroke-width=".05" fill="#3a414a"/><path d="M2280.47 2221.03l-.47-.03-.47.03v-.55h.94z" fill="#3a414a"/><path stroke="#3a414a" stroke-width=".05" fill="#3a414a"/><path d="M2284.64 2156.88h-9.28l4.64-14.26z" fill="#3a414a"/><path d="M2285.3 2157.36h-10.6l5.3-16.28zm-9.28-.95h7.96l-3.98-12.24z" stroke="#3a414a" stroke-width=".05" fill="#3a414a"/><g><use xlink:href="#j" transform="matrix(1,0,0,1,2264.2013888888887,2170.24373982146) translate(0 17.22222222222222)"/></g><path d="M2452.6 2499.53v.94h-146.37v-.94zm-172.13-5.55l.07.88.2.85.34.8.45.75.24.28v1.35l-.35-.3-.66-.77-.53-.86-.4-.94-.23-1-.07-.98V2339.5h.94z" stroke="#3a414a" stroke-width=".05" fill="#3a414a"/><path d="M2280 2339l.47-.03v.55h-.94v-.55z" fill="#3a414a"/><path stroke="#3a414a" stroke-width=".05" fill="#3a414a"/><path d="M2467.38 2500l-14.27 4.64v-9.28z" fill="#3a414a"/><path d="M2468.92 2500l-16.28 5.3v-10.6zm-15.33 3.98l12.24-3.98-12.25-3.98z" stroke="#3a414a" stroke-width=".05" fill="#3a414a"/><g><use xlink:href="#q" transform="matrix(1,0,0,1,2281.7741524853623,2489.2447916666665) translate(0 17.22222222222222)"/></g><path d="M2550 2341.5v101.12" stroke="#3a414a" fill="none"/><path d="M2550.47 2341.5h-.94v-.5h.94z" stroke="#3a414a" stroke-width=".05" fill="#3a414a"/><path d="M2550 2457.38l-4.64-14.26h9.28z" stroke="#3a414a" fill="#3a414a"/><path d="M2671.48 2494.02l-.08 1-.24.98-.4.94-.52.87-.66.78-.77.66-.86.53-.94.4-1 .23-.98.07h-17.63v-.94h17.58l.88-.07.85-.2.8-.34.75-.45.66-.56.57-.65.45-.74.33-.8.2-.84.08-.88v-194.72h.95zM2666 2079.6l1 .24.94.4.87.52.78.66.66.77.53.86.4.94.23 1 .08.98v191.77h-.95v-191.73l-.07-.88-.2-.85-.34-.8-.45-.75-.56-.66-.65-.57-.74-.45-.8-.33-.84-.2-.88-.08h-36.48v-.94h36.52z" stroke="#3a414a" stroke-width=".05" fill="#3a414a"/><path d="M2628.52 2080.47h-.56l.04-.47-.04-.47h.56z" fill="#3a414a"/><path stroke="#3a414a" stroke-width=".05" fill="#3a414a"/><path d="M2646.9 2504.64l-14.28-4.64 14.27-4.64z" fill="#3a414a"/><path d="M2647.36 2505.3l-16.28-5.3 16.28-5.3zm-13.2-5.3l12.25 3.98v-7.96z" stroke="#3a414a" stroke-width=".05" fill="#3a414a"/><g><use xlink:href="#q" transform="matrix(1,0,0,1,2658.7740612196885,2277.7466162739534) translate(0 17.22222222222222)"/></g><defs><path d="M657 26c-323 0-524-166-541-416h195c15 169 171 246 346 246 202 0 356-106 356-265 5-203-294-238-475-293-239-73-380-191-380-389 0-252 224-419 512-419 294 0 499 171 508 396H992c-17-145-151-228-328-228-193 0-321 102-321 242 0 156 175 211 284 241l149 41c160 44 422 134 422 412 0 244-197 432-541 432" id="ar"/><path d="M598-1118v154H368v674c0 100 37 144 132 144 23 0 62-6 92-12L629-6c-37 13-88 20-134 20-193 0-307-107-307-290v-688H20v-154h168v-266h180v266h230" id="as"/><path d="M471 26C259 26 90-98 90-318c0-256 228-303 435-329 202-27 287-16 287-108 0-139-79-219-234-219-161 0-248 86-283 164l-173-57c86-203 278-265 451-265 150 0 419 46 419 395V0H815v-152h-12C765-73 660 26 471 26zm31-159c199 0 310-134 310-271v-155c-30 35-226 55-295 64-131 17-246 59-246 186 0 116 97 176 231 176" id="at"/><path d="M158 0v-1118h174v172h12c41-113 157-188 290-188 26 0 70 2 91 3v181c-11-2-60-10-108-10-161 0-279 109-279 260V0H158" id="au"/><g id="a"><use transform="matrix(0.008680555555555556,0,0,0.008680555555555556,0,0)" xlink:href="#ar"/><use transform="matrix(0.008680555555555556,0,0,0.008680555555555556,11.40625,0)" xlink:href="#as"/><use transform="matrix(0.008680555555555556,0,0,0.008680555555555556,17.30902777777778,0)" xlink:href="#at"/><use transform="matrix(0.008680555555555556,0,0,0.008680555555555556,27.291666666666668,0)" xlink:href="#au"/><use transform="matrix(0.008680555555555556,0,0,0.008680555555555556,34.26215277777778,0)" xlink:href="#as"/></g><path d="M645 0H180v-1490h484c435 0 692 280 692 742 0 466-257 748-711 748zM370-168h263c363 0 539-218 539-580 0-358-176-574-521-574H370v1154" id="av"/><path d="M158 0v-1118h180V0H158zm91-1301c-68 0-125-53-125-119s57-119 125-119c69 0 126 53 126 119s-57 119-126 119" id="aw"/><path d="M577 24c-279 0-473-224-473-580 0-354 195-576 474-576 218 0 287 134 324 193h14v-551h180V0H922v-173h-20C865-111 790 24 577 24zm27-161c203 0 314-172 314-421 0-247-108-413-314-413-212 0-317 181-317 413 0 235 108 421 317 421" id="ax"/><g id="b"><use transform="matrix(0.008680555555555556,0,0,0.008680555555555556,0,0)" xlink:href="#av"/><use transform="matrix(0.008680555555555556,0,0,0.008680555555555556,12.829861111111112,0)" xlink:href="#aw"/><use transform="matrix(0.008680555555555556,0,0,0.008680555555555556,17.135416666666668,0)" xlink:href="#ax"/></g><path d="M140 405l46-156c120 36 205 19 263-150l32-93L54-1118h197c107 313 237 620 324 950 87-331 219-637 326-950h196L606 167c-68 178-176 259-334 259-64 0-113-12-132-21" id="ay"/><path d="M613 24c-304 0-509-231-509-576 0-350 205-580 509-580 305 0 511 230 511 580 0 345-206 576-511 576zm0-161c226 0 329-195 329-415 0-222-103-419-329-419-223 0-326 196-326 419 0 220 103 415 326 415" id="az"/><path d="M537 14c-226 0-379-139-379-422v-710h180v695c0 172 97 275 253 275 160 0 281-109 281-300v-670h181V0H879v-209C806-46 684 14 537 14" id="aA"/><g id="c"><use transform="matrix(0.008680555555555556,0,0,0.008680555555555556,0,0)" xlink:href="#ay"/><use transform="matrix(0.008680555555555556,0,0,0.008680555555555556,9.644097222222223,0)" xlink:href="#az"/><use transform="matrix(0.008680555555555556,0,0,0.008680555555555556,20.303819444444446,0)" xlink:href="#aA"/></g><path d="M613 24c-304 0-509-231-509-576 0-350 205-580 509-580 216 0 392 114 453 309l-173 49c-33-115-133-197-280-197-223 0-326 196-326 419 0 220 103 415 326 415 150 0 252-85 285-206l172 49C1010-95 832 24 613 24" id="aB"/><path d="M338-670V0H158v-1118h173l1 207c72-158 192-221 342-221 226 0 378 139 378 422V0H872v-695c0-172-96-275-252-275-161 0-282 109-282 300" id="aC"/><path d="M1096 418H916v-591h-14C865-111 790 24 577 24c-279 0-473-224-473-580 0-354 195-576 474-576 218 0 287 134 324 193h20v-179h174V418zM604-137c203 0 314-172 314-421 0-247-108-413-314-413-212 0-317 181-317 413 0 235 108 421 317 421" id="aD"/><path d="M628 24c-324 0-524-230-524-574 0-343 198-582 503-582 237 0 487 146 487 559v75H286c9 234 145 362 343 362 132 0 231-58 273-172l174 48C1024-91 857 24 628 24zM287-650h624c-17-190-120-322-304-322-192 0-309 151-320 322" id="aE"/><g id="d"><use transform="matrix(0.008680555555555556,0,0,0.008680555555555556,0,0)" xlink:href="#aB"/><use transform="matrix(0.008680555555555556,0,0,0.008680555555555556,10.15625,0)" xlink:href="#az"/><use transform="matrix(0.008680555555555556,0,0,0.008680555555555556,20.81597222222222,0)" xlink:href="#aC"/><use transform="matrix(0.008680555555555556,0,0,0.008680555555555556,31.319444444444443,0)" xlink:href="#aD"/><use transform="matrix(0.008680555555555556,0,0,0.008680555555555556,42.204861111111114,0)" xlink:href="#aA"/><use transform="matrix(0.008680555555555556,0,0,0.008680555555555556,52.71701388888889,0)" xlink:href="#aE"/><use transform="matrix(0.008680555555555556,0,0,0.008680555555555556,63.08159722222223,0)" xlink:href="#au"/></g><g id="e"><use transform="matrix(0.008680555555555556,0,0,0.008680555555555556,0,0)" xlink:href="#as"/><use transform="matrix(0.008680555555555556,0,0,0.008680555555555556,5.642361111111112,0)" xlink:href="#aE"/><use transform="matrix(0.008680555555555556,0,0,0.008680555555555556,16.006944444444446,0)" xlink:href="#au"/><use transform="matrix(0.008680555555555556,0,0,0.008680555555555556,22.977430555555557,0)" xlink:href="#au"/><use transform="matrix(0.008680555555555556,0,0,0.008680555555555556,29.375,0)" xlink:href="#az"/><use transform="matrix(0.008680555555555556,0,0,0.008680555555555556,40.03472222222222,0)" xlink:href="#au"/><use transform="matrix(0.008680555555555556,0,0,0.008680555555555556,47.005208333333336,0)" xlink:href="#aw"/><use transform="matrix(0.008680555555555556,0,0,0.008680555555555556,51.31076388888889,0)" xlink:href="#as"/><use transform="matrix(0.008680555555555556,0,0,0.008680555555555556,56.953125,0)" xlink:href="#az"/><use transform="matrix(0.008680555555555556,0,0,0.008680555555555556,67.61284722222223,0)" xlink:href="#au"/><use transform="matrix(0.008680555555555556,0,0,0.008680555555555556,74.58333333333331,0)" xlink:href="#ay"/></g><g id="f"><use transform="matrix(0.008680555555555556,0,0,0.008680555555555556,0,0)" xlink:href="#aw"/><use transform="matrix(0.008680555555555556,0,0,0.008680555555555556,4.305555555555555,0)" xlink:href="#aC"/></g><g id="g"><use transform="matrix(0.008680555555555556,0,0,0.008680555555555556,0,0)" xlink:href="#ay"/><use transform="matrix(0.008680555555555556,0,0,0.008680555555555556,9.644097222222223,0)" xlink:href="#az"/><use transform="matrix(0.008680555555555556,0,0,0.008680555555555556,20.303819444444446,0)" xlink:href="#aA"/><use transform="matrix(0.008680555555555556,0,0,0.008680555555555556,30.815972222222225,0)" xlink:href="#au"/></g><path d="M158 418v-1536h174v179h20c37-59 106-193 324-193 279 0 474 222 474 576 0 356-194 580-473 580-213 0-288-135-325-197h-14v591H158zm492-555c209 0 317-186 317-421 0-232-105-413-317-413-206 0-314 166-314 413 0 249 111 421 314 421" id="aF"/><path d="M481 0L54-1118h197c107 314 236 620 325 951 87-331 217-637 324-951h197L670 0H481" id="aG"/><path d="M538 24C308 24 148-78 108-271l171-41c32 123 123 178 257 178 156 0 256-77 256-169 0-77-54-128-164-154l-186-44c-203-48-300-148-300-305 0-192 176-326 414-326 230 0 351 112 402 269l-163 42c-31-80-94-158-238-158-133 0-233 69-233 162 0 83 57 129 188 160l169 40c203 48 298 149 298 302 0 196-179 339-441 339" id="aH"/><g id="h"><use transform="matrix(0.008680555555555556,0,0,0.008680555555555556,0,0)" xlink:href="#aF"/><use transform="matrix(0.008680555555555556,0,0,0.008680555555555556,10.885416666666668,0)" xlink:href="#au"/><use transform="matrix(0.008680555555555556,0,0,0.008680555555555556,17.282986111111114,0)" xlink:href="#aE"/><use transform="matrix(0.008680555555555556,0,0,0.008680555555555556,27.30034722222223,0)" xlink:href="#aG"/><use transform="matrix(0.008680555555555556,0,0,0.008680555555555556,37.29166666666667,0)" xlink:href="#aw"/><use transform="matrix(0.008680555555555556,0,0,0.008680555555555556,41.59722222222223,0)" xlink:href="#az"/><use transform="matrix(0.008680555555555556,0,0,0.008680555555555556,52.25694444444445,0)" xlink:href="#aA"/><use transform="matrix(0.008680555555555556,0,0,0.008680555555555556,62.76909722222223,0)" xlink:href="#aH"/></g><path d="M383-449c-3-277 82-343 222-425 88-53 156-134 156-250 0-139-108-227-243-227-118 0-235 70-246 236H82c10-251 200-395 436-395 259 0 427 165 427 393 0 161-74 273-203 352-132 80-180 132-178 316H383zm93 462c-75 0-135-60-135-134 0-75 60-135 135-135 74 0 134 60 134 135 0 74-60 134-134 134" id="aI"/><g id="i"><use transform="matrix(0.008680555555555556,0,0,0.008680555555555556,0,0)" xlink:href="#as"/><use transform="matrix(0.008680555555555556,0,0,0.008680555555555556,5.815972222222222,0)" xlink:href="#aA"/><use transform="matrix(0.008680555555555556,0,0,0.008680555555555556,16.328125,0)" xlink:href="#au"/><use transform="matrix(0.008680555555555556,0,0,0.008680555555555556,23.298611111111118,0)" xlink:href="#aC"/><use transform="matrix(0.008680555555555556,0,0,0.008680555555555556,33.802083333333336,0)" xlink:href="#aI"/></g><path fill="#333" d="M601 0v-560L49-1490h357l252 464c38 68 67 130 97 208 96-243 225-446 337-672h356L905-560V0H601" id="aJ"/><path fill="#333" d="M633 22C291 22 81-200 81-553c0-345 210-579 537-579 292 0 525 185 525 567v84H378c7 183 109 277 260 277 105 0 184-46 216-132l272 51C1071-99 893 22 633 22zM380-669h474c-15-146-94-237-233-237-143 0-229 99-241 237" id="aK"/><path fill="#333" d="M572 22C302 22 117-98 78-306l279-48c29 105 101 156 224 156 114 0 185-48 185-115 0-118-228-130-337-155-215-49-322-150-322-317 0-215 187-347 470-347 265 0 424 116 466 298l-266 47c-24-76-87-130-196-130-98 0-174 46-174 113 0 56 38 95 144 117l201 40c216 44 320 143 320 302 0 220-207 367-500 367" id="aL"/><g id="j"><use transform="matrix(0.008680555555555556,0,0,0.008680555555555556,0,0)" xlink:href="#aJ"/><use transform="matrix(0.008680555555555556,0,0,0.008680555555555556,11.050347222222223,0)" xlink:href="#aK"/><use transform="matrix(0.008680555555555556,0,0,0.008680555555555556,21.640625,0)" xlink:href="#aL"/></g><path d="M180 0v-1490h190v644h782v-644h190V0h-190v-678H370V0H180" id="aM"/><g id="k"><use transform="matrix(0.008680555555555556,0,0,0.008680555555555556,0,0)" xlink:href="#aM"/><use transform="matrix(0.008680555555555556,0,0,0.008680555555555556,13.211805555555555,0)" xlink:href="#at"/><use transform="matrix(0.008680555555555556,0,0,0.008680555555555556,22.93402777777778,0)" xlink:href="#aG"/><use transform="matrix(0.008680555555555556,0,0,0.008680555555555556,32.578125,0)" xlink:href="#aE"/></g><g id="l"><use transform="matrix(0.008680555555555556,0,0,0.008680555555555556,0,0)" xlink:href="#ay"/><use transform="matrix(0.008680555555555556,0,0,0.008680555555555556,9.644097222222223,0)" xlink:href="#az"/><use transform="matrix(0.008680555555555556,0,0,0.008680555555555556,20.303819444444446,0)" xlink:href="#aA"/></g><g id="m"><use transform="matrix(0.008680555555555556,0,0,0.008680555555555556,0,0)" xlink:href="#aB"/><use transform="matrix(0.008680555555555556,0,0,0.008680555555555556,10.15625,0)" xlink:href="#az"/><use transform="matrix(0.008680555555555556,0,0,0.008680555555555556,20.81597222222222,0)" xlink:href="#aC"/><use transform="matrix(0.008680555555555556,0,0,0.008680555555555556,31.319444444444443,0)" xlink:href="#aD"/><use transform="matrix(0.008680555555555556,0,0,0.008680555555555556,42.204861111111114,0)" xlink:href="#aA"/><use transform="matrix(0.008680555555555556,0,0,0.008680555555555556,52.71701388888889,0)" xlink:href="#aE"/><use transform="matrix(0.008680555555555556,0,0,0.008680555555555556,63.08159722222223,0)" xlink:href="#au"/><use transform="matrix(0.008680555555555556,0,0,0.008680555555555556,69.47916666666667,0)" xlink:href="#aE"/><use transform="matrix(0.008680555555555556,0,0,0.008680555555555556,79.84375,0)" xlink:href="#ax"/></g><path d="M154 0v-137l495-537c165-179 249-281 249-418 0-156-121-253-280-253-170 0-278 110-278 278H158c0-264 200-443 465-443 266 0 455 183 455 416 0 161-73 288-336 568L416-179v12h687V0H154" id="aN"/><use transform="matrix(0.008680555555555556,0,0,0.008680555555555556,0,0)" xlink:href="#aN" id="n"/><g id="o"><use transform="matrix(0.008680555555555556,0,0,0.008680555555555556,0,0)" xlink:href="#as"/><use transform="matrix(0.008680555555555556,0,0,0.008680555555555556,5.642361111111112,0)" xlink:href="#aE"/><use transform="matrix(0.008680555555555556,0,0,0.008680555555555556,16.006944444444446,0)" xlink:href="#au"/><use transform="matrix(0.008680555555555556,0,0,0.008680555555555556,22.977430555555557,0)" xlink:href="#au"/><use transform="matrix(0.008680555555555556,0,0,0.008680555555555556,29.375,0)" xlink:href="#az"/><use transform="matrix(0.008680555555555556,0,0,0.008680555555555556,40.03472222222222,0)" xlink:href="#au"/><use transform="matrix(0.008680555555555556,0,0,0.008680555555555556,47.005208333333336,0)" xlink:href="#aw"/><use transform="matrix(0.008680555555555556,0,0,0.008680555555555556,51.31076388888889,0)" xlink:href="#as"/><use transform="matrix(0.008680555555555556,0,0,0.008680555555555556,56.953125,0)" xlink:href="#az"/><use transform="matrix(0.008680555555555556,0,0,0.008680555555555556,67.61284722222223,0)" xlink:href="#au"/><use transform="matrix(0.008680555555555556,0,0,0.008680555555555556,74.58333333333331,0)" xlink:href="#aw"/><use transform="matrix(0.008680555555555556,0,0,0.008680555555555556,78.88888888888889,0)" xlink:href="#aE"/><use transform="matrix(0.008680555555555556,0,0,0.008680555555555556,89.25347222222221,0)" xlink:href="#aH"/><use transform="matrix(0.008680555555555556,0,0,0.008680555555555556,98.63715277777777,0)" xlink:href="#aI"/></g><path d="M458 0L52-1490h194c108 439 233 855 324 1313 92-459 221-873 331-1313h216c110 438 234 854 330 1307 92-455 216-869 323-1307h196L1558 0h-221l-256-944c-26-95-50-200-73-331-22 122-44 223-73 331L680 0H458" id="aO"/><path d="M370-1490V0H180v-1490h190" id="aP"/><path d="M180 0v-1490h224l606 953c40 63 108 177 176 312-27-437-7-821-13-1265h190V0h-226C860-448 622-778 356-1262c27 476 11 792 15 1262H180" id="aQ"/><g id="p"><use transform="matrix(0.008680555555555556,0,0,0.008680555555555556,0,0)" xlink:href="#aO"/><use transform="matrix(0.008680555555555556,0,0,0.008680555555555556,17.51736111111111,0)" xlink:href="#aP"/><use transform="matrix(0.008680555555555556,0,0,0.008680555555555556,22.291666666666664,0)" xlink:href="#aQ"/></g><path fill="#333" d="M135 0v-1490h340l471 754c59 97 122 210 187 365-32-387-14-721-19-1119h312V0h-341C855-382 627-689 427-1113c32 420 16 695 20 1113H135" id="aR"/><path fill="#333" d="M628 22C291 22 81-210 81-554c0-346 210-578 547-578 336 0 547 232 547 578 0 344-211 576-547 576zm0-236c160 0 242-146 242-341 0-197-82-341-242-341S387-753 387-555c0 195 81 341 241 341" id="aS"/><g id="q"><use transform="matrix(0.008680555555555556,0,0,0.008680555555555556,0,0)" xlink:href="#aR"/><use transform="matrix(0.008680555555555556,0,0,0.008680555555555556,13.550347222222223,0)" xlink:href="#aS"/></g><path d="M180 0v-1490h510c348 0 508 194 508 460 0 198-88 351-276 417L1256 0h-220L726-579c-117 2-238 0-356 1V0H180zm190-747h312c235 0 327-108 327-283 0-177-92-293-329-293H370v576" id="aT"/><path d="M338-1490V0H158v-1490h180" id="aU"/><g id="r"><use transform="matrix(0.008680555555555556,0,0,0.008680555555555556,0,0)" xlink:href="#aT"/><use transform="matrix(0.008680555555555556,0,0,0.008680555555555556,11.180555555555559,0)" xlink:href="#az"/><use transform="matrix(0.008680555555555556,0,0,0.008680555555555556,21.84027777777778,0)" xlink:href="#aU"/><use transform="matrix(0.008680555555555556,0,0,0.008680555555555556,26.145833333333336,0)" xlink:href="#aU"/></g><use transform="matrix(0.008680555555555556,0,0,0.008680555555555556,0,0)" xlink:href="#at" id="s"/><path d="M633 20c-303 0-511-173-511-416 0-188 124-348 291-378v-8c-145-37-237-174-237-332 0-227 192-396 457-396 261 0 456 169 456 396 0 158-94 295-235 332v8c162 30 291 190 291 378 0 243-212 416-512 416zm0-165c197 0 322-103 322-261 0-165-138-283-322-283-188 0-324 118-324 283 0 158 123 261 324 261zm0-703c157 0 272-101 272-252 0-149-110-246-272-246-165 0-273 97-273 246 0 151 112 252 273 252" id="aV"/><g id="t"><use transform="matrix(0.008680555555555556,0,0,0.008680555555555556,0,0)" xlink:href="#ax"/><use transform="matrix(0.008680555555555556,0,0,0.008680555555555556,10.885416666666668,0)" xlink:href="#aV"/></g><g id="u"><use transform="matrix(0.008680555555555556,0,0,0.008680555555555556,0,0)" xlink:href="#as"/><use transform="matrix(0.008680555555555556,0,0,0.008680555555555556,5.642361111111112,0)" xlink:href="#az"/></g><path d="M158 0v-1118h175l1 205c55-151 181-225 313-225 147 0 245 90 285 228 53-141 190-228 352-228 194 0 352 125 352 384V0h-181v-749c0-161-105-225-225-225-151 0-243 103-243 244V0H807v-767c0-124-93-207-219-207-131 0-250 92-250 270V0H158" id="aW"/><g id="v"><use transform="matrix(0.008680555555555556,0,0,0.008680555555555556,0,0)" xlink:href="#ax"/><use transform="matrix(0.008680555555555556,0,0,0.008680555555555556,10.885416666666668,0)" xlink:href="#aE"/><use transform="matrix(0.008680555555555556,0,0,0.008680555555555556,21.25,0)" xlink:href="#as"/><use transform="matrix(0.008680555555555556,0,0,0.008680555555555556,26.89236111111111,0)" xlink:href="#aE"/><use transform="matrix(0.008680555555555556,0,0,0.008680555555555556,37.25694444444444,0)" xlink:href="#au"/><use transform="matrix(0.008680555555555556,0,0,0.008680555555555556,44.22743055555556,0)" xlink:href="#aW"/><use transform="matrix(0.008680555555555556,0,0,0.008680555555555556,59.80034722222222,0)" xlink:href="#aw"/><use transform="matrix(0.008680555555555556,0,0,0.008680555555555556,64.10590277777779,0)" xlink:href="#aC"/><use transform="matrix(0.008680555555555556,0,0,0.008680555555555556,74.60937500000001,0)" xlink:href="#aE"/></g><g id="w"><use transform="matrix(0.008680555555555556,0,0,0.008680555555555556,0,0)" xlink:href="#aW"/><use transform="matrix(0.008680555555555556,0,0,0.008680555555555556,15.572916666666668,0)" xlink:href="#az"/><use transform="matrix(0.008680555555555556,0,0,0.008680555555555556,25.88541666666667,0)" xlink:href="#aG"/><use transform="matrix(0.008680555555555556,0,0,0.008680555555555556,35.52951388888889,0)" xlink:href="#aE"/></g><g id="x"><use transform="matrix(0.008680555555555556,0,0,0.008680555555555556,0,0)" xlink:href="#aB"/><use transform="matrix(0.008680555555555556,0,0,0.008680555555555556,10.15625,0)" xlink:href="#az"/><use transform="matrix(0.008680555555555556,0,0,0.008680555555555556,20.81597222222222,0)" xlink:href="#aA"/><use transform="matrix(0.008680555555555556,0,0,0.008680555555555556,31.328125,0)" xlink:href="#aC"/><use transform="matrix(0.008680555555555556,0,0,0.008680555555555556,41.83159722222222,0)" xlink:href="#as"/></g><g id="y"><use transform="matrix(0.008680555555555556,0,0,0.008680555555555556,0,0)" xlink:href="#at"/><use transform="matrix(0.008680555555555556,0,0,0.008680555555555556,9.98263888888889,0)" xlink:href="#aU"/><use transform="matrix(0.008680555555555556,0,0,0.008680555555555556,14.288194444444445,0)" xlink:href="#aU"/></g><g id="z"><use transform="matrix(0.008680555555555556,0,0,0.008680555555555556,0,0)" xlink:href="#aW"/><use transform="matrix(0.008680555555555556,0,0,0.008680555555555556,15.572916666666668,0)" xlink:href="#az"/><use transform="matrix(0.008680555555555556,0,0,0.008680555555555556,25.88541666666667,0)" xlink:href="#aG"/><use transform="matrix(0.008680555555555556,0,0,0.008680555555555556,35.52951388888889,0)" xlink:href="#aE"/><use transform="matrix(0.008680555555555556,0,0,0.008680555555555556,45.894097222222236,0)" xlink:href="#aH"/></g><path d="M677 24c-213 0-288-135-325-197h-20V0H158v-1490h180v551h14c37-59 106-193 324-193 279 0 474 222 474 576 0 356-194 580-473 580zm-27-161c209 0 317-186 317-421 0-232-105-413-317-413-206 0-314 166-314 413 0 249 111 421 314 421" id="aX"/><g id="A"><use transform="matrix(0.008680555555555556,0,0,0.008680555555555556,0,0)" xlink:href="#aX"/><use transform="matrix(0.008680555555555556,0,0,0.008680555555555556,10.885416666666668,0)" xlink:href="#aE"/><use transform="matrix(0.008680555555555556,0,0,0.008680555555555556,21.25,0)" xlink:href="#aE"/><use transform="matrix(0.008680555555555556,0,0,0.008680555555555556,31.614583333333336,0)" xlink:href="#aC"/></g><g id="B"><use transform="matrix(0.008680555555555556,0,0,0.008680555555555556,0,0)" xlink:href="#aA"/><use transform="matrix(0.008680555555555556,0,0,0.008680555555555556,10.512152777777779,0)" xlink:href="#aH"/><use transform="matrix(0.008680555555555556,0,0,0.008680555555555556,19.895833333333336,0)" xlink:href="#aE"/><use transform="matrix(0.008680555555555556,0,0,0.008680555555555556,30.26041666666667,0)" xlink:href="#ax"/></g><path d="M98-1322v-168h1126v168H757V0H567v-1322H98" id="aY"/><path d="M158 0v-1490h180v865h22l478-493h223L593-638 1096 0H865L456-523 338-412V0H158" id="aZ"/><g id="C"><use transform="matrix(0.008680555555555556,0,0,0.008680555555555556,0,0)" xlink:href="#aY"/><use transform="matrix(0.008680555555555556,0,0,0.008680555555555556,10.17361111111111,0)" xlink:href="#at"/><use transform="matrix(0.008680555555555556,0,0,0.008680555555555556,20.15625,0)" xlink:href="#aZ"/><use transform="matrix(0.008680555555555556,0,0,0.008680555555555556,29.513888888888886,0)" xlink:href="#aE"/></g><g id="D"><use transform="matrix(0.008680555555555556,0,0,0.008680555555555556,0,0)" xlink:href="#at"/><use transform="matrix(0.008680555555555556,0,0,0.008680555555555556,9.98263888888889,0)" xlink:href="#aB"/><use transform="matrix(0.008680555555555556,0,0,0.008680555555555556,20.13888888888889,0)" xlink:href="#as"/><use transform="matrix(0.008680555555555556,0,0,0.008680555555555556,25.95486111111111,0)" xlink:href="#aw"/><use transform="matrix(0.008680555555555556,0,0,0.008680555555555556,30.260416666666664,0)" xlink:href="#az"/><use transform="matrix(0.008680555555555556,0,0,0.008680555555555556,40.920138888888886,0)" xlink:href="#aC"/></g><path d="M409 0L70-1118h191c89 329 165 560 243 925 75-353 154-601 240-925h192c85 325 161 564 235 922 77-354 157-598 244-922h191L1267 0h-179c-86-307-176-590-250-913C763-588 675-308 588 0H409" id="ba"/><path d="M338-670V0H158v-1490h180v566c73-149 190-208 336-208 226 0 379 139 379 422V0H872v-695c0-172-96-275-252-275-161 0-282 109-282 300" id="bb"/><g id="E"><use transform="matrix(0.008680555555555556,0,0,0.008680555555555556,0,0)" xlink:href="#ba"/><use transform="matrix(0.008680555555555556,0,0,0.008680555555555556,14.548611111111112,0)" xlink:href="#aw"/><use transform="matrix(0.008680555555555556,0,0,0.008680555555555556,18.854166666666668,0)" xlink:href="#as"/><use transform="matrix(0.008680555555555556,0,0,0.008680555555555556,24.67013888888889,0)" xlink:href="#bb"/></g><g id="F"><use transform="matrix(0.008680555555555556,0,0,0.008680555555555556,0,0)" xlink:href="#ay"/><use transform="matrix(0.008680555555555556,0,0,0.008680555555555556,9.644097222222223,0)" xlink:href="#az"/><use transform="matrix(0.008680555555555556,0,0,0.008680555555555556,20.303819444444446,0)" xlink:href="#aA"/><use transform="matrix(0.008680555555555556,0,0,0.008680555555555556,30.815972222222225,0)" xlink:href="#au"/></g><path d="M295 13c-75 0-135-60-135-135s60-135 135-135 135 60 135 135S370 13 295 13" id="bc"/><g id="G"><use transform="matrix(0.008680555555555556,0,0,0.008680555555555556,0,0)" xlink:href="#aA"/><use transform="matrix(0.008680555555555556,0,0,0.008680555555555556,10.512152777777779,0)" xlink:href="#aC"/><use transform="matrix(0.008680555555555556,0,0,0.008680555555555556,21.015625,0)" xlink:href="#aw"/><use transform="matrix(0.008680555555555556,0,0,0.008680555555555556,25.321180555555557,0)" xlink:href="#as"/><use transform="matrix(0.008680555555555556,0,0,0.008680555555555556,31.13715277777778,0)" xlink:href="#bc"/></g><g id="H"><use transform="matrix(0.008680555555555556,0,0,0.008680555555555556,0,0)" xlink:href="#aT"/><use transform="matrix(0.008680555555555556,0,0,0.008680555555555556,11.180555555555559,0)" xlink:href="#aE"/><use transform="matrix(0.008680555555555556,0,0,0.008680555555555556,21.71875,0)" xlink:href="#at"/><use transform="matrix(0.008680555555555556,0,0,0.008680555555555556,31.70138888888889,0)" xlink:href="#ax"/></g><g id="I"><use transform="matrix(0.008680555555555556,0,0,0.008680555555555556,0,0)" xlink:href="#aA"/><use transform="matrix(0.008680555555555556,0,0,0.008680555555555556,10.512152777777779,0)" xlink:href="#aC"/><use transform="matrix(0.008680555555555556,0,0,0.008680555555555556,21.015625,0)" xlink:href="#aw"/><use transform="matrix(0.008680555555555556,0,0,0.008680555555555556,25.321180555555557,0)" xlink:href="#as"/></g><g id="J"><use transform="matrix(0.008680555555555556,0,0,0.008680555555555556,0,0)" xlink:href="#aH"/><use transform="matrix(0.008680555555555556,0,0,0.008680555555555556,9.383680555555555,0)" xlink:href="#aA"/><use transform="matrix(0.008680555555555556,0,0,0.008680555555555556,19.895833333333336,0)" xlink:href="#aX"/><use transform="matrix(0.008680555555555556,0,0,0.008680555555555556,30.781250000000004,0)" xlink:href="#aB"/><use transform="matrix(0.008680555555555556,0,0,0.008680555555555556,40.9375,0)" xlink:href="#bb"/><use transform="matrix(0.008680555555555556,0,0,0.008680555555555556,51.44965277777778,0)" xlink:href="#at"/><use transform="matrix(0.008680555555555556,0,0,0.008680555555555556,61.43229166666667,0)" xlink:href="#au"/><use transform="matrix(0.008680555555555556,0,0,0.008680555555555556,68.40277777777779,0)" xlink:href="#as"/><use transform="matrix(0.008680555555555556,0,0,0.008680555555555556,74.04513888888889,0)" xlink:href="#aH"/><use transform="matrix(0.008680555555555556,0,0,0.008680555555555556,83.42881944444446,0)" xlink:href="#bc"/></g><path d="M180 0v-1490h908v168H370v486h669v168H370v500h727V0H180" id="bd"/><g id="K"><use transform="matrix(0.008680555555555556,0,0,0.008680555555555556,0,0)" xlink:href="#bd"/><use transform="matrix(0.008680555555555556,0,0,0.008680555555555556,10.68576388888889,0)" xlink:href="#aC"/><use transform="matrix(0.008680555555555556,0,0,0.008680555555555556,21.189236111111114,0)" xlink:href="#ax"/></g><g id="L"><use transform="matrix(0.008680555555555556,0,0,0.008680555555555556,0,0)" xlink:href="#as"/><use transform="matrix(0.008680555555555556,0,0,0.008680555555555556,5.815972222222222,0)" xlink:href="#aA"/><use transform="matrix(0.008680555555555556,0,0,0.008680555555555556,16.328125,0)" xlink:href="#au"/><use transform="matrix(0.008680555555555556,0,0,0.008680555555555556,23.298611111111118,0)" xlink:href="#aC"/></g><g id="M"><use transform="matrix(0.008680555555555556,0,0,0.008680555555555556,0,0)" xlink:href="#av"/><use transform="matrix(0.008680555555555556,0,0,0.008680555555555556,12.829861111111112,0)" xlink:href="#az"/></g><g id="N"><use transform="matrix(0.008680555555555556,0,0,0.008680555555555556,0,0)" xlink:href="#aH"/><use transform="matrix(0.008680555555555556,0,0,0.008680555555555556,9.383680555555555,0)" xlink:href="#as"/><use transform="matrix(0.008680555555555556,0,0,0.008680555555555556,15.199652777777779,0)" xlink:href="#aw"/><use transform="matrix(0.008680555555555556,0,0,0.008680555555555556,19.505208333333336,0)" xlink:href="#aU"/><use transform="matrix(0.008680555555555556,0,0,0.008680555555555556,23.810763888888893,0)" xlink:href="#aU"/></g><g id="O"><use transform="matrix(0.008680555555555556,0,0,0.008680555555555556,0,0)" xlink:href="#bb"/><use transform="matrix(0.008680555555555556,0,0,0.008680555555555556,10.512152777777779,0)" xlink:href="#at"/><use transform="matrix(0.008680555555555556,0,0,0.008680555555555556,20.234375,0)" xlink:href="#aG"/><use transform="matrix(0.008680555555555556,0,0,0.008680555555555556,29.878472222222218,0)" xlink:href="#aE"/></g><g id="P"><use transform="matrix(0.008680555555555556,0,0,0.008680555555555556,0,0)" xlink:href="#aA"/><use transform="matrix(0.008680555555555556,0,0,0.008680555555555556,10.512152777777779,0)" xlink:href="#aC"/><use transform="matrix(0.008680555555555556,0,0,0.008680555555555556,21.015625,0)" xlink:href="#aw"/><use transform="matrix(0.008680555555555556,0,0,0.008680555555555556,25.321180555555557,0)" xlink:href="#as"/><use transform="matrix(0.008680555555555556,0,0,0.008680555555555556,30.963541666666668,0)" xlink:href="#aH"/></g><g id="Q"><use transform="matrix(0.008680555555555556,0,0,0.008680555555555556,0,0)" xlink:href="#az"/><use transform="matrix(0.008680555555555556,0,0,0.008680555555555556,10.659722222222223,0)" xlink:href="#aC"/></g><g id="R"><use transform="matrix(0.008680555555555556,0,0,0.008680555555555556,0,0)" xlink:href="#as"/><use transform="matrix(0.008680555555555556,0,0,0.008680555555555556,5.815972222222222,0)" xlink:href="#bb"/><use transform="matrix(0.008680555555555556,0,0,0.008680555555555556,16.328125,0)" xlink:href="#aE"/></g><g id="S"><use transform="matrix(0.008680555555555556,0,0,0.008680555555555556,0,0)" xlink:href="#aX"/><use transform="matrix(0.008680555555555556,0,0,0.008680555555555556,10.885416666666668,0)" xlink:href="#az"/><use transform="matrix(0.008680555555555556,0,0,0.008680555555555556,21.71875,0)" xlink:href="#at"/><use transform="matrix(0.008680555555555556,0,0,0.008680555555555556,31.70138888888889,0)" xlink:href="#au"/><use transform="matrix(0.008680555555555556,0,0,0.008680555555555556,38.098958333333336,0)" xlink:href="#ax"/><use transform="matrix(0.008680555555555556,0,0,0.008680555555555556,48.984375,0)" xlink:href="#aI"/></g><path d="M180 0v-1490h190v1322h690V0H180" id="be"/><path d="M784 20c-382 0-662-292-662-764 0-473 280-766 662-766s660 293 660 766c0 472-278 764-660 764zm0-176c266 0 475-207 475-588 0-383-209-590-475-590-268 0-477 208-477 590 0 380 209 588 477 588" id="bf"/><g id="T"><use transform="matrix(0.008680555555555556,0,0,0.008680555555555556,0,0)" xlink:href="#be"/><use transform="matrix(0.008680555555555556,0,0,0.008680555555555556,9.54861111111111,0)" xlink:href="#bf"/><use transform="matrix(0.008680555555555556,0,0,0.008680555555555556,23.142361111111118,0)" xlink:href="#ar"/><use transform="matrix(0.008680555555555556,0,0,0.008680555555555556,34.548611111111114,0)" xlink:href="#bd"/></g><g id="U"><use transform="matrix(0.008680555555555556,0,0,0.008680555555555556,0,0)" xlink:href="#ar"/><use transform="matrix(0.008680555555555556,0,0,0.008680555555555556,11.40625,0)" xlink:href="#as"/><use transform="matrix(0.008680555555555556,0,0,0.008680555555555556,17.30902777777778,0)" xlink:href="#at"/><use transform="matrix(0.008680555555555556,0,0,0.008680555555555556,27.291666666666668,0)" xlink:href="#au"/><use transform="matrix(0.008680555555555556,0,0,0.008680555555555556,34.26215277777778,0)" xlink:href="#as"/></g><g id="V"><use transform="matrix(0.008680555555555556,0,0,0.008680555555555556,0,0)" xlink:href="#ar"/><use transform="matrix(0.008680555555555556,0,0,0.008680555555555556,11.40625,0)" xlink:href="#aC"/><use transform="matrix(0.008680555555555556,0,0,0.008680555555555556,21.90972222222222,0)" xlink:href="#aw"/><use transform="matrix(0.008680555555555556,0,0,0.008680555555555556,26.21527777777778,0)" xlink:href="#aF"/><use transform="matrix(0.008680555555555556,0,0,0.008680555555555556,37.10069444444444,0)" xlink:href="#aE"/><use transform="matrix(0.008680555555555556,0,0,0.008680555555555556,47.46527777777778,0)" xlink:href="#au"/></g><g id="W"><use transform="matrix(0.008680555555555556,0,0,0.008680555555555556,0,0)" xlink:href="#aO"/><use transform="matrix(0.008680555555555556,0,0,0.008680555555555556,17.51736111111111,0)" xlink:href="#aw"/><use transform="matrix(0.008680555555555556,0,0,0.008680555555555556,21.822916666666664,0)" xlink:href="#aU"/><use transform="matrix(0.008680555555555556,0,0,0.008680555555555556,26.128472222222225,0)" xlink:href="#aU"/></g><g id="X"><use transform="matrix(0.008680555555555556,0,0,0.008680555555555556,0,0)" xlink:href="#aH"/><use transform="matrix(0.008680555555555556,0,0,0.008680555555555556,9.383680555555555,0)" xlink:href="#bb"/><use transform="matrix(0.008680555555555556,0,0,0.008680555555555556,19.895833333333336,0)" xlink:href="#az"/><use transform="matrix(0.008680555555555556,0,0,0.008680555555555556,30.555555555555557,0)" xlink:href="#az"/><use transform="matrix(0.008680555555555556,0,0,0.008680555555555556,41.21527777777778,0)" xlink:href="#as"/></g><g id="Y"><use transform="matrix(0.008680555555555556,0,0,0.008680555555555556,0,0)" xlink:href="#at"/><use transform="matrix(0.008680555555555556,0,0,0.008680555555555556,9.98263888888889,0)" xlink:href="#aC"/></g><g id="Z"><use transform="matrix(0.008680555555555556,0,0,0.008680555555555556,0,0)" xlink:href="#aE"/><use transform="matrix(0.008680555555555556,0,0,0.008680555555555556,10.364583333333334,0)" xlink:href="#aC"/><use transform="matrix(0.008680555555555556,0,0,0.008680555555555556,20.868055555555557,0)" xlink:href="#aE"/><use transform="matrix(0.008680555555555556,0,0,0.008680555555555556,31.232638888888893,0)" xlink:href="#aW"/><use transform="matrix(0.008680555555555556,0,0,0.008680555555555556,46.54513888888889,0)" xlink:href="#ay"/></g><g id="aa"><use transform="matrix(0.008680555555555556,0,0,0.008680555555555556,0,0)" xlink:href="#aA"/><use transform="matrix(0.008680555555555556,0,0,0.008680555555555556,10.512152777777779,0)" xlink:href="#aC"/><use transform="matrix(0.008680555555555556,0,0,0.008680555555555556,21.015625,0)" xlink:href="#aw"/><use transform="matrix(0.008680555555555556,0,0,0.008680555555555556,25.321180555555557,0)" xlink:href="#as"/></g><path d="M180 0v-1490h270l367 940c28 72 75 218 110 339 35-117 81-264 110-339l362-940h271V0h-187c2-448-5-837 7-1287-157 497-311 829-483 1287H842C666-458 514-784 354-1284c12 438 5 843 7 1284H180" id="bg"/><g id="ab"><use transform="matrix(0.008680555555555556,0,0,0.008680555555555556,0,0)" xlink:href="#bg"/><use transform="matrix(0.008680555555555556,0,0,0.008680555555555556,16.05902777777778,0)" xlink:href="#az"/><use transform="matrix(0.008680555555555556,0,0,0.008680555555555556,26.37152777777778,0)" xlink:href="#aG"/><use transform="matrix(0.008680555555555556,0,0,0.008680555555555556,36.015625,0)" xlink:href="#aE"/></g><path d="M763 24c-353 0-583-224-583-531v-983h190v968c0 214 149 370 393 370 243 0 391-156 391-370v-968h190v983c0 307-230 531-581 531" id="bh"/><g id="ac"><use transform="matrix(0.008680555555555556,0,0,0.008680555555555556,0,0)" xlink:href="#bh"/><use transform="matrix(0.008680555555555556,0,0,0.008680555555555556,13.229166666666668,0)" xlink:href="#aC"/><use transform="matrix(0.008680555555555556,0,0,0.008680555555555556,23.732638888888893,0)" xlink:href="#aw"/><use transform="matrix(0.008680555555555556,0,0,0.008680555555555556,28.03819444444445,0)" xlink:href="#as"/></g><g id="ad"><use transform="matrix(0.008680555555555556,0,0,0.008680555555555556,0,0)" xlink:href="#at"/><use transform="matrix(0.008680555555555556,0,0,0.008680555555555556,9.98263888888889,0)" xlink:href="#as"/></g><path d="M52 0l541-1490h220L1361 0h-200l-149-416H398L254 0H52zm404-582h497c-103-290-145-390-251-756-108 377-145 460-246 756" id="bi"/><g id="ae"><use transform="matrix(0.008680555555555556,0,0,0.008680555555555556,0,0)" xlink:href="#bi"/><use transform="matrix(0.008680555555555556,0,0,0.008680555555555556,12.265625,0)" xlink:href="#aH"/><use transform="matrix(0.008680555555555556,0,0,0.008680555555555556,21.649305555555557,0)" xlink:href="#aH"/><use transform="matrix(0.008680555555555556,0,0,0.008680555555555556,31.03298611111111,0)" xlink:href="#at"/><use transform="matrix(0.008680555555555556,0,0,0.008680555555555556,41.015625,0)" xlink:href="#aA"/><use transform="matrix(0.008680555555555556,0,0,0.008680555555555556,51.52777777777778,0)" xlink:href="#aU"/><use transform="matrix(0.008680555555555556,0,0,0.008680555555555556,56.09375,0)" xlink:href="#as"/></g><g id="af"><use transform="matrix(0.008680555555555556,0,0,0.008680555555555556,0,0)" xlink:href="#aY"/><use transform="matrix(0.008680555555555556,0,0,0.008680555555555556,10.46875,0)" xlink:href="#au"/><use transform="matrix(0.008680555555555556,0,0,0.008680555555555556,16.866319444444443,0)" xlink:href="#az"/><use transform="matrix(0.008680555555555556,0,0,0.008680555555555556,27.526041666666664,0)" xlink:href="#az"/><use transform="matrix(0.008680555555555556,0,0,0.008680555555555556,38.185763888888886,0)" xlink:href="#aF"/><use transform="matrix(0.008680555555555556,0,0,0.008680555555555556,49.07118055555556,0)" xlink:href="#aE"/><use transform="matrix(0.008680555555555556,0,0,0.008680555555555556,59.43576388888889,0)" xlink:href="#au"/></g><g id="ag"><use transform="matrix(0.008680555555555556,0,0,0.008680555555555556,0,0)" xlink:href="#aO"/><use transform="matrix(0.008680555555555556,0,0,0.008680555555555556,17.51736111111111,0)" xlink:href="#aw"/><use transform="matrix(0.008680555555555556,0,0,0.008680555555555556,21.822916666666664,0)" xlink:href="#aU"/><use transform="matrix(0.008680555555555556,0,0,0.008680555555555556,26.128472222222225,0)" xlink:href="#aU"/></g><g id="ah"><use transform="matrix(0.008680555555555556,0,0,0.008680555555555556,0,0)" xlink:href="#aH"/><use transform="matrix(0.008680555555555556,0,0,0.008680555555555556,9.383680555555555,0)" xlink:href="#bb"/><use transform="matrix(0.008680555555555556,0,0,0.008680555555555556,19.895833333333336,0)" xlink:href="#az"/><use transform="matrix(0.008680555555555556,0,0,0.008680555555555556,30.555555555555557,0)" xlink:href="#az"/><use transform="matrix(0.008680555555555556,0,0,0.008680555555555556,41.21527777777778,0)" xlink:href="#as"/></g><g id="ai"><use transform="matrix(0.008680555555555556,0,0,0.008680555555555556,0,0)" xlink:href="#at"/><use transform="matrix(0.008680555555555556,0,0,0.008680555555555556,9.98263888888889,0)" xlink:href="#aC"/></g><g id="aj"><use transform="matrix(0.008680555555555556,0,0,0.008680555555555556,0,0)" xlink:href="#aE"/><use transform="matrix(0.008680555555555556,0,0,0.008680555555555556,10.364583333333334,0)" xlink:href="#aC"/><use transform="matrix(0.008680555555555556,0,0,0.008680555555555556,20.868055555555557,0)" xlink:href="#aE"/><use transform="matrix(0.008680555555555556,0,0,0.008680555555555556,31.232638888888893,0)" xlink:href="#aW"/><use transform="matrix(0.008680555555555556,0,0,0.008680555555555556,46.54513888888889,0)" xlink:href="#ay"/></g><path d="M611 442c-248 0-391-105-460-228l146-94c47 65 117 165 314 165 178 0 307-82 307-266v-224h-17C863-141 792-18 576-18c-268 0-472-195-472-546 0-346 197-568 476-568 216 0 288 133 326 193h17v-179h175V29c0 289-215 413-487 413zm-5-620c203 0 314-146 314-390 0-237-108-403-314-403-213 0-319 180-319 403 0 230 109 390 319 390" id="bj"/><g id="ak"><use transform="matrix(0.008680555555555556,0,0,0.008680555555555556,0,0)" xlink:href="#at"/><use transform="matrix(0.008680555555555556,0,0,0.008680555555555556,9.98263888888889,0)" xlink:href="#bj"/><use transform="matrix(0.008680555555555556,0,0,0.008680555555555556,20.885416666666668,0)" xlink:href="#at"/><use transform="matrix(0.008680555555555556,0,0,0.008680555555555556,30.868055555555557,0)" xlink:href="#aw"/><use transform="matrix(0.008680555555555556,0,0,0.008680555555555556,35.173611111111114,0)" xlink:href="#aC"/></g><g id="al"><use transform="matrix(0.008680555555555556,0,0,0.008680555555555556,0,0)" xlink:href="#at"/><use transform="matrix(0.008680555555555556,0,0,0.008680555555555556,9.98263888888889,0)" xlink:href="#aC"/></g><g id="am"><use transform="matrix(0.008680555555555556,0,0,0.008680555555555556,0,0)" xlink:href="#aE"/><use transform="matrix(0.008680555555555556,0,0,0.008680555555555556,10.364583333333334,0)" xlink:href="#aC"/><use transform="matrix(0.008680555555555556,0,0,0.008680555555555556,20.868055555555557,0)" xlink:href="#aE"/><use transform="matrix(0.008680555555555556,0,0,0.008680555555555556,31.232638888888893,0)" xlink:href="#aW"/><use transform="matrix(0.008680555555555556,0,0,0.008680555555555556,46.54513888888889,0)" xlink:href="#ay"/></g><g id="an"><use transform="matrix(0.008680555555555556,0,0,0.008680555555555556,0,0)" xlink:href="#bd"/><use transform="matrix(0.008680555555555556,0,0,0.008680555555555556,10.68576388888889,0)" xlink:href="#aC"/><use transform="matrix(0.008680555555555556,0,0,0.008680555555555556,21.189236111111114,0)" xlink:href="#aE"/><use transform="matrix(0.008680555555555556,0,0,0.008680555555555556,31.55381944444445,0)" xlink:href="#aW"/><use transform="matrix(0.008680555555555556,0,0,0.008680555555555556,46.86631944444445,0)" xlink:href="#ay"/></g><g id="ao"><use transform="matrix(0.008680555555555556,0,0,0.008680555555555556,0,0)" xlink:href="#as"/><use transform="matrix(0.008680555555555556,0,0,0.008680555555555556,5.902777777777778,0)" xlink:href="#at"/><use transform="matrix(0.008680555555555556,0,0,0.008680555555555556,15.885416666666668,0)" xlink:href="#aZ"/><use transform="matrix(0.008680555555555556,0,0,0.008680555555555556,25.243055555555557,0)" xlink:href="#aE"/><use transform="matrix(0.008680555555555556,0,0,0.008680555555555556,35.60763888888889,0)" xlink:href="#aH"/></g><path d="M653-1490V0H466v-1314h-10L96-1047v-204l324-239h233" id="bk"/><use transform="matrix(0.008680555555555556,0,0,0.008680555555555556,0,0)" xlink:href="#bk" id="ap"/><g id="aq"><use transform="matrix(0.008680555555555556,0,0,0.008680555555555556,0,0)" xlink:href="#ax"/><use transform="matrix(0.008680555555555556,0,0,0.008680555555555556,10.885416666666668,0)" xlink:href="#at"/><use transform="matrix(0.008680555555555556,0,0,0.008680555555555556,20.868055555555557,0)" xlink:href="#aW"/><use transform="matrix(0.008680555555555556,0,0,0.008680555555555556,36.44097222222223,0)" xlink:href="#at"/><use transform="matrix(0.008680555555555556,0,0,0.008680555555555556,46.423611111111114,0)" xlink:href="#bj"/><use transform="matrix(0.008680555555555556,0,0,0.008680555555555556,57.32638888888889,0)" xlink:href="#aE"/></g></defs></g></svg>